<svg width="39" height="39" viewBox="0 0 39 39" fill="none" xmlns="http://www.w3.org/2000/svg">
<path d="M36.1749 15.7488C36.2833 15.7488 36.3906 15.7275 36.4907 15.686C36.5908 15.6445 36.6817 15.5838 36.7584 15.5072C36.835 15.4305 36.8958 15.3396 36.9372 15.2395C36.9787 15.1393 37 15.0321 37 14.9237V2.8257C36.9999 2.77114 36.9944 2.71672 36.9837 2.66324C36.9792 2.64082 36.9707 2.62012 36.9645 2.59837C36.9569 2.56806 36.9477 2.53821 36.9367 2.50897C36.9264 2.48403 36.912 2.46156 36.8993 2.43792C36.8867 2.41418 36.876 2.38968 36.8608 2.36699C36.8358 2.33068 36.8078 2.29644 36.7773 2.26461C36.7704 2.25725 36.7656 2.24874 36.7585 2.24156C36.7516 2.23472 36.7435 2.23018 36.7365 2.22362C36.7043 2.19268 36.6696 2.1644 36.6328 2.13907C36.612 2.12512 36.5894 2.11555 36.5677 2.1037C36.5427 2.08879 36.5169 2.07523 36.4904 2.0631C36.4645 2.0536 36.4381 2.04542 36.4114 2.03858C36.3863 2.03102 36.3621 2.02144 36.336 2.01627C36.2901 2.00768 36.2436 2.00298 36.1969 2.00221C36.1894 2.00202 36.1824 2 36.1749 2H24.0763C23.968 2 23.8607 2.02134 23.7606 2.06281C23.6605 2.10427 23.5695 2.16505 23.4929 2.24167C23.4163 2.31828 23.3555 2.40924 23.314 2.50935C23.2726 2.60945 23.2512 2.71674 23.2512 2.8251C23.2512 2.93345 23.2726 3.04074 23.314 3.14085C23.3555 3.24096 23.4163 3.33191 23.4929 3.40853C23.5695 3.48515 23.6605 3.54593 23.7606 3.58739C23.8607 3.62886 23.968 3.6502 24.0763 3.6502H34.1827L21.2417 16.5911C21.087 16.7459 21 16.9558 21 17.1747C21 17.3936 21.087 17.6035 21.2417 17.7583C21.3965 17.913 21.6064 18 21.8253 18C22.0442 18 22.2541 17.913 22.4089 17.7583L35.3498 4.81735V14.9237C35.3498 15.0321 35.3711 15.1393 35.4126 15.2395C35.454 15.3396 35.5148 15.4305 35.5914 15.5072C35.6681 15.5838 35.759 15.6445 35.8591 15.686C35.9592 15.7275 36.0665 15.7488 36.1749 15.7488Z" fill="black"/>
<path d="M38.1939 29.0546L30.5176 23.9774C30.1191 23.6999 29.6305 23.5831 29.1496 23.6505C28.6686 23.7179 28.2309 23.9645 27.9241 24.3409L25.633 27.322C25.4356 27.5871 25.1752 27.7986 24.8754 27.9376C24.5755 28.0765 24.2458 28.1385 23.916 28.1178C21.482 27.9027 17.9941 25.4266 15.783 23.217C13.5735 21.0059 11.0974 17.518 10.8823 15.0841C10.8615 14.7543 10.9235 14.4245 11.0624 14.1246C11.2014 13.8248 11.413 13.5644 11.678 13.367L14.6591 11.076C15.0355 10.7691 15.2821 10.3314 15.3495 9.85047C15.4169 9.36954 15.3002 8.88091 15.0226 8.4824L9.94543 0.806156C9.70018 0.463359 9.34935 0.210378 8.94664 0.0859389C8.54393 -0.0385004 8.11154 -0.0275413 7.71565 0.117139C6.949 0.400019 6.21402 0.762299 5.52273 1.19807C4.84647 1.62926 4.21923 2.13287 3.6521 2.69999C3.34712 3.00671 3.05995 3.33064 2.792 3.67019C-2.56042 10.4846 -0.10574 20.4976 9.19824 29.8018C18.5024 39.1057 28.5154 41.5604 35.3298 36.208C35.6694 35.9401 35.9933 35.6529 36.3 35.3479C36.8671 34.7808 37.3707 34.1535 37.8019 33.4773C38.2377 32.786 38.6 32.051 38.8829 31.2843C39.0275 30.8885 39.0385 30.4561 38.9141 30.0534C38.7896 29.6507 38.5367 29.2998 38.1939 29.0546ZM37.3816 30.7282C37.138 31.3892 36.826 32.0228 36.4507 32.6189C36.0827 33.1959 35.6529 33.7311 35.1689 34.2149C34.9065 34.4758 34.6295 34.7214 34.339 34.9506C28.2153 39.7604 19.0151 37.3543 10.3304 28.6696C1.64576 19.9849 -0.760393 10.7848 4.04945 4.66102C4.2786 4.37055 4.52422 4.09346 4.78511 3.83112C5.26894 3.34711 5.80411 2.9173 6.38112 2.54931C6.9772 2.17401 7.61087 1.86203 8.2718 1.61843C8.3069 1.60556 8.34401 1.59901 8.3814 1.59909C8.42844 1.59812 8.47507 1.60798 8.51769 1.62789C8.56031 1.64781 8.59779 1.67726 8.62722 1.71396L13.7043 9.39033C13.7517 9.45458 13.7738 9.53398 13.7665 9.61346C13.7592 9.69294 13.7229 9.76697 13.6647 9.8215L10.7026 12.0976C10.2216 12.4568 9.83948 12.9321 9.59202 13.4791C9.34456 14.026 9.23981 14.6268 9.28756 15.2252C9.53914 18.0723 12.1625 21.8589 14.6511 24.3489C17.1411 26.8375 20.9277 29.4609 23.7748 29.7124C24.3732 29.7602 24.974 29.6554 25.5209 29.408C26.0679 29.1605 26.5432 28.7784 26.9024 28.2974L29.1785 25.3353C29.233 25.277 29.3071 25.2408 29.3865 25.2335C29.466 25.2262 29.5454 25.2483 29.6097 25.2957L37.286 30.3728C37.3227 30.4022 37.3522 30.4397 37.3721 30.4823C37.392 30.525 37.4019 30.5716 37.4009 30.6186C37.401 30.656 37.3944 30.6931 37.3816 30.7282Z" fill="black"/>
</svg>
