<svg width="26" height="26" viewBox="0 0 26 26" fill="none" xmlns="http://www.w3.org/2000/svg">
<path d="M22.2998 14.25C22.0248 14.25 21.7373 14.1625 21.4623 14.1C20.9054 13.9772 20.3581 13.8143 19.8248 13.6125C19.2449 13.4015 18.6074 13.4124 18.0351 13.6432C17.4628 13.874 16.9961 14.3082 16.7248 14.8625L16.4498 15.425C15.2323 14.7477 14.1135 13.9065 13.1248 12.925C12.1432 11.9362 11.302 10.8175 10.6248 9.59996L11.1498 9.24996C11.704 8.9786 12.1382 8.51187 12.369 7.93957C12.5998 7.36727 12.6107 6.72985 12.3998 6.14996C12.2013 5.61548 12.0384 5.06845 11.9123 4.51246C11.8498 4.23746 11.7998 3.94996 11.7623 3.66246C11.6105 2.78198 11.1493 1.98463 10.4618 1.41401C9.77428 0.843378 8.90563 0.536968 8.01226 0.549957H4.26226C3.72355 0.544899 3.19007 0.655974 2.69815 0.87562C2.20622 1.09527 1.7674 1.41833 1.41155 1.82281C1.0557 2.22729 0.791178 2.7037 0.635995 3.2196C0.480812 3.7355 0.438609 4.27878 0.51226 4.81246C1.17818 10.0492 3.5698 14.9148 7.30933 18.6408C11.0489 22.3667 15.9231 24.7406 21.1623 25.3875H21.6373C22.559 25.3888 23.449 25.0506 24.1373 24.4375C24.5327 24.0838 24.8486 23.6502 25.0641 23.1654C25.2796 22.6805 25.3897 22.1555 25.3873 21.625V17.875C25.3719 17.0067 25.0558 16.1706 24.4927 15.5095C23.9296 14.8484 23.1545 14.4032 22.2998 14.25ZM22.9248 21.75C22.9245 21.9274 22.8865 22.1028 22.8132 22.2645C22.74 22.4261 22.6331 22.5703 22.4998 22.6875C22.3605 22.8087 22.1972 22.8992 22.0206 22.9531C21.844 23.0069 21.658 23.0229 21.4748 23C16.7934 22.3997 12.4451 20.2581 9.11565 16.9128C5.78625 13.5676 3.66527 9.20913 3.08726 4.52496C3.06737 4.34185 3.0848 4.15662 3.13851 3.98045C3.19222 3.80427 3.2811 3.64082 3.39976 3.49996C3.5169 3.36662 3.66109 3.25976 3.82273 3.18648C3.98438 3.1132 4.15978 3.07518 4.33726 3.07496H8.08726C8.37794 3.06849 8.66179 3.16356 8.88994 3.3438C9.11809 3.52403 9.27627 3.77817 9.33726 4.06246C9.38726 4.40412 9.44976 4.74162 9.52476 5.07496C9.66916 5.73389 9.86133 6.38143 10.0998 7.01246L8.34976 7.82496C8.20013 7.89361 8.06554 7.99114 7.95371 8.11195C7.84188 8.23276 7.75501 8.37447 7.6981 8.52895C7.64119 8.68342 7.61535 8.84762 7.62207 9.01211C7.62879 9.1766 7.66794 9.33814 7.73726 9.48746C9.53626 13.3409 12.6338 16.4385 16.4873 18.2375C16.7916 18.3625 17.1329 18.3625 17.4373 18.2375C17.5932 18.1817 17.7364 18.0955 17.8587 17.9839C17.981 17.8724 18.08 17.7376 18.1498 17.5875L18.9248 15.8375C19.571 16.0686 20.2305 16.2606 20.8998 16.4125C21.2331 16.4875 21.5706 16.55 21.9123 16.6C22.1965 16.6609 22.4507 16.8191 22.6309 17.0473C22.8112 17.2754 22.9062 17.5593 22.8998 17.85L22.9248 21.75Z" fill="black"/>
</svg>
