<svg width="20" height="20" viewBox="0 0 20 20" fill="none" xmlns="http://www.w3.org/2000/svg">
<path d="M1.25 5.625C1.25 3.89911 2.64911 2.5 4.375 2.5H15.625C17.3509 2.5 18.75 3.89911 18.75 5.625V11.875C18.75 13.6009 17.3509 15 15.625 15H10.8598L7.03166 18.3496C6.2396 19.0427 5 18.4802 5 17.4277V15H4.375C2.64911 15 1.25 13.6009 1.25 11.875V5.625ZM4.375 3.75C3.33946 3.75 2.5 4.58946 2.5 5.625V11.875C2.5 12.9105 3.33946 13.75 4.375 13.75H6.25V17.3726L10.3902 13.75H15.625C16.6605 13.75 17.5 12.9105 17.5 11.875V5.625C17.5 4.58946 16.6605 3.75 15.625 3.75H4.375Z" fill="#707379"/>
</svg>
