<svg width="20" height="20" viewBox="0 0 20 20" fill="none" xmlns="http://www.w3.org/2000/svg">
<path d="M3.12271 1.87316C2.79164 1.87624 2.47499 2.00912 2.24088 2.24324C2.00676 2.47736 1.87387 2.794 1.87079 3.12508V11.8743C1.87079 12.557 2.44242 13.1263 3.12271 13.1263H5.00059C5.46356 13.1263 5.86985 12.8593 6.08716 12.4767C6.50762 12.7365 6.92099 12.8877 7.18791 13.0412C7.81623 13.405 8.13747 14.4254 8.28629 15.4907C8.35951 16.0222 8.39967 16.5348 8.46581 16.9623C8.49888 17.1749 8.52958 17.3639 8.61698 17.5717C8.67278 17.7294 8.77469 17.8666 8.90949 17.9656C9.04428 18.0646 9.20573 18.1208 9.37286 18.1268C10.3012 18.1268 11.0618 17.7631 11.546 17.2056C12.0326 16.6505 12.2594 15.9537 12.3822 15.264C12.5806 14.1349 12.505 13.1782 12.4672 12.4956H16.2466C17.2765 12.4956 18.1268 11.6499 18.1268 10.6224C18.1268 10.2587 18.0229 9.98465 17.8906 9.55947C17.7584 9.13192 17.5812 8.61698 17.3828 8.06661C16.9907 6.96587 16.523 5.71867 16.2159 4.79981C16.1004 4.40452 15.9077 4.03602 15.649 3.7156C15.4908 3.53229 15.2956 3.38464 15.0761 3.28243C14.8566 3.18022 14.6179 3.12578 14.3758 3.12271H6.87374C6.66072 3.12467 6.44968 3.16384 6.25015 3.23845V3.12035C6.25015 2.44006 5.68324 1.87079 5.00059 1.87079L3.12271 1.87316ZM3.12271 3.12508H5.00059V11.8743H3.12271V3.12508ZM6.87374 4.37463H14.3758C14.5412 4.37463 14.5931 4.4077 14.7018 4.53526C14.8498 4.73647 14.9617 4.96186 15.0325 5.20137C15.3514 6.15803 15.8191 7.40286 16.2064 8.48943C16.4001 9.03272 16.5749 9.53585 16.6954 9.93032C16.8182 10.3224 16.8773 10.6767 16.8773 10.6248C16.8789 10.7075 16.8637 10.7897 16.8327 10.8664C16.8016 10.9431 16.7553 11.0127 16.6966 11.071C16.6378 11.1293 16.5679 11.1751 16.491 11.2056C16.414 11.2361 16.3317 11.2506 16.249 11.2484H11.82C11.7374 11.2481 11.6556 11.2641 11.5792 11.2956C11.5028 11.327 11.4334 11.3733 11.375 11.4317C11.3166 11.4901 11.2703 11.5595 11.2389 11.6359C11.2074 11.7123 11.1914 11.7941 11.1917 11.8767C11.1917 12.6137 11.3523 13.9317 11.1563 15.0514C11.057 15.6088 10.8728 16.0789 10.6059 16.3836C10.375 16.6433 10.0578 16.8103 9.713 16.8537C9.64923 16.497 9.60671 15.8876 9.5264 15.3183C9.36341 14.1538 9.05634 12.6798 7.8115 11.9594C7.34617 11.6925 6.89737 11.5342 6.63045 11.3499C6.36117 11.1657 6.25251 11.0665 6.25251 10.6248V5.00295C6.25251 4.64391 6.51707 4.37463 6.87374 4.37463Z" fill="#707379"/>
</svg>
