<svg width="20" height="20" viewBox="0 0 20 20" fill="none" xmlns="http://www.w3.org/2000/svg">
<path d="M3.12271 18.1268C2.79164 18.1238 2.47499 17.9909 2.24088 17.7568C2.00676 17.5226 1.87387 17.206 1.87079 16.8749V8.12566C1.87079 7.44301 2.44242 6.87375 3.12271 6.87375H5.00059C5.46356 6.87375 5.86985 7.14066 6.08716 7.52333C6.50762 7.26349 6.92099 7.11232 7.18791 6.95878C7.81623 6.59502 8.13747 5.57458 8.28629 4.50927C8.35951 3.9778 8.39967 3.46522 8.46581 3.03768C8.49888 2.82509 8.52958 2.63612 8.61698 2.42825C8.67278 2.27059 8.77469 2.13336 8.90949 2.03437C9.04428 1.93538 9.20573 1.87921 9.37286 1.87315C10.3012 1.87315 11.0618 2.23692 11.546 2.79438C12.0326 3.34947 12.2594 4.0463 12.3822 4.73603C12.5806 5.86512 12.505 6.82178 12.4672 7.50443H16.2466C17.2765 7.50443 18.1268 8.35006 18.1268 9.37758C18.1268 9.74135 18.0229 10.0154 17.8906 10.4405C17.7584 10.8681 17.5812 11.383 17.3828 11.9334C16.9907 13.0341 16.523 14.2813 16.2159 15.2002C16.1004 15.5955 15.9077 15.964 15.649 16.2844C15.4908 16.4677 15.2956 16.6154 15.0761 16.7176C14.8566 16.8198 14.6179 16.8742 14.3758 16.8773H6.87374C6.66072 16.8753 6.44968 16.8362 6.25015 16.7615V16.8796C6.25015 17.5599 5.68324 18.1292 5.00059 18.1292L3.12271 18.1268ZM3.12271 16.8749H5.00059V8.12566H3.12271V16.8749ZM6.87374 15.6254H14.3758C14.5412 15.6254 14.5931 15.5923 14.7018 15.4647C14.8498 15.2635 14.9617 15.0381 15.0325 14.7986C15.3514 13.842 15.8191 12.5971 16.2064 11.5106C16.4001 10.9673 16.5749 10.4642 16.6954 10.0697C16.8182 9.67757 16.8773 9.32325 16.8773 9.37522C16.8789 9.29248 16.8637 9.21027 16.8327 9.13357C16.8016 9.05686 16.7553 8.98725 16.6966 8.92896C16.6378 8.87066 16.5679 8.82489 16.491 8.79441C16.414 8.76393 16.3317 8.74937 16.249 8.75162H11.82C11.7374 8.75194 11.6556 8.7359 11.5792 8.70443C11.5028 8.67297 11.4334 8.6267 11.375 8.56829C11.3166 8.50988 11.2703 8.44049 11.2389 8.36412C11.2074 8.28775 11.1914 8.2059 11.1917 8.1233C11.1917 7.38632 11.3523 6.06826 11.1563 4.94862C11.057 4.39117 10.8728 3.92111 10.6059 3.61639C10.375 3.35669 10.0578 3.18966 9.713 3.14633C9.64923 3.50301 9.60671 4.11244 9.5264 4.68171C9.36341 5.84623 9.05634 7.32018 7.8115 8.04063C7.34617 8.30755 6.89737 8.46581 6.63045 8.65005C6.36117 8.8343 6.25251 8.93351 6.25251 9.37522V14.997C6.25251 15.3561 6.51707 15.6254 6.87374 15.6254Z" fill="#707379"/>
</svg>
