<svg width="37" height="37" viewBox="0 0 37 37" fill="none" xmlns="http://www.w3.org/2000/svg">
<path d="M23.1086 10.4873C23.1036 9.57445 22.8284 8.68356 22.3177 7.92699C21.807 7.17042 21.0836 6.58207 20.2388 6.23618C19.3941 5.89029 18.4658 5.80235 17.5711 5.98347C16.6764 6.16458 15.8555 6.60663 15.2117 7.25383C14.568 7.90104 14.1304 8.72441 13.9542 9.62005C13.7779 10.5157 13.8708 11.4435 14.2213 12.2863C14.5718 13.1292 15.164 13.8494 15.9233 14.356C16.6827 14.8627 17.575 15.133 18.4878 15.1331C19.7163 15.1286 20.8929 14.6369 21.7592 13.7659C22.6255 12.8949 23.1108 11.7157 23.1086 10.4873ZM15.5383 10.4873C15.5432 9.90499 15.7204 9.3372 16.0475 8.85545C16.3746 8.3737 16.837 7.99955 17.3764 7.78015C17.9157 7.56074 18.508 7.50589 19.0785 7.62252C19.649 7.73914 20.1722 8.02202 20.5822 8.43551C20.9922 8.84899 21.2707 9.37459 21.3825 9.94605C21.4942 10.5175 21.4344 11.1093 21.2104 11.6468C20.9865 12.1843 20.6084 12.6435 20.1239 12.9665C19.6394 13.2895 19.0701 13.4619 18.4878 13.4619C17.7026 13.4575 16.9511 13.1419 16.3982 12.5843C15.8453 12.0266 15.536 11.2725 15.5383 10.4873Z" fill="white"/>
<path d="M2.51964 22.1268L0.012912 36.0182C-0.00866411 36.1395 -0.00314722 36.2641 0.0290677 36.383C0.0612826 36.502 0.119398 36.6123 0.199252 36.7061C0.279105 36.7999 0.37872 36.8749 0.490962 36.9258C0.603203 36.9766 0.725293 37.0019 0.848487 37H36.1515C36.2747 37.0019 36.3968 36.9766 36.509 36.9258C36.6213 36.8749 36.7209 36.7999 36.8007 36.7061C36.8806 36.6123 36.9387 36.502 36.9709 36.383C37.0031 36.2641 37.0087 36.1395 36.9871 36.0182L34.4804 22.1268C34.4457 21.9314 34.3425 21.7547 34.1894 21.6284C34.0363 21.5021 33.8432 21.4344 33.6448 21.4375H24.9506L27.1273 18.5129C28.7947 16.3312 29.6288 13.626 29.4794 10.8842C29.0784 4.93486 24.207 0.251465 18.383 0.251465C12.5591 0.251465 7.68766 4.93486 7.28659 10.9009C7.13728 13.6427 7.97134 16.3479 9.63873 18.5297L11.8154 21.4542H3.34268C3.14875 21.4534 2.96057 21.52 2.81041 21.6427C2.66025 21.7655 2.55745 21.9366 2.51964 22.1268ZM8.95356 11.0095C9.25437 6.5517 12.864 1.92261 18.383 1.92261C23.902 1.92261 27.5117 6.51827 27.8125 11.0011C27.9345 13.3456 27.216 15.6566 25.7862 17.5186L18.383 27.4369L10.9673 17.5311C9.54197 15.6674 8.82797 13.3566 8.95356 11.0137V11.0095ZM13.0646 23.1253L17.7146 29.3336C17.7923 29.4382 17.8934 29.5231 18.0099 29.5817C18.1263 29.6402 18.2548 29.6707 18.3851 29.6707C18.5154 29.6707 18.6439 29.6402 18.7603 29.5817C18.8768 29.5231 18.9779 29.4382 19.0557 29.3336L23.7015 23.1128H32.9346L35.1405 35.3456H1.83446L4.04038 23.1253H13.0646Z" fill="white"/>
</svg>
