<svg width="24" height="19" viewBox="0 0 24 19" fill="none" xmlns="http://www.w3.org/2000/svg">
<path d="M21.6656 0.789062L12.0422 0.8125L2.41875 0.765625H2.41406C1.12031 0.765625 0.09375 1.97969 0.09375 3.49844V16.2203C0.09375 17.7391 1.12031 18.9531 2.41406 18.9531H21.6797C22.9734 18.9531 24 17.7391 24 16.2203V3.49844C24 1.97969 22.9828 0.789062 21.6656 0.789062ZM20.9109 2.66406L12.3141 10.525L12.2812 10.5531L12.2531 10.5859C12.15 10.6984 12.0281 10.7125 11.9625 10.7125C11.8969 10.7125 11.775 10.6937 11.6766 10.5766L11.6484 10.5438L3.43125 2.62656L12.0422 2.68281L20.9109 2.66406ZM21.6797 17.0781H2.41406C2.25 17.0781 1.96875 16.7688 1.96875 16.2203V3.79844L10.2938 11.8422C10.7156 12.3109 11.3109 12.5828 11.9438 12.5922H11.9719C12.5953 12.5922 13.1766 12.3344 13.6031 11.8844L22.1344 4.075V16.2203C22.125 16.7688 21.8438 17.0781 21.6797 17.0781Z" fill="#010002"/>
</svg>
