<svg width="39" height="40" viewBox="0 0 39 40" fill="none" xmlns="http://www.w3.org/2000/svg">
<path d="M38.335 16.3265C38.335 16.2522 38.3148 16.1847 38.2945 16.1172C38.2878 16.0835 38.2878 16.043 38.2675 16.0092C38.254 15.9822 38.227 15.9552 38.2135 15.9282C38.173 15.8607 38.1393 15.7932 38.0785 15.7392C38.0785 15.7392 38.0785 15.7324 38.0718 15.7324L33.9271 11.797V6.18075C33.9271 5.78249 33.603 5.45172 33.198 5.45172H27.251L23.1738 1.57704C20.9597 -0.522304 17.3618 -0.529055 15.1545 1.57704L11.0773 5.45172H5.13024C4.73197 5.45172 4.4012 5.77574 4.4012 6.18075V11.797L0.256513 15.7392L0.249762 15.7459C0.243012 15.7527 0.243011 15.7527 0.236261 15.7594L0.229511 15.7662C0.202509 15.7932 0.189009 15.8337 0.168758 15.8675C0.155257 15.8877 0.141757 15.908 0.128256 15.9282C0.108005 15.9552 0.081004 15.9822 0.0675034 16.016C0.0675034 16.0227 0.0675032 16.0295 0.0607529 16.0362C0.040502 16.0835 0.0405025 16.1375 0.0270019 16.1847C0.0202516 16.232 0 16.2792 0 16.3332C0 16.34 0 16.34 0 16.3467V38.6228C0 38.6633 0.0202514 38.697 0.0202514 38.7375C0.0270017 38.805 0.0337517 38.8725 0.0607529 38.9265C0.0877541 38.9873 0.128256 39.0413 0.168758 39.0953C0.189009 39.129 0.202509 39.1628 0.229511 39.1898C0.229511 39.1898 0.236261 39.1898 0.236261 39.1965C0.290264 39.2573 0.357767 39.291 0.42527 39.3315C0.452272 39.345 0.472523 39.372 0.499524 39.3855C0.533276 39.399 0.567027 39.399 0.607529 39.4058C0.675032 39.426 0.742535 39.4463 0.816788 39.4463C0.823539 39.4463 0.823539 39.4463 0.830289 39.4463H37.4912C37.606 39.4463 37.714 39.426 37.8152 39.3788C37.9165 39.3383 38.011 39.2708 38.0853 39.1898C38.0853 39.1898 38.092 39.1898 38.092 39.183C38.119 39.156 38.1325 39.1223 38.1528 39.0885C38.1933 39.0345 38.2338 38.9805 38.2608 38.913C38.281 38.8523 38.2878 38.7915 38.3013 38.724C38.308 38.6835 38.3283 38.643 38.3283 38.6025V16.3265C38.3418 16.3332 38.335 16.3332 38.335 16.3265ZM2.93639 37.779L16.3155 25.0681C17.8951 23.5696 20.4602 23.5696 22.033 25.0681L35.4121 37.779H2.93639ZM5.86602 10.4132V6.90304H9.55844H11.9886H26.3667H28.7901H32.4825V10.4132V12.7218V16.34V19.9581L31.9965 20.4239L25.7862 26.3237L23.1873 23.8531C20.9732 21.7537 17.3753 21.7537 15.1679 23.8531L12.5691 26.3237L6.35879 20.4239L5.87277 19.9581V16.34V12.7218V10.4132H5.86602ZM36.6677 18.2841V36.6652L26.9945 27.478L36.6677 18.2841ZM11.354 27.478L1.68083 36.6652V18.2841L11.354 27.478ZM36.2897 16.34L33.9338 18.5811V16.34V14.0989L36.2897 16.34ZM16.3155 2.7921C17.8951 1.29353 20.4602 1.29353 22.033 2.7921L24.8344 5.45172H13.5141L16.3155 2.7921ZM4.4147 14.0989V16.34V18.5811L2.05885 16.34L4.4147 14.0989Z" fill="white"/>
<path d="M10.0784 10.94H18.1923C18.3948 10.94 18.5568 10.778 18.5568 10.5755C18.5568 10.3729 18.3948 10.2109 18.1923 10.2109H10.0784C9.87588 10.2109 9.71387 10.3729 9.71387 10.5755C9.71387 10.778 9.87588 10.94 10.0784 10.94Z" fill="white"/>
<path d="M10.0784 13.8218H28.2705C28.473 13.8218 28.635 13.6598 28.635 13.4573C28.635 13.2548 28.473 13.0928 28.2705 13.0928H10.0784C9.87588 13.0928 9.71387 13.2548 9.71387 13.4573C9.71387 13.6598 9.87588 13.8218 10.0784 13.8218Z" fill="white"/>
<path d="M10.0784 16.7046H28.2705C28.473 16.7046 28.635 16.5426 28.635 16.3401C28.635 16.1376 28.473 15.9756 28.2705 15.9756H10.0784C9.87588 15.9756 9.71387 16.1376 9.71387 16.3401C9.71387 16.5426 9.87588 16.7046 10.0784 16.7046Z" fill="white"/>
</svg>
