<svg width="22" height="22" viewBox="0 0 22 22" fill="none" xmlns="http://www.w3.org/2000/svg">
<g clip-path="url(#clip0_0_3)">
<path d="M17.5977 5.96979H16.131V4.37938C16.1304 3.49198 15.7778 2.64107 15.1505 2.01337C14.5233 1.38567 13.6726 1.03246 12.7852 1.03125H9.21479C8.32739 1.03246 7.47673 1.38567 6.84946 2.01337C6.22219 2.64107 5.86956 3.49198 5.86895 4.37938V5.96979H4.40229C3.82508 5.9704 3.27168 6.19996 2.86353 6.60811C2.45538 7.01627 2.22581 7.56966 2.2252 8.14687V18.7917C2.22581 19.3689 2.45538 19.9223 2.86353 20.3304C3.27168 20.7386 3.82508 20.9681 4.40229 20.9688H17.5977C18.1749 20.9681 18.7283 20.7386 19.1365 20.3304C19.5446 19.9223 19.7742 19.3689 19.7748 18.7917V8.14687C19.7742 7.56966 19.5446 7.01627 19.1365 6.60811C18.7283 6.19996 18.1749 5.9704 17.5977 5.96979ZM7.47312 4.37938C7.47312 3.91725 7.65654 3.47401 7.9831 3.14702C8.30967 2.82003 8.75266 2.63602 9.21479 2.63542H12.7852C13.2473 2.63602 13.6903 2.82003 14.0169 3.14702C14.3434 3.47401 14.5269 3.91725 14.5269 4.37938V5.96979H7.47312V4.37938ZM18.1706 18.7917C18.1706 18.9436 18.1103 19.0893 18.0028 19.1968C17.8954 19.3042 17.7497 19.3646 17.5977 19.3646H4.40229C4.25034 19.3646 4.10462 19.3042 3.99717 19.1968C3.88973 19.0893 3.82937 18.9436 3.82937 18.7917V8.14687C3.82937 7.99493 3.88973 7.8492 3.99717 7.74176C4.10462 7.63432 4.25034 7.57396 4.40229 7.57396H17.5977C17.7497 7.57396 17.8954 7.63432 18.0028 7.74176C18.1103 7.8492 18.1706 7.99493 18.1706 8.14687V18.7917Z" fill="#FED700"/>
<path d="M7.21646 14.3963C7.72778 14.3963 8.14229 13.9817 8.14229 13.4704C8.14229 12.9591 7.72778 12.5446 7.21646 12.5446C6.70514 12.5446 6.29063 12.9591 6.29063 13.4704C6.29063 13.9817 6.70514 14.3963 7.21646 14.3963Z" fill="#FED700"/>
<path d="M11 14.3963C11.5113 14.3963 11.9258 13.9817 11.9258 13.4704C11.9258 12.9591 11.5113 12.5446 11 12.5446C10.4887 12.5446 10.0742 12.9591 10.0742 13.4704C10.0742 13.9817 10.4887 14.3963 11 14.3963Z" fill="#FED700"/>
<path d="M14.7835 14.3963C15.2949 14.3963 15.7094 13.9817 15.7094 13.4704C15.7094 12.9591 15.2949 12.5446 14.7835 12.5446C14.2722 12.5446 13.8577 12.9591 13.8577 13.4704C13.8577 13.9817 14.2722 14.3963 14.7835 14.3963Z" fill="#FED700"/>
</g>
<defs>
<clipPath id="clip0_0_3">
<rect width="22" height="22" fill="white"/>
</clipPath>
</defs>
</svg>
