<svg width="22" height="22" viewBox="0 0 22 22" fill="none" xmlns="http://www.w3.org/2000/svg">
<path d="M20.8946 15.0678L18.9696 13.1428C18.3957 12.5736 17.6212 12.2526 16.8129 12.2492C16.0047 12.2458 15.2275 12.5601 14.6488 13.1244C14.34 13.4349 13.9327 13.6281 13.4969 13.6708C13.0611 13.7134 12.624 13.6028 12.2609 13.358C10.8279 12.4016 9.59674 11.1729 8.63756 9.74167C8.39708 9.37453 8.29049 8.93572 8.33575 8.49918C8.38102 8.06263 8.57537 7.65503 8.88606 7.34504C9.44527 6.76585 9.75554 5.99078 9.75047 5.1857C9.7454 4.38062 9.42539 3.60952 8.85894 3.03742L6.93393 1.11242C6.35761 0.538073 5.57714 0.215576 4.7635 0.215576C3.94985 0.215576 3.16938 0.538073 2.59306 1.11242L2.03918 1.66717C-0.848315 4.55467 -0.632191 10.6254 5.37556 16.6297C8.99806 20.253 12.6442 21.7703 15.6008 21.7703C16.4711 21.7993 17.3385 21.6547 18.1525 21.3451C18.9664 21.0355 19.7105 20.567 20.3416 19.9669L20.8963 19.4122C21.4717 18.8356 21.7947 18.0542 21.7944 17.2396C21.7941 16.425 21.4704 15.6439 20.8946 15.0678ZM19.6573 18.1749L19.1026 18.7297C16.8276 21.0047 11.8059 20.589 6.61106 15.3933C1.41619 10.1975 0.999685 5.17242 3.27468 2.89742L3.82506 2.34354C4.07287 2.09663 4.40843 1.95799 4.75825 1.95799C5.10807 1.95799 5.44363 2.09663 5.69143 2.34354L7.61644 4.26854C7.85974 4.51307 7.99784 4.843 8.00128 5.18793C8.00471 5.53286 7.8732 5.86547 7.63481 6.11479C7.04355 6.70982 6.67473 7.48996 6.59015 8.32452C6.50556 9.15908 6.71034 9.99736 7.17018 10.6989C8.26004 12.3298 9.66152 13.7292 11.2941 14.8167C11.9935 15.2766 12.8296 15.4826 13.6627 15.4002C14.4957 15.3179 15.2753 14.9522 15.8712 14.3643C16.12 14.1231 16.4536 13.9891 16.8001 13.9913C17.1467 13.9934 17.4786 14.1314 17.7244 14.3757L19.6494 16.3007C19.7735 16.4229 19.8722 16.5685 19.9397 16.7291C20.0073 16.8896 20.0425 17.062 20.0432 17.2362C20.044 17.4103 20.0102 17.583 19.944 17.7441C19.8778 17.9052 19.7803 18.0516 19.6573 18.1749Z" fill="#FED700"/>
</svg>
