<svg width="18" height="17" viewBox="0 0 18 17" fill="none" xmlns="http://www.w3.org/2000/svg">
<path d="M9.87884 0.549489L11.8864 4.55161C12.0311 4.84275 12.3136 5.04535 12.6412 5.09307L17.138 5.7444C17.4024 5.78127 17.6409 5.91957 17.8006 6.1287C17.9603 6.33782 18.0282 6.60054 17.9892 6.85871C17.9581 7.0727 17.8567 7.271 17.7002 7.42372L14.4399 10.5626C14.2012 10.7845 14.0925 11.1089 14.1509 11.4258L14.9539 15.8439C15.0425 16.3724 14.6879 16.8749 14.1509 16.9817C13.9311 17.016 13.7058 16.9803 13.5084 16.8797L9.4934 14.8002C9.19606 14.6507 8.84319 14.6507 8.54585 14.8002L4.5308 16.8797C4.03624 17.1412 3.41837 16.9622 3.14962 16.4795C3.04779 16.2863 3.01125 16.0665 3.04523 15.8517L3.84824 11.4337C3.90657 11.1168 3.79794 10.7924 3.55916 10.5705L0.298941 7.43157C0.107676 7.24723 0 6.99567 0 6.73316C0 6.47064 0.107676 6.21908 0.298941 6.03475C0.453022 5.87886 0.657041 5.77917 0.877108 5.75224L5.37396 5.10092C5.70158 5.0532 5.98401 4.8506 6.12879 4.55946L8.06404 0.549489C8.23328 0.20744 8.59076 -0.00706751 8.97947 0.000177965H9.09992C9.43818 0.0421122 9.73153 0.248985 9.87884 0.549489Z" fill="#200E32"/>
</svg>
