<svg width="26" height="26" viewBox="0 0 26 26" fill="none" xmlns="http://www.w3.org/2000/svg">
<path d="M21.6668 9.68508C21.6555 9.58556 21.6338 9.48751 21.6018 9.39258V9.29508C21.5497 9.18369 21.4803 9.0813 21.396 8.99175L14.896 2.49175C14.8064 2.40748 14.7041 2.338 14.5927 2.28591H14.4952L14.1485 2.16675H7.5835C6.72154 2.16675 5.89489 2.50916 5.2854 3.11865C4.67591 3.72814 4.3335 4.55479 4.3335 5.41675V20.5834C4.3335 21.4454 4.67591 22.272 5.2854 22.8815C5.89489 23.491 6.72154 23.8334 7.5835 23.8334H18.4168C19.2788 23.8334 20.1054 23.491 20.7149 22.8815C21.3244 22.272 21.6668 21.4454 21.6668 20.5834V9.75008C21.6668 9.75008 21.6668 9.75008 21.6668 9.68508ZM15.1668 5.86091L17.9727 8.66675H15.1668V5.86091ZM19.5002 20.5834C19.5002 20.8707 19.386 21.1463 19.1829 21.3494C18.9797 21.5526 18.7041 21.6667 18.4168 21.6667H7.5835C7.29618 21.6667 7.02063 21.5526 6.81746 21.3494C6.6143 21.1463 6.50016 20.8707 6.50016 20.5834V5.41675C6.50016 5.12943 6.6143 4.85388 6.81746 4.65072C7.02063 4.44755 7.29618 4.33341 7.5835 4.33341H13.0002V9.75008C13.0002 10.0374 13.1143 10.3129 13.3175 10.5161C13.5206 10.7193 13.7962 10.8334 14.0835 10.8334H19.5002V20.5834Z" fill="#FED700"/>
</svg>
