<svg width="18" height="22" viewBox="0 0 18 22" fill="none" xmlns="http://www.w3.org/2000/svg">
<path d="M17.6668 7.68508C17.6555 7.58556 17.6338 7.48751 17.6018 7.39258V7.29508C17.5497 7.18369 17.4803 7.0813 17.396 6.99175L10.896 0.491748C10.8064 0.407482 10.7041 0.338002 10.5927 0.285915H10.4952L10.1485 0.166748H3.5835C2.72154 0.166748 1.89489 0.509158 1.2854 1.11865C0.675906 1.72814 0.333496 2.55479 0.333496 3.41675V18.5834C0.333496 19.4454 0.675906 20.272 1.2854 20.8815C1.89489 21.491 2.72154 21.8334 3.5835 21.8334H14.4168C15.2788 21.8334 16.1054 21.491 16.7149 20.8815C17.3244 20.272 17.6668 19.4454 17.6668 18.5834V7.75008C17.6668 7.75008 17.6668 7.75008 17.6668 7.68508ZM11.1668 3.86091L13.9727 6.66675H11.1668V3.86091ZM15.5002 18.5834C15.5002 18.8707 15.386 19.1463 15.1829 19.3494C14.9797 19.5526 14.7041 19.6667 14.4168 19.6667H3.5835C3.29618 19.6667 3.02063 19.5526 2.81746 19.3494C2.6143 19.1463 2.50016 18.8707 2.50016 18.5834V3.41675C2.50016 3.12943 2.6143 2.85388 2.81746 2.65072C3.02063 2.44755 3.29618 2.33341 3.5835 2.33341H9.00016V7.75008C9.00016 8.0374 9.1143 8.31295 9.31746 8.51611C9.52063 8.71928 9.79618 8.83342 10.0835 8.83342H15.5002V18.5834Z" fill="black"/>
</svg>
