<svg width="22" height="20" viewBox="0 0 22 20" fill="none" xmlns="http://www.w3.org/2000/svg">
<path d="M10.9701 11.188C13.9701 11.188 16.376 8.75238 16.376 5.78208C16.376 2.81178 13.9701 0.346436 10.9701 0.346436C7.9701 0.346436 5.56416 2.78208 5.56416 5.75238C5.56416 8.72267 7.9701 11.188 10.9701 11.188ZM10.9701 1.77218C13.1681 1.77218 14.9503 3.55436 14.9503 5.75238C14.9503 7.9504 13.1681 9.73257 10.9701 9.73257C8.77208 9.73257 6.98991 7.9801 6.98991 5.78208C6.98991 3.58406 8.77208 1.77218 10.9701 1.77218ZM1.58396 19.6534H20.4156C20.8018 19.6534 21.1285 19.3266 21.1285 18.9405C21.1285 15.1979 18.0691 12.1385 14.3265 12.1385H7.67307C3.9305 12.1385 0.871094 15.1979 0.871094 18.9405C0.871094 19.3266 1.19783 19.6534 1.58396 19.6534ZM7.67307 13.5643H14.3265C17.0592 13.5643 19.2869 15.5841 19.6434 18.2276H2.35624C2.71268 15.5841 4.9404 13.5643 7.67307 13.5643Z" fill="black"/>
</svg>
