<svg width="80" height="80" viewBox="0 0 80 80" fill="none" xmlns="http://www.w3.org/2000/svg">
<g clip-path="url(#clip0_128_315)">
<path d="M25.0001 51.25C24.7864 51.25 24.5716 51.1951 24.3763 51.084C23.8697 50.791 23.6329 50.1868 23.8062 49.6278L27.1484 38.9161C24.9501 36.7408 23.7501 34.0454 23.7501 31.25C23.7501 24.3579 31.0401 18.75 40.0001 18.75C48.9601 18.75 56.2501 24.3579 56.2501 31.25C56.2501 38.1421 48.9601 43.75 40.0001 43.75C37.6856 43.75 35.4713 43.3886 33.4046 42.677L25.9217 50.8448C25.6788 51.1096 25.3407 51.25 25.0001 51.25ZM40.0001 21.25C32.4183 21.25 26.2501 25.7361 26.2501 31.25C26.2501 33.562 27.3682 35.8166 29.3994 37.5976C29.7718 37.9235 29.9158 38.4375 29.7693 38.9099L27.8602 45.0269L32.1289 40.3675C32.4793 39.9854 33.0298 39.8585 33.5132 40.0514C35.4847 40.835 37.7283 41.25 40.0001 41.25C47.5818 41.25 53.7501 36.7639 53.7501 31.25C53.7501 25.7361 47.5818 21.25 40.0001 21.25Z" fill="white"/>
<path d="M40.625 33.7488H39.375C39.0299 33.7488 38.75 33.4689 38.75 33.1238V31.875C38.75 30.2869 39.7864 29.1602 40.542 28.3362C40.8056 28.0505 41.2036 27.6172 41.2561 27.4427C41.25 26.8507 41.0986 26.25 40 26.25C38.9014 26.25 38.75 26.8507 38.75 27.5H36.25C36.25 25.2862 37.6406 23.8333 39.8101 23.7535C41.0336 23.7085 42.2019 24.3598 42.914 25.3558C44.5609 27.6589 43.4444 28.8739 42.3828 30.0282C41.8261 30.6348 41.25 31.261 41.25 31.875V33.1238C41.25 33.469 40.9701 33.7488 40.625 33.7488ZM41.25 38.125V36.875C41.25 36.5299 40.9701 36.25 40.625 36.25H39.375C39.0299 36.25 38.75 36.5299 38.75 36.875V38.125C38.75 38.4702 39.0299 38.75 39.375 38.75H40.625C40.9701 38.75 41.25 38.4702 41.25 38.125Z" fill="white"/>
<path d="M66.25 57.5H13.75C13.0597 57.5 12.5 56.9403 12.5 56.25V13.75C12.5 13.0597 13.0597 12.5 13.75 12.5H66.25C66.9403 12.5 67.5 13.0597 67.5 13.75V56.25C67.5 56.9403 66.9403 57.5 66.25 57.5ZM15 55H65V15H15V55Z" fill="white"/>
<path d="M76.25 61.25H72.5V11.25C72.5 9.1875 70.8125 7.5 68.75 7.5H11.25C9.1875 7.5 7.5 9.1875 7.5 11.25V61.25H3.75C3.0625 61.25 2.5 61.8125 2.5 62.5V66.25C2.5 69.7 5.3 72.5 8.75 72.5H71.25C74.7 72.5 77.5 69.7 77.5 66.25V62.5C77.5 61.8125 76.9375 61.25 76.25 61.25ZM10 11.25C10 10.5625 10.5625 10 11.25 10H68.75C69.4375 10 70 10.5625 70 11.25V61.25H51.25C50.8375 61.25 50.4375 61.4625 50.2125 61.8125L48.9125 63.75L48.075 65H31.925L31.0875 63.75L29.7875 61.8125C29.5625 61.4625 29.1625 61.25 28.75 61.25H10V11.25ZM75 66.25C75 68.3125 73.3125 70 71.25 70H8.75C6.6875 70 5 68.3125 5 66.25V63.75H8.75H28.075L30.2125 66.9375C30.4375 67.2875 30.8375 67.5 31.25 67.5H48.75C49.1625 67.5 49.5625 67.2875 49.7875 66.9375L51.925 63.75H71.25H75V66.25Z" fill="white"/>
</g>
<defs>
<clipPath id="clip0_128_315">
<rect width="80" height="80" fill="white"/>
</clipPath>
</defs>
</svg>
