<svg width="11" height="11" viewBox="0 0 11 11" fill="none" xmlns="http://www.w3.org/2000/svg">
<path d="M10.6875 0.84375V8.15625C10.6875 8.39062 10.6055 8.58984 10.4414 8.75391C10.2773 8.91797 10.0781 9 9.84375 9C9.60938 9 9.41016 8.91797 9.24609 8.75391C9.08203 8.58984 9 8.39062 9 8.15625V2.88281L1.44141 10.4414C1.35938 10.5117 1.26855 10.5703 1.16895 10.6172C1.06934 10.6641 0.960937 10.6875 0.84375 10.6875C0.609375 10.6875 0.410156 10.6055 0.246094 10.4414C0.0820313 10.2773 0 10.0781 0 9.84375C0 9.72656 0.0205078 9.61523 0.0615234 9.50977C0.102539 9.4043 0.164063 9.31641 0.246094 9.24609L7.80469 1.6875H2.53125C2.29688 1.6875 2.09766 1.60547 1.93359 1.44141C1.76953 1.27734 1.6875 1.07812 1.6875 0.84375C1.6875 0.609375 1.76953 0.410156 1.93359 0.246094C2.09766 0.0820313 2.29688 0 2.53125 0H9.84375C10.0781 0 10.2773 0.0820313 10.4414 0.246094C10.6055 0.410156 10.6875 0.609375 10.6875 0.84375Z" fill="black"/>
</svg>
