<svg width="26" height="27" viewBox="0 0 26 27" fill="none" xmlns="http://www.w3.org/2000/svg">
<path d="M24.0664 18.0381L18.1914 15.3386C18.0664 15.2963 17.9362 15.2592 17.8008 15.2275C17.6654 15.1957 17.5247 15.1799 17.3789 15.1799C17.1706 15.1799 16.9727 15.2116 16.7852 15.2751C16.5977 15.3386 16.431 15.4233 16.2852 15.5292C16.2643 15.5292 16.2435 15.5345 16.2227 15.5451C16.2018 15.5557 16.1914 15.5715 16.1914 15.5927L13.1289 18.2286C12.1706 17.7628 11.2435 17.0747 10.3477 16.1643C9.45182 15.254 8.76432 14.3118 8.28516 13.3379L10.8789 10.1939C10.8997 10.1727 10.9154 10.1568 10.9258 10.1462C10.9362 10.1356 10.9518 10.1198 10.9727 10.0986C11.056 9.95038 11.1289 9.781 11.1914 9.59045C11.2539 9.39991 11.2852 9.19877 11.2852 8.98705C11.2852 8.83885 11.2695 8.69594 11.2383 8.55832C11.207 8.4207 11.1706 8.28838 11.1289 8.16135L8.47266 2.19086C8.32682 1.80976 8.08724 1.50806 7.75391 1.28576C7.42057 1.06345 7.04557 0.952297 6.62891 0.952297C6.58724 0.952297 6.54557 0.952297 6.50391 0.952297C6.46224 0.952297 6.42057 0.962883 6.37891 0.984055L6.41016 0.952297C5.53516 1.07933 4.72266 1.35456 3.97266 1.778C3.22266 2.18027 2.57682 2.69898 2.03516 3.33414C1.49349 3.9693 1.06641 4.68915 0.753906 5.49368C0.441406 6.29822 0.285156 7.15568 0.285156 8.06607C0.285156 10.5855 0.753906 12.9568 1.69141 15.1799C2.64974 17.4029 3.94141 19.3401 5.56641 20.9916C7.19141 22.643 9.09766 23.9556 11.2852 24.9295C13.4727 25.8823 15.806 26.3586 18.2852 26.3586C19.181 26.3586 20.0247 26.1999 20.8164 25.8823C21.6081 25.5647 22.3164 25.1307 22.9414 24.5802C23.5664 24.0297 24.0768 23.3734 24.4727 22.6112C24.8893 21.8702 25.1497 21.0551 25.2539 20.1658L25.2852 20.1341C25.2852 20.1129 25.2852 20.0812 25.2852 20.0388C25.2852 19.9965 25.2852 19.9541 25.2852 19.9118C25.2852 19.4883 25.1758 19.1072 24.957 18.7685C24.7383 18.4297 24.4518 18.1863 24.0977 18.0381H24.0664ZM18.2852 24.3261C16.0768 24.3261 14.0039 23.9027 12.0664 23.0558C10.1289 22.1878 8.4362 21.018 6.98828 19.5466C5.54036 18.0751 4.38932 16.3549 3.53516 14.3859C2.70182 12.4169 2.28516 10.3103 2.28516 8.06607C2.28516 8.06607 2.28516 8.05549 2.28516 8.03432C2.28516 6.74283 2.70182 5.62071 3.53516 4.66797C4.36849 3.71524 5.39974 3.15418 6.62891 2.9848L9.25391 8.9553L6.69141 12.0993C6.67057 12.1205 6.65495 12.1417 6.64453 12.1628C6.63411 12.184 6.62891 12.1946 6.62891 12.1946V12.2264C6.52474 12.3746 6.44141 12.5439 6.37891 12.7345C6.31641 12.925 6.28516 13.1156 6.28516 13.3061C6.28516 13.4755 6.30599 13.6343 6.34766 13.7825C6.38932 13.9307 6.44141 14.0789 6.50391 14.2271V14.1954C7.06641 15.381 7.87891 16.5137 8.94141 17.5935C10.0039 18.6732 11.1185 19.4989 12.2852 20.0706C12.4102 20.1341 12.5456 20.1817 12.6914 20.2135C12.8372 20.2452 12.9935 20.2611 13.1602 20.2611C13.3685 20.2611 13.5664 20.2294 13.7539 20.1658C13.9414 20.1023 14.1185 20.0176 14.2852 19.9118H14.2539C14.2747 19.9118 14.2956 19.9065 14.3164 19.8959C14.3372 19.8853 14.3477 19.8694 14.3477 19.8483L17.4102 17.2124L23.2852 19.88C23.1185 21.1503 22.5664 22.2089 21.6289 23.0558C20.6914 23.9027 19.5872 24.3261 18.3164 24.3261C18.2956 24.3261 18.2852 24.3261 18.2852 24.3261Z" fill="black"/>
</svg>
