<svg width="20" height="10" viewBox="0 0 20 10" fill="none" xmlns="http://www.w3.org/2000/svg">
<path d="M11.7617 2.49854L4.75 9.37354C4.67188 9.46468 4.57422 9.53304 4.45703 9.57861C4.33984 9.62419 4.22266 9.64697 4.10547 9.64697C3.97526 9.64697 3.85156 9.62419 3.73438 9.57861C3.61719 9.53304 3.51953 9.46468 3.44141 9.37354L0.433594 6.42432C0.355469 6.34619 0.290365 6.24854 0.238281 6.13135C0.186198 6.01416 0.160156 5.89046 0.160156 5.76025C0.160156 5.49984 0.251302 5.27848 0.433594 5.09619C0.615885 4.9139 0.83724 4.82275 1.09766 4.82275C1.22786 4.82275 1.34831 4.8488 1.45898 4.90088C1.56966 4.95296 1.67057 5.01807 1.76172 5.09619L4.10547 7.40088L10.4336 1.17041C10.5247 1.07926 10.6257 1.01091 10.7363 0.965332C10.847 0.919759 10.9674 0.896973 11.0977 0.896973C11.3581 0.896973 11.5794 0.988118 11.7617 1.17041C11.944 1.3527 12.0352 1.57406 12.0352 1.83447C12.0352 1.96468 12.0091 2.08838 11.957 2.20557C11.9049 2.32275 11.8398 2.42041 11.7617 2.49854ZM19.2617 1.17041C19.1836 1.09229 19.0859 1.02718 18.9688 0.975098C18.8516 0.923015 18.7279 0.896973 18.5977 0.896973C18.4674 0.896973 18.347 0.919759 18.2363 0.965332C18.1257 1.01091 18.0247 1.07926 17.9336 1.17041L11.6055 7.40088L10.9805 6.79541C10.9023 6.70426 10.8047 6.63591 10.6875 6.59033C10.5703 6.54476 10.4466 6.52197 10.3164 6.52197C10.069 6.52197 9.85091 6.61312 9.66211 6.79541C9.47331 6.9777 9.37891 7.19906 9.37891 7.45947C9.37891 7.58968 9.40495 7.71338 9.45703 7.83057C9.50911 7.94775 9.58073 8.04541 9.67188 8.12354L10.9414 9.37354C11.0195 9.46468 11.1172 9.53304 11.2344 9.57861C11.3516 9.62419 11.4753 9.64697 11.6055 9.64697C11.7227 9.64697 11.8398 9.62419 11.957 9.57861C12.0742 9.53304 12.1719 9.46468 12.25 9.37354L19.2617 2.49854C19.3398 2.42041 19.4049 2.32275 19.457 2.20557C19.5091 2.08838 19.5352 1.96468 19.5352 1.83447C19.5352 1.70426 19.5124 1.58382 19.4668 1.47314C19.4212 1.36247 19.3529 1.26156 19.2617 1.17041Z" fill="#066CCB"/>
</svg>
