<svg width="65" height="62" viewBox="0 0 65 62" fill="none" xmlns="http://www.w3.org/2000/svg">
<path d="M64.4976 37.0946C64.2976 35.2946 63.1976 33.6946 61.4976 32.7946C56.3976 29.7946 44.8976 23.1946 41.8976 21.4946L52.8976 1.79455C53.1976 1.29455 52.9976 0.694554 52.4976 0.394554C52.0976 0.194554 51.5976 0.194554 51.2976 0.594554L40.1976 11.3946L39.6976 8.39456C39.4976 7.19456 38.3976 6.49455 37.1976 6.69455C36.7976 6.79455 36.2976 6.99455 35.9976 7.29455C34.4976 8.79455 33.1976 10.3946 31.8976 12.0946C31.7976 11.9946 31.5976 11.8946 31.4976 11.8946L30.6976 7.29455C30.4976 6.09455 29.3976 5.39455 28.1976 5.59455C27.7976 5.69455 27.2976 5.89455 26.9976 6.19455C25.7976 7.39455 24.7976 8.69455 23.6976 9.99455C13.9976 8.69455 9.6976 11.8946 7.8976 14.7946C6.7976 16.5946 6.1976 18.7946 6.2976 20.8946C1.2976 23.9946 -0.402398 28.7946 1.7976 34.1946C1.7976 34.2946 1.8976 34.3946 1.8976 34.3946C0.497603 37.0946 0.0976025 40.1946 0.897603 43.1946C1.7976 46.1946 4.0976 48.5946 7.6976 50.4946C8.5976 50.7946 9.1976 51.5946 9.4976 52.4946C9.8976 54.1946 8.3976 56.0946 8.3976 56.0946C8.0976 56.4946 8.0976 57.1946 8.5976 57.4946C8.7976 57.6946 9.0976 57.7946 9.4976 57.6946C9.6976 57.5946 14.0976 56.0946 15.1976 52.7946C15.7976 50.9946 15.2976 49.0946 13.8976 47.0946C13.5976 46.6946 12.8976 46.5946 12.4976 46.8946C12.0976 47.1946 11.9976 47.7946 12.2976 48.2946C13.1976 49.3946 13.5976 50.7946 13.2976 52.1946C12.8976 53.0946 12.2976 53.9946 11.3976 54.4946C11.5976 53.6946 11.5976 52.8946 11.4976 52.0946C11.0976 50.5946 10.0976 49.3946 8.6976 48.7946C5.5976 47.1946 3.5976 45.0946 2.8976 42.6946C2.3976 40.6946 2.4976 38.6946 3.1976 36.7946C6.2976 41.6946 11.5976 44.5946 15.8976 44.5946C16.5976 44.5946 17.3976 44.4946 18.0976 44.2946C18.5976 44.1946 18.8976 43.5946 18.7976 43.0946C18.6976 42.6946 18.3976 42.4946 17.9976 42.3946C17.7976 42.3946 12.2976 41.1946 12.5976 35.5946C12.5976 34.9946 12.1976 34.5946 11.6976 34.4946C11.1976 34.4946 10.6976 34.8946 10.5976 35.3946C10.3976 37.9946 11.3976 40.4946 13.3976 42.1946C9.0976 40.7946 5.4976 37.5946 3.6976 33.3946C2.6976 30.8946 1.8976 26.4946 6.6976 23.0946C7.0976 24.9946 7.7976 26.6946 8.7976 28.2946C11.1976 32.1946 14.9976 34.5946 18.7976 34.5946C19.0976 34.5946 19.4976 34.5946 19.7976 34.4946C20.2976 34.3946 20.6976 33.8946 20.6976 33.3946C20.6976 33.1946 20.5976 32.9946 20.3976 32.7946C20.3976 32.7946 16.5976 28.6946 17.1976 24.8946C17.9976 19.8946 22.2976 14.1946 28.5976 7.49455H28.6976L28.7976 7.59455L30.6976 17.8946C30.7976 18.3946 31.2976 18.7946 31.8976 18.6946C32.3976 18.5946 32.7976 18.0946 32.6976 17.4946L32.0976 14.7946C33.1976 15.5946 33.9976 16.5946 34.5976 17.7946C34.7976 18.1946 35.0976 18.3946 35.4976 18.3946C35.6976 18.3946 35.9976 18.2946 36.1976 18.0946C36.4976 17.7946 47.8976 6.79455 47.8976 6.79455C47.8976 6.79455 40.0976 20.9946 39.8976 21.4946C39.5976 21.9946 39.7976 22.5946 40.2976 22.8946C40.2976 22.8946 41.5976 23.5946 43.4976 24.6946C43.2976 25.3946 43.1976 26.0946 43.3976 26.7946C43.4976 27.2946 43.9976 27.6946 44.5976 27.5946C45.0976 27.4946 45.4976 26.9946 45.3976 26.3946C45.3976 26.1946 45.2976 25.8946 45.3976 25.6946C49.4976 27.9946 55.0976 31.2946 58.8976 33.5946C58.7976 33.7946 58.6976 33.9946 58.6976 34.1946C58.6976 34.7946 59.0976 35.1946 59.6976 35.1946C60.0976 35.1946 60.4976 34.8946 60.5976 34.5946C61.6976 35.0946 62.3976 36.0946 62.5976 37.2946C62.5976 38.4946 62.0976 39.5946 61.0976 40.2946C58.1976 42.7946 55.2976 43.8946 52.4976 43.4946C49.7976 42.9946 47.2976 41.4946 45.5976 39.3946C45.2976 38.9946 44.5976 38.8946 44.1976 39.1946C43.7976 39.4946 43.6976 40.0946 43.9976 40.5946C45.5976 42.5946 47.5976 44.0946 49.9976 44.9946C49.2976 45.8946 48.0976 46.1946 47.0976 45.6946L38.5976 41.5946L38.1976 41.6946C35.3976 42.5946 33.1976 42.3946 31.6976 41.1946C28.9976 38.9946 29.3976 33.7946 29.3976 33.6946C29.3976 33.0946 28.9976 32.6946 28.4976 32.5946C27.8976 32.5946 27.4976 32.9946 27.3976 33.4946C27.3976 33.7946 26.8976 39.7946 30.3976 42.6946C31.7976 43.7946 33.4976 44.2946 35.1976 44.1946V60.4946C35.1976 61.0946 35.5976 61.4946 36.1976 61.4946C36.7976 61.4946 37.1976 61.0946 37.1976 60.4946V43.7946C37.5976 43.6946 37.9976 43.5946 38.2976 43.4946C38.2976 43.4946 42.6976 45.5946 46.0976 47.2946C49.4976 48.9946 52.0976 45.3946 52.1976 45.3946C52.5976 45.4946 53.0976 45.4946 53.4976 45.4946C56.4976 45.4946 59.4976 44.1946 62.3976 41.6946C63.6976 40.6946 64.5976 38.8946 64.4976 37.0946ZM15.3976 23.6946C15.2976 24.1946 15.1976 24.6946 15.1976 25.2946C15.0976 26.0946 15.1976 26.9946 15.3976 27.7946C15.7976 29.4946 16.5976 31.0946 17.5976 32.5946C14.4976 32.0946 11.8976 29.6946 10.4976 27.3946C8.0976 23.3946 7.7976 18.7946 9.6976 15.7946C11.6976 12.5946 15.9976 11.2946 21.9976 11.7946C20.0976 14.0946 16.2976 18.9946 15.3976 23.6946ZM35.7976 15.7946C35.1976 14.8946 34.3976 14.0946 33.5976 13.3946C34.7976 11.7946 36.0976 10.1946 37.4976 8.69455H37.5976C37.5976 8.69455 37.6976 8.69455 37.6976 8.79455L38.4976 13.0946L35.7976 15.7946Z" fill="#066CCB"/>
<path d="M35.7986 26.1946C36.8986 25.9946 37.9986 26.6946 38.2986 27.7946C38.3986 28.2946 38.8986 28.6946 39.4986 28.5946C39.9986 28.4946 40.3986 27.9946 40.2986 27.3946C39.7986 25.1946 37.6986 23.7946 35.3986 24.1946C33.1986 24.6946 31.7986 26.7946 32.1986 29.0946C32.2986 29.5946 32.7986 29.9946 33.3986 29.8946C33.8986 29.7946 34.2986 29.2946 34.1986 28.6946C34.0986 28.1946 34.1986 27.5946 34.4986 27.0946C34.7986 26.5946 35.1986 26.2946 35.7986 26.1946Z" fill="#066CCB"/>
<path d="M53.8961 37.2944C54.4484 37.2944 54.8961 36.8467 54.8961 36.2944C54.8961 35.7421 54.4484 35.2944 53.8961 35.2944C53.3438 35.2944 52.8961 35.7421 52.8961 36.2944C52.8961 36.8467 53.3438 37.2944 53.8961 37.2944Z" fill="#066CCB"/>
</svg>
