<svg width="31" height="30" viewBox="0 0 31 30" fill="none" xmlns="http://www.w3.org/2000/svg">
<path d="M15.8213 23.7995L22.712 28.1745C23.6006 28.7351 24.6944 27.9011 24.4346 26.8757L22.4385 19.0281C22.3846 18.8105 22.3931 18.5822 22.4633 18.3693C22.5334 18.1565 22.6623 17.9678 22.835 17.8249L29.0147 12.6706C29.8213 12.0007 29.4112 10.6472 28.3585 10.5788L20.2921 10.0593C20.072 10.0465 19.8604 9.96994 19.6831 9.83884C19.5059 9.70769 19.3707 9.52779 19.294 9.32108L16.2862 1.74686C16.2066 1.52798 16.0615 1.3389 15.8707 1.20528C15.68 1.07167 15.4527 1 15.2198 1C14.9869 1 14.7596 1.07167 14.5688 1.20528C14.378 1.3389 14.233 1.52798 14.1534 1.74686L11.1456 9.32108C11.0689 9.52779 10.9337 9.70769 10.7565 9.83884C10.5792 9.96994 10.3676 10.0465 10.1475 10.0593L2.08114 10.5788C1.0284 10.6472 0.618251 12.0007 1.42489 12.6706L7.60457 17.8249C7.7773 17.9678 7.90616 18.1565 7.9763 18.3693C8.04645 18.5822 8.05503 18.8105 8.00106 19.0281L6.15535 26.3015C5.8409 27.532 7.1534 28.53 8.20613 27.8601L14.6182 23.7995C14.798 23.6852 15.0067 23.6245 15.2198 23.6245C15.4329 23.6245 15.6415 23.6852 15.8213 23.7995Z" stroke="url(#paint0_linear_907_5956)" stroke-width="1.5" stroke-linecap="round" stroke-linejoin="round"/>
<defs>
<linearGradient id="paint0_linear_907_5956" x1="9.89652" y1="14.6774" x2="23.0859" y2="22.4696" gradientUnits="userSpaceOnUse">
<stop stop-color="#D44C98"/>
<stop offset="1" stop-color="#FF5A6B"/>
</linearGradient>
</defs>
</svg>
