<svg width="29" height="28" viewBox="0 0 29 28" fill="none" xmlns="http://www.w3.org/2000/svg">
<path d="M14.5082 8.11758C11.527 8.11758 9.12227 10.5223 9.12227 13.5035C9.12227 16.4848 11.527 18.8895 14.5082 18.8895C17.4895 18.8895 19.8941 16.4848 19.8941 13.5035C19.8941 10.5223 17.4895 8.11758 14.5082 8.11758ZM14.5082 17.0051C12.5816 17.0051 11.0066 15.4348 11.0066 13.5035C11.0066 11.5723 12.577 10.002 14.5082 10.002C16.4395 10.002 18.0098 11.5723 18.0098 13.5035C18.0098 15.4348 16.4348 17.0051 14.5082 17.0051ZM21.3707 7.89727C21.3707 8.5957 20.8082 9.15352 20.1145 9.15352C19.416 9.15352 18.8582 8.59102 18.8582 7.89727C18.8582 7.20352 19.4207 6.64102 20.1145 6.64102C20.8082 6.64102 21.3707 7.20352 21.3707 7.89727ZM24.9379 9.17227C24.8582 7.48945 24.4738 5.99883 23.241 4.7707C22.0129 3.54258 20.5223 3.1582 18.8395 3.07383C17.1051 2.97539 11.9066 2.97539 10.1723 3.07383C8.49414 3.15352 7.00352 3.53789 5.7707 4.76602C4.53789 5.99414 4.1582 7.48477 4.07383 9.16758C3.97539 10.902 3.97539 16.1004 4.07383 17.8348C4.15352 19.5176 4.53789 21.0082 5.7707 22.2363C7.00352 23.4645 8.48945 23.8488 10.1723 23.9332C11.9066 24.0316 17.1051 24.0316 18.8395 23.9332C20.5223 23.8535 22.0129 23.4691 23.241 22.2363C24.4691 21.0082 24.8535 19.5176 24.9379 17.8348C25.0363 16.1004 25.0363 10.9066 24.9379 9.17227ZM22.6973 19.6957C22.3316 20.6145 21.6238 21.3223 20.7004 21.6926C19.3176 22.241 16.0363 22.1145 14.5082 22.1145C12.9801 22.1145 9.69414 22.2363 8.31602 21.6926C7.39727 21.327 6.68945 20.6191 6.31914 19.6957C5.7707 18.3129 5.89727 15.0316 5.89727 13.5035C5.89727 11.9754 5.77539 8.68945 6.31914 7.31133C6.68477 6.39258 7.39258 5.68477 8.31602 5.31445C9.69883 4.76602 12.9801 4.89258 14.5082 4.89258C16.0363 4.89258 19.3223 4.7707 20.7004 5.31445C21.6191 5.68008 22.327 6.38789 22.6973 7.31133C23.2457 8.69414 23.1191 11.9754 23.1191 13.5035C23.1191 15.0316 23.2457 18.3176 22.6973 19.6957Z" fill="black"/>
</svg>
