<svg width="29" height="28" viewBox="0 0 29 28" fill="none" xmlns="http://www.w3.org/2000/svg">
<path d="M9.25295 24H5.31384V11.3147H9.25295V24ZM7.28127 9.58428C6.02167 9.58428 5 8.54095 5 7.28132C5 6.67628 5.24035 6.09602 5.66817 5.66818C6.09599 5.24035 6.67624 5 7.28127 5C7.8863 5 8.46655 5.24035 8.89438 5.66818C9.3222 6.09602 9.56254 6.67628 9.56254 7.28132C9.56254 8.54095 8.54045 9.58428 7.28127 9.58428ZM23.9958 24H20.0651V17.8249C20.0651 16.3532 20.0354 14.4659 18.0171 14.4659C15.9691 14.4659 15.6553 16.0648 15.6553 17.7188V24H11.7204V11.3147H15.4983V13.0451H15.5535C16.0794 12.0484 17.364 10.9966 19.2805 10.9966C23.2671 10.9966 24 13.6219 24 17.0318V24H23.9958Z" fill="black"/>
</svg>
