<svg width="27" height="25" viewBox="0 0 27 25" fill="none" xmlns="http://www.w3.org/2000/svg">
<path d="M26.4727 2.40134C26.3893 2.33783 26.2956 2.2849 26.1914 2.24255C26.0872 2.20021 25.9727 2.17904 25.8477 2.17904C25.806 2.17904 25.7643 2.18433 25.7227 2.19492C25.681 2.2055 25.6393 2.21079 25.5977 2.21079L17.9727 4.14803L10.2852 0.241803C10.2227 0.220631 10.1549 0.199459 10.082 0.178287C10.0091 0.157115 9.93099 0.146529 9.84766 0.146529C9.80599 0.146529 9.76432 0.151822 9.72266 0.162408C9.68099 0.172994 9.63932 0.178287 9.59766 0.178287L1.59766 2.21079C1.38932 2.27431 1.21224 2.39605 1.06641 2.57601C0.920573 2.75597 0.847656 2.9624 0.847656 3.19529V21.4879C0.847656 21.7631 0.946615 22.0013 1.14453 22.2024C1.34245 22.4035 1.57682 22.5041 1.84766 22.5041C1.88932 22.5041 1.93099 22.4988 1.97266 22.4882C2.01432 22.4776 2.05599 22.4724 2.09766 22.4724L9.72266 20.5351L17.4102 24.4413C17.4727 24.4625 17.5404 24.4837 17.6133 24.5049C17.6862 24.526 17.7643 24.5366 17.8477 24.5366C17.8893 24.5366 17.931 24.5313 17.9727 24.5207C18.0143 24.5102 18.056 24.5049 18.0977 24.5049L26.0977 22.4724C26.306 22.4088 26.4831 22.2871 26.6289 22.1071C26.7747 21.9272 26.8477 21.7208 26.8477 21.4879V3.19529C26.8477 3.02592 26.8112 2.87242 26.7383 2.7348C26.6654 2.59718 26.5768 2.48603 26.4727 2.40134ZM10.8477 2.8142L16.8477 5.86296V21.869L10.8477 18.8202V2.8142ZM2.84766 3.98924L8.84766 2.46486V18.6614L2.84766 20.1858V3.98924ZM24.8477 20.6939L18.8477 22.2183V6.02175L24.8477 4.49737V20.6939Z" fill="black"/>
</svg>
