<svg width="27" height="26" viewBox="0 0 27 26" fill="none" xmlns="http://www.w3.org/2000/svg">
<path d="M26.4102 9.15117L14.4102 1.02114C14.3268 0.978795 14.2383 0.941744 14.1445 0.909986C14.0508 0.878228 13.9518 0.86235 13.8477 0.86235C13.7435 0.86235 13.6445 0.878228 13.5508 0.909986C13.457 0.941744 13.3685 0.978795 13.2852 1.02114L1.28516 9.15117C1.16016 9.25703 1.05599 9.38406 0.972656 9.53226C0.889323 9.68047 0.847656 9.83926 0.847656 10.0086V23.2199C0.847656 23.7916 1.04036 24.2732 1.42578 24.6649C1.8112 25.0566 2.28516 25.2524 2.84766 25.2524H24.8477C25.4102 25.2524 25.8841 25.0566 26.2695 24.6649C26.6549 24.2732 26.8477 23.7916 26.8477 23.2199V10.0086C26.8477 9.83926 26.806 9.68047 26.7227 9.53226C26.6393 9.38406 26.5352 9.25703 26.4102 9.15117ZM9.94141 17.1224L2.84766 22.2037V11.9776L9.94141 17.1224ZM11.9727 18.1387H15.7227L22.7852 23.2199H4.91016L11.9727 18.1387ZM17.7539 17.1224L24.8477 11.9776V22.2037L17.7539 17.1224ZM13.8477 3.0854L24.0977 10.0404L15.7227 16.1062H11.9727L3.59766 10.0404L13.8477 3.0854Z" fill="black"/>
</svg>
