<svg width="29" height="28" viewBox="0 0 29 28" fill="none" xmlns="http://www.w3.org/2000/svg">
<path d="M24.533 8.85784C24.5482 9.07103 24.5482 9.28427 24.5482 9.49745C24.5482 16 19.599 23.4924 10.5533 23.4924C7.76648 23.4924 5.17767 22.6852 3 21.2843C3.39595 21.3299 3.77662 21.3452 4.18781 21.3452C6.48727 21.3452 8.60405 20.5685 10.2944 19.2437C8.13197 19.198 6.31978 17.7817 5.69541 15.8325C6 15.8781 6.30455 15.9086 6.62437 15.9086C7.06598 15.9086 7.50764 15.8477 7.91878 15.7411C5.66498 15.2842 3.97458 13.3045 3.97458 10.9137V10.8528C4.62937 11.2183 5.39086 11.4467 6.19791 11.4771C4.87303 10.5939 4.00505 9.08627 4.00505 7.38067C4.00505 6.46698 4.24866 5.62942 4.67508 4.89845C7.09641 7.88322 10.736 9.83242 14.8172 10.0457C14.7411 9.68017 14.6954 9.2995 14.6954 8.91878C14.6954 6.20809 16.8883 4 19.6141 4C21.0304 4 22.3095 4.59391 23.208 5.5533C24.3197 5.34011 25.3857 4.92892 26.3299 4.36548C25.9643 5.50764 25.1877 6.46703 24.1674 7.07613C25.1573 6.96958 26.1167 6.69541 26.9999 6.31473C26.33 7.28931 25.4924 8.1573 24.533 8.85784Z" fill="black"/>
</svg>
