<svg width="17" height="16" viewBox="0 0 17 16" fill="none" xmlns="http://www.w3.org/2000/svg">
<path d="M3.53153 1.76665C3.5313 2.23496 3.34504 2.684 3.01373 3.01498C2.68242 3.34596 2.23319 3.53177 1.76488 3.53153C1.29657 3.5313 0.847536 3.34504 0.516557 3.01373C0.185577 2.68242 -0.000233934 2.23319 2.2104e-07 1.76488C0.000234376 1.29657 0.186494 0.847536 0.517805 0.516557C0.849116 0.185577 1.29834 -0.000233934 1.76665 2.2104e-07C2.23496 0.000234376 2.684 0.186494 3.01498 0.517805C3.34596 0.849116 3.53177 1.29834 3.53153 1.76665ZM3.5845 4.83908H0.0529731V15.8928H3.5845V4.83908ZM9.16432 4.83908H5.65045V15.8928H9.12901V10.0922C9.12901 6.86088 13.3404 6.5607 13.3404 10.0922V15.8928H16.8277V8.89151C16.8277 3.44413 10.5946 3.64719 9.12901 6.32232L9.16432 4.83908Z" fill="#0B4DA1"/>
</svg>
