<svg width="336" height="63" viewBox="0 0 336 63" fill="none" xmlns="http://www.w3.org/2000/svg">
<path d="M74.428 18.484C75.604 17.956 76.516 17.752 77.164 17.872C77.836 17.968 78.304 18.304 78.568 18.88C78.856 19.432 78.988 20.164 78.964 21.076C78.94 21.988 78.832 22.984 78.64 24.064C78.448 25.12 78.22 26.212 77.956 27.34C77.692 28.468 77.452 29.524 77.236 30.508C77.02 31.492 76.876 32.356 76.804 33.1C76.732 33.844 76.804 34.372 77.02 34.684C77.116 34.684 77.428 34.732 77.956 34.828C78.484 34.9 79.12 35.02 79.864 35.188C80.632 35.332 81.46 35.524 82.348 35.764C83.236 36.004 84.076 36.292 84.868 36.628C85.684 36.94 86.404 37.3 87.028 37.708C87.652 38.116 88.084 38.56 88.324 39.04C88.564 39.52 88.552 40.048 88.288 40.624C88.048 41.176 87.448 41.776 86.488 42.424C86.056 42.712 85.396 42.892 84.508 42.964C83.62 43.012 82.624 42.976 81.52 42.856C80.416 42.712 79.276 42.496 78.1 42.208C76.924 41.92 75.832 41.572 74.824 41.164C73.816 40.732 72.964 40.264 72.268 39.76C71.572 39.256 71.164 38.728 71.044 38.176C70.588 37.312 70.42 36.316 70.54 35.188C70.66 34.036 70.876 32.848 71.188 31.624C71.524 30.376 71.86 29.14 72.196 27.916C72.532 26.668 72.7 25.504 72.7 24.424C72.7 23.776 72.664 23.14 72.592 22.516C72.544 21.892 72.544 21.316 72.592 20.788C72.64 20.26 72.796 19.792 73.06 19.384C73.324 18.976 73.78 18.676 74.428 18.484ZM102.625 29.896C102.961 30.592 103.417 31.144 103.993 31.552C104.569 31.96 105.025 32.332 105.361 32.668C105.865 32.5 106.297 32.2 106.657 31.768C107.041 31.312 107.401 30.868 107.737 30.436C108.097 30.004 108.457 29.656 108.817 29.392C109.201 29.104 109.657 29.044 110.185 29.212C110.977 29.332 111.493 29.572 111.733 29.932C111.973 30.268 112.045 30.676 111.949 31.156C111.853 31.612 111.637 32.116 111.301 32.668C110.965 33.196 110.605 33.7 110.221 34.18C109.861 34.636 109.537 35.044 109.249 35.404C108.961 35.74 108.817 35.968 108.817 36.088C108.817 36.328 108.961 36.664 109.249 37.096C109.537 37.504 109.849 37.96 110.185 38.464C110.521 38.944 110.833 39.436 111.121 39.94C111.409 40.444 111.553 40.888 111.553 41.272C111.553 41.656 111.349 41.956 110.941 42.172C110.557 42.364 109.849 42.4 108.817 42.28C108.625 42.112 108.433 41.908 108.241 41.668C108.073 41.428 107.881 41.2 107.665 40.984C107.449 40.768 107.209 40.588 106.945 40.444C106.681 40.3 106.381 40.228 106.045 40.228C105.541 40.228 104.905 40.432 104.137 40.84C103.369 41.248 102.517 41.644 101.581 42.028C100.645 42.412 99.625 42.676 98.521 42.82C97.417 42.964 96.265 42.784 95.065 42.28C94.201 41.776 93.397 41.08 92.653 40.192C91.909 39.304 91.297 38.344 90.817 37.312C90.361 36.28 90.061 35.236 89.917 34.18C89.797 33.124 89.905 32.164 90.241 31.3C90.361 31.108 90.433 30.88 90.457 30.616C90.505 30.328 90.541 30.016 90.565 29.68C90.013 28.72 89.653 27.616 89.485 26.368C89.317 25.096 89.365 23.884 89.629 22.732C89.917 21.58 90.445 20.584 91.213 19.744C91.981 18.88 93.025 18.376 94.345 18.232C95.833 18.016 97.249 18.004 98.593 18.196C99.937 18.388 101.125 18.748 102.157 19.276C103.189 19.804 104.029 20.464 104.677 21.256C105.325 22.024 105.709 22.876 105.829 23.812C105.949 24.748 105.757 25.744 105.253 26.8C104.749 27.832 103.873 28.864 102.625 29.896ZM95.749 34.036C95.629 34.732 95.677 35.296 95.893 35.728C96.133 36.16 96.457 36.496 96.865 36.736C97.297 36.952 97.777 37.084 98.305 37.132C98.857 37.18 99.373 37.168 99.853 37.096C100.357 37 100.801 36.868 101.185 36.7C101.569 36.508 101.821 36.304 101.941 36.088C101.581 36.088 101.365 36.124 101.293 36.196C101.245 36.244 101.221 36.436 101.221 36.772C101.557 36.436 101.653 36.04 101.509 35.584C101.389 35.104 101.125 34.648 100.717 34.216C100.309 33.784 99.817 33.412 99.241 33.1C98.689 32.764 98.149 32.548 97.621 32.452C97.117 32.356 96.673 32.428 96.289 32.668C95.929 32.884 95.749 33.34 95.749 34.036ZM95.065 24.424C94.801 24.928 94.741 25.3 94.885 25.54C95.029 25.78 95.281 25.924 95.641 25.972C96.025 25.996 96.469 25.948 96.973 25.828C97.477 25.708 97.945 25.552 98.377 25.36C98.833 25.168 99.217 24.964 99.529 24.748C99.841 24.508 99.985 24.304 99.961 24.136C99.961 23.944 99.745 23.8 99.313 23.704C98.881 23.608 98.149 23.608 97.117 23.704C96.925 23.704 96.709 23.74 96.469 23.812C96.253 23.884 96.037 23.968 95.821 24.064C95.557 24.16 95.305 24.28 95.065 24.424ZM117.354 18.484C118.53 17.956 119.442 17.752 120.09 17.872C120.762 17.968 121.23 18.304 121.494 18.88C121.782 19.432 121.914 20.164 121.89 21.076C121.866 21.988 121.758 22.984 121.566 24.064C121.374 25.12 121.146 26.212 120.882 27.34C120.618 28.468 120.378 29.524 120.162 30.508C119.946 31.492 119.802 32.356 119.73 33.1C119.658 33.844 119.73 34.372 119.946 34.684C120.042 34.684 120.354 34.732 120.882 34.828C121.41 34.9 122.046 35.02 122.79 35.188C123.558 35.332 124.386 35.524 125.274 35.764C126.162 36.004 127.002 36.292 127.794 36.628C128.61 36.94 129.33 37.3 129.954 37.708C130.578 38.116 131.01 38.56 131.25 39.04C131.49 39.52 131.478 40.048 131.214 40.624C130.974 41.176 130.374 41.776 129.414 42.424C128.982 42.712 128.322 42.892 127.434 42.964C126.546 43.012 125.55 42.976 124.446 42.856C123.342 42.712 122.202 42.496 121.026 42.208C119.85 41.92 118.758 41.572 117.75 41.164C116.742 40.732 115.89 40.264 115.194 39.76C114.498 39.256 114.09 38.728 113.97 38.176C113.514 37.312 113.346 36.316 113.466 35.188C113.586 34.036 113.802 32.848 114.114 31.624C114.45 30.376 114.786 29.14 115.122 27.916C115.458 26.668 115.626 25.504 115.626 24.424C115.626 23.776 115.59 23.14 115.518 22.516C115.47 21.892 115.47 21.316 115.518 20.788C115.566 20.26 115.722 19.792 115.986 19.384C116.25 18.976 116.706 18.676 117.354 18.484Z" fill="#3D4250"/>
<path d="M153.471 18.412C154.575 18.052 155.739 17.872 156.963 17.872C158.211 17.848 159.435 17.98 160.635 18.268C161.835 18.532 162.963 18.928 164.019 19.456C165.099 19.984 166.023 20.62 166.791 21.364C167.583 22.084 168.183 22.888 168.591 23.776C169.023 24.664 169.179 25.6 169.059 26.584C168.867 27.16 168.447 27.796 167.799 28.492C167.151 29.188 166.467 29.86 165.747 30.508C165.051 31.156 164.427 31.744 163.875 32.272C163.323 32.776 163.047 33.112 163.047 33.28C163.047 33.664 163.251 34.012 163.659 34.324C164.067 34.612 164.583 34.9 165.207 35.188C165.831 35.476 166.515 35.776 167.259 36.088C168.003 36.376 168.699 36.712 169.347 37.096C170.019 37.456 170.595 37.876 171.075 38.356C171.555 38.812 171.855 39.352 171.975 39.976C172.215 41.224 172.251 42.148 172.083 42.748C171.915 43.324 171.615 43.672 171.183 43.792C170.751 43.912 170.211 43.852 169.563 43.612C168.915 43.372 168.243 43.048 167.547 42.64C166.851 42.208 166.167 41.752 165.495 41.272C164.847 40.768 164.271 40.336 163.767 39.976C163.527 39.856 163.191 39.652 162.759 39.364C162.351 39.052 161.895 38.716 161.391 38.356C160.887 37.972 160.371 37.588 159.843 37.204C159.315 36.82 158.811 36.484 158.331 36.196C157.875 35.908 157.467 35.692 157.107 35.548C156.771 35.404 156.543 35.392 156.423 35.512C156.039 35.632 155.799 35.908 155.703 36.34C155.631 36.748 155.607 37.228 155.631 37.78C155.655 38.332 155.691 38.92 155.739 39.544C155.811 40.144 155.799 40.708 155.703 41.236C155.607 41.74 155.391 42.16 155.055 42.496C154.743 42.832 154.215 43 153.471 43C152.343 42.76 151.539 42.22 151.059 41.38C150.579 40.516 150.291 39.484 150.195 38.284C150.099 37.084 150.135 35.764 150.303 34.324C150.495 32.884 150.687 31.468 150.879 30.076C151.095 28.66 151.251 27.328 151.347 26.08C151.467 24.808 151.395 23.728 151.131 22.84C151.131 22.288 151.107 21.784 151.059 21.328C151.011 20.872 151.035 20.464 151.131 20.104C151.251 19.72 151.479 19.396 151.815 19.132C152.151 18.844 152.703 18.604 153.471 18.412ZM156.423 29.572C156.663 29.836 156.987 29.944 157.395 29.896C157.827 29.824 158.283 29.668 158.763 29.428C159.267 29.164 159.771 28.84 160.275 28.456C160.779 28.072 161.235 27.676 161.643 27.268C162.051 26.836 162.387 26.428 162.651 26.044C162.915 25.66 163.047 25.336 163.047 25.072C162.567 24.448 161.991 24.028 161.319 23.812C160.671 23.572 160.023 23.5 159.375 23.596C158.727 23.668 158.115 23.884 157.539 24.244C156.963 24.604 156.507 25.06 156.171 25.612C155.859 26.14 155.691 26.752 155.667 27.448C155.667 28.12 155.919 28.828 156.423 29.572ZM181.218 36.052C181.218 36.604 181.362 37.012 181.65 37.276C181.938 37.516 182.31 37.672 182.766 37.744C183.246 37.816 183.774 37.828 184.35 37.78C184.95 37.732 185.55 37.684 186.15 37.636C186.774 37.564 187.362 37.528 187.914 37.528C188.49 37.504 188.982 37.564 189.39 37.708C189.39 38.116 189.342 38.524 189.246 38.932C189.15 39.316 189.042 39.688 188.922 40.048C188.826 40.384 188.73 40.708 188.634 41.02C188.562 41.308 188.526 41.548 188.526 41.74C187.974 42.148 187.314 42.46 186.546 42.676C185.778 42.868 184.95 42.976 184.062 43C183.198 43 182.31 42.928 181.398 42.784C180.51 42.64 179.67 42.448 178.878 42.208C178.11 41.944 177.414 41.632 176.79 41.272C176.19 40.912 175.758 40.528 175.494 40.12C174.894 39.304 174.438 38.284 174.126 37.06C173.838 35.812 173.694 34.552 173.694 33.28C173.694 32.008 173.838 30.82 174.126 29.716C174.438 28.588 174.894 27.712 175.494 27.088C176.454 26.272 177.534 25.684 178.734 25.324C179.958 24.94 181.182 24.76 182.406 24.784C183.654 24.784 184.854 24.976 186.006 25.36C187.158 25.744 188.142 26.284 188.958 26.98C189.798 27.676 190.41 28.516 190.794 29.5C191.202 30.484 191.274 31.588 191.01 32.812C191.01 33.628 190.686 34.252 190.038 34.684C189.414 35.116 188.61 35.44 187.626 35.656C186.666 35.848 185.61 35.968 184.458 36.016C183.306 36.04 182.226 36.052 181.218 36.052ZM179.598 30.328H186.114C186.114 29.512 185.814 28.912 185.214 28.528C184.614 28.12 183.93 27.916 183.162 27.916C182.394 27.916 181.65 28.12 180.93 28.528C180.234 28.912 179.79 29.512 179.598 30.328ZM200.098 30.112C200.77 30.256 201.43 30.352 202.078 30.4C202.75 30.424 203.398 30.496 204.022 30.616C204.67 30.712 205.27 30.892 205.822 31.156C206.398 31.42 206.914 31.84 207.37 32.416C208.21 33.496 208.714 34.528 208.882 35.512C209.05 36.472 208.966 37.372 208.63 38.212C208.318 39.028 207.79 39.76 207.046 40.408C206.326 41.056 205.486 41.596 204.526 42.028C203.59 42.436 202.582 42.736 201.502 42.928C200.422 43.096 199.366 43.12 198.334 43C197.302 42.904 196.342 42.64 195.454 42.208C194.566 41.752 193.846 41.128 193.294 40.336C192.526 39.4 192.166 38.74 192.214 38.356C192.286 37.948 192.598 37.708 193.15 37.636C193.702 37.564 194.422 37.6 195.31 37.744C196.222 37.888 197.158 38.032 198.118 38.176C199.078 38.32 199.978 38.416 200.818 38.464C201.682 38.488 202.33 38.356 202.762 38.068C203.962 37.612 204.682 37.24 204.922 36.952C205.186 36.64 205.126 36.4 204.742 36.232C204.382 36.064 203.794 35.932 202.978 35.836C202.162 35.74 201.298 35.668 200.386 35.62C199.498 35.572 198.646 35.524 197.83 35.476C197.014 35.404 196.414 35.32 196.03 35.224C195.454 35.08 194.95 34.78 194.518 34.324C194.11 33.868 193.798 33.352 193.582 32.776C193.39 32.2 193.33 31.612 193.402 31.012C193.498 30.412 193.762 29.896 194.194 29.464C194.89 28.84 195.862 28.168 197.11 27.448C198.358 26.728 199.666 26.056 201.034 25.432C201.706 25.264 202.342 25.132 202.942 25.036C203.446 24.964 203.95 24.952 204.454 25C204.958 25.024 205.318 25.168 205.534 25.432C205.75 25.576 205.87 25.876 205.894 26.332C205.918 26.764 205.882 27.22 205.786 27.7C205.714 28.156 205.606 28.576 205.462 28.96C205.318 29.32 205.198 29.5 205.102 29.5C204.646 29.788 204.214 29.932 203.806 29.932C203.398 29.908 202.99 29.86 202.582 29.788C202.198 29.716 201.802 29.68 201.394 29.68C200.986 29.68 200.554 29.824 200.098 30.112ZM214.94 25.324C215.996 24.868 217.052 24.724 218.108 24.892C219.188 25.036 220.196 25.42 221.132 26.044C222.092 26.644 222.944 27.424 223.688 28.384C224.456 29.32 225.068 30.376 225.524 31.552C225.98 32.704 226.232 33.916 226.28 35.188C226.352 36.436 226.172 37.66 225.74 38.86C225.428 39.604 224.924 40.264 224.228 40.84C223.532 41.416 222.716 41.884 221.78 42.244C220.868 42.604 219.884 42.844 218.828 42.964C217.796 43.084 216.8 43.06 215.84 42.892C214.88 42.7 213.992 42.352 213.176 41.848C212.384 41.32 211.772 40.6 211.34 39.688C210.884 39.016 210.572 38.152 210.404 37.096C210.236 36.04 210.164 34.948 210.188 33.82C210.236 32.692 210.356 31.612 210.548 30.58C210.764 29.524 211.028 28.684 211.34 28.06C211.46 27.82 211.628 27.568 211.844 27.304C212.084 27.016 212.36 26.74 212.672 26.476C212.984 26.212 213.332 25.984 213.716 25.792C214.1 25.576 214.508 25.42 214.94 25.324ZM217.64 36.124C218.072 36.34 218.444 36.316 218.756 36.052C219.092 35.788 219.308 35.44 219.404 35.008C219.524 34.552 219.512 34.084 219.368 33.604C219.248 33.1 218.96 32.74 218.504 32.524C218.048 32.38 217.664 32.368 217.352 32.488C217.064 32.608 216.836 32.8 216.668 33.064C216.5 33.328 216.392 33.64 216.344 34C216.32 34.336 216.344 34.672 216.416 35.008C216.512 35.32 216.656 35.584 216.848 35.8C217.064 36.016 217.328 36.124 217.64 36.124ZM227.37 34.828V30.256C227.322 29.344 227.49 28.684 227.874 28.276C228.282 27.844 228.726 27.628 229.206 27.628C229.95 27.484 230.574 27.568 231.078 27.88C231.606 28.168 232.05 28.6 232.41 29.176C232.77 29.728 233.07 30.376 233.31 31.12C233.574 31.84 233.814 32.56 234.03 33.28C234.246 33.976 234.462 34.624 234.678 35.224C234.918 35.824 235.182 36.268 235.47 36.556C236.334 37.012 237.03 37.24 237.558 37.24C238.086 37.24 238.578 37.012 239.034 36.556C239.49 36.268 239.766 35.788 239.862 35.116C239.982 34.42 240.018 33.64 239.97 32.776C239.946 31.912 239.898 31.012 239.826 30.076C239.754 29.14 239.766 28.288 239.862 27.52C239.982 26.752 240.234 26.128 240.618 25.648C241.026 25.144 241.686 24.892 242.598 24.892C243.27 24.892 243.834 25.156 244.29 25.684C244.77 26.188 245.154 26.86 245.442 27.7C245.73 28.54 245.934 29.5 246.054 30.58C246.174 31.66 246.234 32.776 246.234 33.928C246.018 35.272 245.67 36.532 245.19 37.708C244.71 38.884 244.074 39.892 243.282 40.732C242.49 41.572 241.518 42.196 240.366 42.604C239.238 42.988 237.882 43.072 236.298 42.856C235.17 42.856 234.162 42.652 233.274 42.244C232.386 41.812 231.582 41.236 230.862 40.516C230.142 39.796 229.494 38.956 228.918 37.996C228.342 37.012 227.826 35.956 227.37 34.828ZM247.553 24.316C247.985 24.076 248.381 24.088 248.741 24.352C249.101 24.616 249.425 24.952 249.713 25.36C250.025 25.768 250.301 26.164 250.541 26.548C250.805 26.932 251.045 27.124 251.261 27.124C251.741 27.124 252.209 27.028 252.665 26.836C253.145 26.62 253.613 26.404 254.069 26.188C254.549 25.948 255.017 25.732 255.473 25.54C255.953 25.324 256.421 25.216 256.877 25.216C257.573 25.216 258.449 25.336 259.505 25.576C260.585 25.792 261.617 26.116 262.601 26.548C263.609 26.956 264.461 27.448 265.157 28.024C265.877 28.6 266.237 29.236 266.237 29.932C266.237 30.556 266.021 31.036 265.589 31.372C265.181 31.708 264.641 31.972 263.969 32.164C263.321 32.356 262.589 32.512 261.773 32.632C260.981 32.728 260.201 32.848 259.433 32.992C258.689 33.112 257.993 33.304 257.345 33.568C256.721 33.808 256.253 34.156 255.941 34.612C255.797 34.924 255.689 35.344 255.617 35.872C255.545 36.4 255.473 36.976 255.401 37.6C255.329 38.224 255.233 38.86 255.113 39.508C255.017 40.132 254.849 40.708 254.609 41.236C254.393 41.764 254.093 42.196 253.709 42.532C253.325 42.844 252.821 43 252.197 43C251.501 43 250.913 42.748 250.433 42.244C249.953 41.716 249.569 41.08 249.281 40.336C248.993 39.568 248.777 38.752 248.633 37.888C248.513 37 248.453 36.208 248.453 35.512C248.237 34.576 248.057 33.688 247.913 32.848C247.793 32.008 247.709 31.156 247.661 30.292C247.613 29.404 247.577 28.48 247.553 27.52C247.553 26.536 247.553 25.468 247.553 24.316ZM275.543 32.668C275.375 33.46 275.423 34.072 275.687 34.504C275.975 34.912 276.383 35.212 276.911 35.404C277.439 35.596 278.039 35.716 278.711 35.764C279.407 35.812 280.103 35.884 280.799 35.98C281.495 36.076 282.131 36.232 282.707 36.448C283.307 36.64 283.763 36.976 284.075 37.456C284.243 38.56 284.111 39.484 283.679 40.228C283.271 40.972 282.671 41.572 281.879 42.028C281.111 42.46 280.223 42.748 279.215 42.892C278.207 43.036 277.175 43.072 276.119 43C275.087 42.904 274.103 42.7 273.167 42.388C272.231 42.076 271.451 41.68 270.827 41.2C269.867 40.288 269.147 39.316 268.667 38.284C268.187 37.252 267.947 36.004 267.947 34.54C267.947 33.364 268.223 32.164 268.775 30.94C269.327 29.716 270.071 28.636 271.007 27.7C271.967 26.74 273.083 25.996 274.355 25.468C275.627 24.94 276.983 24.796 278.423 25.036C278.903 25.036 279.407 25.156 279.935 25.396C280.487 25.612 280.991 25.9 281.447 26.26C281.927 26.62 282.323 27.04 282.635 27.52C282.947 27.976 283.103 28.444 283.103 28.924C283.103 29.548 282.935 30.004 282.599 30.292C282.263 30.556 281.843 30.748 281.339 30.868C280.835 30.964 280.271 31.012 279.647 31.012C279.047 31.012 278.459 31.048 277.883 31.12C277.331 31.168 276.839 31.312 276.407 31.552C275.975 31.768 275.687 32.14 275.543 32.668ZM288.546 18.196C289.458 17.284 290.37 16.792 291.282 16.72C292.218 16.624 293.142 16.804 294.054 17.26C294.51 17.716 294.846 18.268 295.062 18.916C295.302 19.564 295.422 20.2 295.422 20.824C295.422 21.448 295.302 22.024 295.062 22.552C294.846 23.08 294.51 23.464 294.054 23.704C293.814 23.704 293.538 23.656 293.226 23.56C292.914 23.464 292.614 23.356 292.326 23.236C291.99 23.116 291.642 22.96 291.282 22.768C290.37 22.312 289.686 21.664 289.23 20.824C288.774 19.984 288.546 19.108 288.546 18.196ZM292.218 25.54C292.674 25.996 292.926 26.56 292.974 27.232C293.046 27.904 293.022 28.648 292.902 29.464C292.782 30.256 292.638 31.108 292.47 32.02C292.302 32.908 292.218 33.808 292.218 34.72C292.434 35.416 292.698 36.016 293.01 36.52C293.322 37 293.586 37.48 293.802 37.96C294.042 38.416 294.198 38.896 294.27 39.4C294.342 39.88 294.27 40.468 294.054 41.164C294.054 41.38 293.946 41.608 293.73 41.848C293.538 42.064 293.298 42.256 293.01 42.424C292.722 42.592 292.422 42.736 292.11 42.856C291.798 42.952 291.522 43 291.282 43C290.586 42.88 289.926 42.496 289.302 41.848C288.702 41.176 288.162 40.348 287.682 39.364C287.202 38.38 286.806 37.3 286.494 36.124C286.182 34.924 285.978 33.736 285.882 32.56C285.81 31.36 285.858 30.244 286.026 29.212C286.194 28.156 286.53 27.28 287.034 26.584C287.538 25.888 288.21 25.432 289.05 25.216C289.89 24.976 290.946 25.084 292.218 25.54ZM303.145 27.268C303.793 26.836 304.477 26.428 305.197 26.044C305.941 25.636 306.685 25.336 307.429 25.144C308.197 24.928 308.941 24.844 309.661 24.892C310.381 24.94 311.065 25.168 311.713 25.576C312.145 25.792 312.517 26.104 312.829 26.512C313.165 26.92 313.441 27.364 313.657 27.844C313.873 28.324 314.041 28.816 314.161 29.32C314.281 29.824 314.341 30.292 314.341 30.724C314.557 31.996 314.605 33.34 314.485 34.756C314.389 36.172 314.149 37.48 313.765 38.68C313.381 39.856 312.877 40.828 312.253 41.596C311.629 42.364 310.897 42.748 310.057 42.748C309.625 42.964 309.181 43.036 308.725 42.964C308.269 42.868 307.861 42.688 307.501 42.424C307.141 42.16 306.865 41.824 306.673 41.416C306.505 41.008 306.481 40.576 306.601 40.12C306.769 39.52 307.033 38.86 307.393 38.14C307.753 37.42 308.041 36.724 308.257 36.052C308.473 35.356 308.545 34.696 308.473 34.072C308.425 33.448 308.077 32.92 307.429 32.488C307.213 32.488 306.961 32.5 306.673 32.524C306.385 32.524 306.109 32.548 305.845 32.596C305.581 32.644 305.353 32.728 305.161 32.848C304.993 32.944 304.909 33.1 304.909 33.316C304.477 33.94 304.213 34.66 304.117 35.476C304.045 36.292 304.009 37.132 304.009 37.996C304.009 38.86 303.973 39.712 303.901 40.552C303.829 41.368 303.577 42.1 303.145 42.748H299.797C299.629 42.604 299.425 42.244 299.185 41.668C298.969 41.068 298.741 40.348 298.501 39.508C298.261 38.668 298.033 37.744 297.817 36.736C297.601 35.728 297.421 34.708 297.277 33.676C297.133 32.644 297.037 31.66 296.989 30.724C296.965 29.764 297.025 28.924 297.169 28.204C297.169 27.34 297.349 26.656 297.709 26.152C298.069 25.624 298.453 25.156 298.861 24.748C299.293 24.748 299.677 24.844 300.013 25.036C300.373 25.228 300.709 25.456 301.021 25.72C301.357 25.984 301.681 26.26 301.993 26.548C302.329 26.836 302.713 27.076 303.145 27.268ZM326.764 39.832C325.276 40.048 324.028 40.12 323.02 40.048C322.036 39.976 321.196 39.808 320.5 39.544C319.828 39.28 319.252 38.956 318.772 38.572C318.316 38.164 317.884 37.756 317.476 37.348C316.828 36.484 316.432 35.548 316.288 34.54C316.168 33.532 316.24 32.524 316.504 31.516C316.768 30.508 317.2 29.56 317.8 28.672C318.424 27.76 319.156 26.992 319.996 26.368C320.62 25.936 321.46 25.612 322.516 25.396C323.596 25.156 324.712 25.036 325.864 25.036C327.04 25.012 328.156 25.108 329.212 25.324C330.292 25.54 331.144 25.888 331.768 26.368C332.368 26.848 332.836 27.532 333.172 28.42C333.532 29.284 333.796 30.244 333.964 31.3C334.132 32.332 334.228 33.388 334.252 34.468C334.3 35.524 334.324 36.484 334.324 37.348C334.324 37.972 334.276 38.692 334.18 39.508C334.084 40.3 333.976 41.152 333.856 42.064C333.76 42.952 333.664 43.852 333.568 44.764C333.496 45.7 333.46 46.588 333.46 47.428C333.244 48.484 333.004 49.516 332.74 50.524C332.5 51.556 332.14 52.468 331.66 53.26C331.204 54.052 330.58 54.688 329.788 55.168C329.02 55.648 328.012 55.888 326.764 55.888C325.9 55.672 325.06 55.36 324.244 54.952C323.452 54.544 322.732 54.076 322.084 53.548C321.46 53.02 320.956 52.444 320.572 51.82C320.188 51.22 319.996 50.608 319.996 49.984C319.996 49.552 320.044 49.132 320.14 48.724C320.236 48.34 320.356 47.98 320.5 47.644C320.668 47.332 320.848 47.08 321.04 46.888C321.256 46.696 321.472 46.6 321.688 46.6C322.312 46.6 322.756 46.732 323.02 46.996C323.308 47.26 323.56 47.548 323.776 47.86C323.992 48.172 324.232 48.46 324.496 48.724C324.784 48.988 325.252 49.12 325.9 49.12C326.452 49.12 326.836 48.952 327.052 48.616C327.292 48.28 327.412 47.836 327.412 47.284C327.436 46.732 327.388 46.108 327.268 45.412C327.148 44.74 327.028 44.056 326.908 43.36C326.788 42.664 326.692 42.004 326.62 41.38C326.572 40.756 326.62 40.24 326.764 39.832ZM322.48 33.1C322.48 33.724 322.744 34.12 323.272 34.288C323.8 34.432 324.376 34.42 325 34.252C325.648 34.084 326.236 33.82 326.764 33.46C327.292 33.076 327.556 32.68 327.556 32.272C327.412 31.84 327.172 31.552 326.836 31.408C326.5 31.24 326.116 31.168 325.684 31.192C325.276 31.192 324.856 31.276 324.424 31.444C323.992 31.588 323.608 31.768 323.272 31.984C322.936 32.176 322.684 32.38 322.516 32.596C322.348 32.788 322.336 32.956 322.48 33.1Z" fill="#B7E24E"/>
<path d="M35.0067 16.6151C36.0437 16.463 37.085 16.8632 37.7532 17.6707L55.6758 39.3279C56.9567 40.8757 56.3838 43.2206 54.5335 44.0035L25.836 56.145C24.4297 56.7399 22.8009 56.1837 22.0523 54.8528L5.31071 25.0899C4.2788 23.2554 5.40757 20.9563 7.4901 20.6508L35.0067 16.6151Z" stroke="#B7E24E" stroke-width="4"/>
<path d="M31 37L15.5 29L8 38.5C10.8 38.1 29.5 49 38.5 54.5L46.5 42.5C45 39.5 44.6667 14.6667 45.5 2C38.3 5.2 32.8333 26.6667 31 37Z" fill="#3D4250" stroke="white" stroke-width="2"/>
</svg>
