<svg width="78" height="15" viewBox="0 0 78 15" fill="none" xmlns="http://www.w3.org/2000/svg">
<path d="M6.41919 7.34028C6.41919 5.99238 5.43472 5.04481 4.22522 5.04481C3.01572 5.04481 2.03124 6.00841 2.03124 7.34028C2.03124 8.65664 3.01572 9.63627 4.22522 9.63627C5.43572 9.63472 6.4197 8.68871 6.4197 7.34028M6.43728 11.353V10.3097C5.84056 11.0323 4.95252 11.4807 3.88869 11.4807C1.67763 11.4807 0 9.71489 0 7.33977C0 4.98016 1.74192 3.18381 3.93791 3.18381C4.97061 3.18381 5.84157 3.6338 6.43828 4.33879V3.32708H8.4223V11.3535L6.43728 11.353ZM18.0601 9.5711C17.366 9.5711 17.1731 9.31404 17.1731 8.64009V5.07791H18.4479V3.3276H17.1731V1.37092H15.1394V3.32812H12.5204V2.84037C12.5204 2.1659 12.7786 1.90935 13.4888 1.90935H13.9349V0.351971H12.9564C11.2788 0.351971 10.4882 0.89765 10.4882 2.56624V3.32708H9.35856V5.07688H10.4882V11.3519H12.5214V5.07688H15.1409V9.00939C15.1409 10.6464 15.7697 11.3524 17.4152 11.3524H18.4645V9.5711H18.0601ZM25.3533 6.61771C25.2086 5.57446 24.3528 4.94861 23.3532 4.94861C22.3522 4.94861 21.5299 5.55842 21.321 6.61771H25.3533ZM21.3034 7.86993C21.449 9.05697 22.3044 9.73196 23.3854 9.73196C24.2402 9.73196 24.9023 9.33007 25.289 8.68819H27.371C26.8868 10.3894 25.3533 11.4807 23.3371 11.4807C20.9011 11.4807 19.1908 9.77955 19.1908 7.35632C19.1908 4.93309 20.9985 3.18278 23.3864 3.18278C25.7908 3.18278 27.5327 4.94861 27.5327 7.35632C27.5327 7.53321 27.5166 7.70907 27.4845 7.86993H21.3034ZM40.462 7.34028C40.462 6.03996 39.4775 5.04481 38.268 5.04481C37.0585 5.04481 36.0736 6.00841 36.0736 7.34028C36.0736 8.65664 37.058 9.63627 38.268 9.63627C39.4775 9.63472 40.462 8.6406 40.462 7.34028ZM34.0725 3.32812H36.0565V4.37138C36.6532 3.63277 37.5402 3.18381 38.6051 3.18381C40.7835 3.18381 42.4933 4.96619 42.4933 7.32425C42.4933 9.68386 40.7513 11.4818 38.5569 11.4818C37.5402 11.4818 36.7014 11.0799 36.1208 10.4064V14.655H34.0725V3.32812ZM49.6458 7.34028C49.6458 5.99238 48.6618 5.04481 47.4508 5.04481C46.2418 5.04481 45.2568 6.00841 45.2568 7.34028C45.2568 8.65664 46.2413 9.63627 47.4513 9.63627C48.6618 9.63472 49.6458 8.68871 49.6458 7.34028ZM49.6624 11.353V10.3097C49.0656 11.0323 48.1771 11.4807 47.1133 11.4807C44.9032 11.4807 43.2256 9.71489 43.2256 7.34028C43.2256 4.98067 44.9675 3.18433 47.1615 3.18433C48.1947 3.18433 49.0651 3.63432 49.6624 4.33931V3.3276H51.6469V11.3535L49.6624 11.353ZM30.4957 4.11431C30.4957 4.11431 31.001 3.18381 32.2376 3.18381C32.766 3.18381 33.1086 3.36484 33.1086 3.36484V5.41204C33.1086 5.41204 32.3622 4.95378 31.6766 5.04584C30.9909 5.13791 30.5575 5.7648 30.5595 6.60271V11.354H28.5112V3.32915H30.4952L30.4957 4.11431ZM60.914 3.32812L55.9042 14.6296H53.7916L55.7586 10.2606L52.433 3.3276H54.8273L56.7732 7.95993L58.7698 3.32812H60.914ZM76.9068 3.14605L71.9402 0.294558C70.482 -0.542322 68.6598 0.503519 68.6598 2.17883V2.47107C68.6598 2.73537 68.8014 2.98002 69.0314 3.1114L69.9692 3.64984C70.2445 3.80811 70.588 3.61053 70.588 3.2945V2.56727C70.588 2.20314 70.9838 1.97608 71.2998 2.15814L75.6018 4.62792C75.6735 4.66762 75.7334 4.72658 75.7752 4.79852C75.8169 4.87047 75.839 4.95272 75.839 5.03653C75.839 5.12035 75.8169 5.2026 75.7752 5.27455C75.7334 5.34649 75.6735 5.40545 75.6018 5.44515L71.2998 7.91544C70.9838 8.09751 70.588 7.86993 70.588 7.50631V7.11891C70.588 5.44411 68.7657 4.39724 67.3071 5.23515L62.3405 8.08613C62.0099 8.26907 61.7336 8.54086 61.5409 8.8726C61.3483 9.20434 61.2466 9.58363 61.2466 9.97015C61.2466 10.3567 61.3483 10.736 61.5409 11.0677C61.7336 11.3994 62.0099 11.6712 62.3405 11.8542L67.3071 14.7057C68.7647 15.542 70.588 14.4967 70.588 12.8214V12.5291C70.588 12.2648 70.4464 12.0212 70.2163 11.8888L69.2786 11.3493C69.0033 11.1906 68.6598 11.3887 68.6598 11.7042V12.4319C68.6598 12.7955 68.2645 13.0231 67.948 12.841L63.646 10.3707C63.5744 10.3308 63.5147 10.2717 63.4731 10.1997C63.4315 10.1276 63.4095 10.0454 63.4095 9.96161C63.4095 9.87782 63.4315 9.79558 63.4731 9.72357C63.5147 9.65156 63.5744 9.59245 63.646 9.55248L67.948 7.08218C68.2645 6.90012 68.6598 7.1277 68.6598 7.49131V7.87872C68.6598 9.55352 70.482 10.6009 71.9402 9.76248L76.9068 6.9115C77.2372 6.7287 77.5133 6.45711 77.7058 6.12559C77.8983 5.79408 78 5.41504 78 5.02878C78 4.64252 77.8983 4.26348 77.7058 3.93196C77.5133 3.60045 77.2372 3.32885 76.9068 3.14605Z" fill="black"/>
</svg>
