<svg width="99" height="19" viewBox="0 0 99 19" fill="none" xmlns="http://www.w3.org/2000/svg">
<path d="M8.14744 9.29769C8.14744 7.59035 6.89791 6.39009 5.36277 6.39009C3.82764 6.39009 2.57811 7.61066 2.57811 9.29769C2.57811 10.9651 3.82764 12.2059 5.36277 12.2059C6.89918 12.204 8.14808 11.0057 8.14808 9.29769M8.17039 14.3804V13.059C7.41302 13.9742 6.28589 14.5422 4.93564 14.5422C2.1293 14.5422 0 12.3055 0 9.29704C0 6.3082 2.2109 4.03283 4.99812 4.03283C6.30885 4.03283 7.4143 4.60282 8.17166 5.4958V4.21431H10.6898V14.3811L8.17039 14.3804ZM22.9225 12.1234C22.0414 12.1234 21.7966 11.7978 21.7966 10.9441V6.43202H23.4146V4.21496H21.7966V1.73649H19.2153V4.21562H15.8913V3.5978C15.8913 2.74347 16.219 2.41852 17.1205 2.41852H17.6866V0.44583H16.4447C14.3154 0.44583 13.3119 1.13702 13.3119 3.25057V4.21431H11.8782V6.43071H13.3119V14.3791H15.8926V6.43071H19.2172V11.4119C19.2172 13.4855 20.0154 14.3798 22.1039 14.3798H23.4357V12.1234H22.9225ZM32.1792 8.38243C31.9956 7.06098 30.9093 6.26823 29.6406 6.26823C28.37 6.26823 27.3264 7.04067 27.0612 8.38243H32.1792ZM27.0389 9.96858C27.2238 11.4722 28.3095 12.3272 29.6814 12.3272C30.7665 12.3272 31.6067 11.8181 32.0976 11.005H34.7401C34.1255 13.1599 32.1792 14.5422 29.6202 14.5422C26.5283 14.5422 24.3575 12.3874 24.3575 9.318C24.3575 6.24858 26.6519 4.03152 29.6827 4.03152C32.7345 4.03152 34.9454 6.26823 34.9454 9.318C34.9454 9.54207 34.925 9.76482 34.8842 9.96858H27.0389ZM51.3556 9.29769C51.3556 7.65062 50.1061 6.39009 48.571 6.39009C47.0358 6.39009 45.7857 7.61066 45.7857 9.29769C45.7857 10.9651 47.0352 12.2059 48.571 12.2059C50.1061 12.204 51.3556 10.9448 51.3556 9.29769ZM43.2458 4.21562H45.764V5.53708C46.5214 4.60151 47.6472 4.03283 48.9987 4.03283C51.7636 4.03283 53.9337 6.29051 53.9337 9.27738C53.9337 12.2662 51.7228 14.5436 48.9375 14.5436C47.6472 14.5436 46.5826 14.0345 45.8456 13.1815V18.563H43.2458V4.21562ZM63.0119 9.29769C63.0119 7.59035 61.7631 6.39009 60.226 6.39009C58.6915 6.39009 57.4413 7.61066 57.4413 9.29769C57.4413 10.9651 58.6909 12.2059 60.2266 12.2059C61.7631 12.204 63.0119 11.0057 63.0119 9.29769ZM63.033 14.3804V13.059C62.2756 13.9742 61.1479 14.5422 59.7976 14.5422C56.9925 14.5422 54.8632 12.3055 54.8632 9.29769C54.8632 6.30885 57.0741 4.03348 59.8588 4.03348C61.1702 4.03348 62.275 4.60347 63.033 5.49646V4.21496H65.5518V14.3811L63.033 14.3804ZM38.7061 5.21146C38.7061 5.21146 39.3474 4.03283 40.917 4.03283C41.5876 4.03283 42.0224 4.26213 42.0224 4.26213V6.85526C42.0224 6.85526 41.0751 6.27479 40.2049 6.3914C39.3347 6.50802 38.7845 7.30208 38.787 8.36343V14.3817H36.1872V4.21693H38.7054L38.7061 5.21146ZM77.3139 4.21562L70.9554 18.5309H68.274L70.7705 12.9967L66.5495 4.21496H69.5885L72.0583 10.0826L74.5924 4.21562H77.3139ZM97.6124 3.985L91.3087 0.373107C89.458 -0.686942 87.1451 0.637791 87.1451 2.75985V3.13002C87.1451 3.46481 87.3248 3.7747 87.6168 3.94111L88.8071 4.62313C89.1564 4.82361 89.5925 4.57334 89.5925 4.17303V3.25188C89.5925 2.79065 90.0948 2.50303 90.4958 2.73365L95.9562 5.86204C96.0471 5.91232 96.1232 5.987 96.1762 6.07813C96.2292 6.16926 96.2572 6.27344 96.2572 6.37961C96.2572 6.48578 96.2292 6.58996 96.1762 6.68109C96.1232 6.77223 96.0471 6.8469 95.9562 6.89719L90.4958 10.0262C90.0948 10.2568 89.5925 9.96858 89.5925 9.508V9.01728C89.5925 6.89588 87.2796 5.56983 85.4282 6.63119L79.1245 10.2424C78.7048 10.4742 78.3541 10.8184 78.1097 11.2386C77.8652 11.6588 77.7361 12.1393 77.7361 12.6289C77.7361 13.1184 77.8652 13.5989 78.1097 14.0191C78.3541 14.4393 78.7048 14.7835 79.1245 15.0153L85.4282 18.6272C87.2783 19.6866 89.5925 18.3625 89.5925 16.2404V15.8703C89.5925 15.5355 89.4127 15.2269 89.1207 15.0592L87.9305 14.3758C87.5811 14.1747 87.1451 14.4256 87.1451 14.8253V15.7471C87.1451 16.2077 86.6433 16.4959 86.2417 16.2653L80.7814 13.1363C80.6906 13.0856 80.6148 13.0108 80.562 12.9196C80.5092 12.8283 80.4813 12.7242 80.4813 12.618C80.4813 12.5119 80.5092 12.4077 80.562 12.3165C80.6148 12.2253 80.6906 12.1504 80.7814 12.0998L86.2417 8.97077C86.6433 8.74015 87.1451 9.02842 87.1451 9.489V9.97971C87.1451 12.1011 89.458 13.4278 91.3087 12.3658L97.6124 8.75457C98.0318 8.52302 98.3823 8.179 98.6266 7.75908C98.871 7.33916 99 6.85905 99 6.36978C99 5.88052 98.871 5.4004 98.6266 4.98048C98.3823 4.56057 98.0318 4.21655 97.6124 3.985Z" fill="white"/>
</svg>
