<svg width="21" height="14" viewBox="0 0 21 14" fill="none" xmlns="http://www.w3.org/2000/svg">
<path d="M13.5439 0.503906C13.5968 0.504977 13.6489 0.516781 13.6973 0.538086C13.7456 0.559426 13.7898 0.589613 13.8262 0.62793L13.8252 0.628906L13.833 0.635742L19.624 6.46777V6.46875C19.6998 6.54651 19.7423 6.65118 19.7422 6.75977V6.76562C19.7427 6.81673 19.7318 6.86701 19.7119 6.91406C19.6889 6.96529 19.6581 7.0123 19.6201 7.05371L13.833 12.8838C13.7952 12.922 13.7498 12.9528 13.7002 12.9736C13.6506 12.9945 13.5968 13.0056 13.543 13.0059C13.4894 13.0061 13.4363 12.9958 13.3867 12.9756C13.3376 12.9555 13.2928 12.9258 13.2549 12.8887C13.1781 12.8099 13.1344 12.7048 13.1338 12.5947C13.1332 12.4837 13.1758 12.3767 13.2529 12.2969L13.252 12.2959L17.5234 8.01562L18.374 7.16309H0.90625C0.796499 7.16309 0.690911 7.11957 0.613281 7.04199C0.535676 6.96439 0.492226 6.85877 0.492188 6.74902C0.492188 6.63924 0.535667 6.53369 0.613281 6.45605C0.690921 6.37841 0.79645 6.33496 0.90625 6.33496H18.3818L17.5303 5.48145L13.2549 1.19922C13.1797 1.12072 13.1381 1.01607 13.1387 0.907227C13.1391 0.824285 13.1634 0.743676 13.209 0.675781L13.2617 0.613281C13.2986 0.578499 13.3415 0.5509 13.3887 0.532227C13.4379 0.512787 13.491 0.502873 13.5439 0.503906Z" fill="white" stroke="white"/>
</svg>
