<svg width="20" height="20" viewBox="0 0 20 20" fill="none" xmlns="http://www.w3.org/2000/svg">
<path d="M6 16.9004C6.29174 16.9004 6.57105 17.0164 6.77734 17.2227C6.98363 17.4289 7.09961 17.7083 7.09961 18C7.09961 18.2175 7.03588 18.4304 6.91504 18.6113C6.79417 18.7922 6.6219 18.9333 6.4209 19.0166C6.21994 19.0998 5.99848 19.1215 5.78516 19.0791C5.57185 19.0366 5.37645 18.9311 5.22266 18.7773C5.06886 18.6236 4.96337 18.4281 4.9209 18.2148C4.87847 18.0015 4.9002 17.7801 4.9834 17.5791C5.06665 17.3781 5.20778 17.2058 5.38867 17.085C5.56955 16.9641 5.78246 16.9004 6 16.9004ZM14 16.9004C14.2917 16.9004 14.5711 17.0164 14.7773 17.2227C14.9836 17.4289 15.0996 17.7083 15.0996 18C15.0996 18.2175 15.0359 18.4304 14.915 18.6113C14.7942 18.7922 14.6219 18.9333 14.4209 19.0166C14.2199 19.0998 13.9985 19.1215 13.7852 19.0791C13.5719 19.0366 13.3764 18.9311 13.2227 18.7773C13.0689 18.6236 12.9634 18.4281 12.9209 18.2148C12.8785 18.0015 12.9002 17.7801 12.9834 17.5791C13.0667 17.3781 13.2078 17.2058 13.3887 17.085C13.5696 16.9641 13.7825 16.9004 14 16.9004ZM3.51172 0.400391C3.64887 0.40258 3.78141 0.450405 3.8877 0.537109C3.96758 0.602318 4.02912 0.686661 4.06738 0.78125L4.09766 0.878906L4.09863 0.882812L4.36426 2.44043H19C19.0904 2.44004 19.1795 2.46041 19.2607 2.5C19.3413 2.53926 19.4116 2.59639 19.4668 2.66699H19.4678C19.525 2.73828 19.5652 2.82211 19.5859 2.91113C19.6066 3.00008 19.6077 3.0925 19.5879 3.18164L19.5869 3.18457L17.5869 11.1846V11.1855C17.5528 11.315 17.4768 11.4296 17.3711 11.5117C17.2653 11.5938 17.1349 11.6387 17.001 11.6396H5.87207L4.0498 15.3604H17C17.1591 15.3604 17.3113 15.4236 17.4238 15.5361C17.5363 15.6486 17.5996 15.8008 17.5996 15.96C17.5996 16.1191 17.5363 16.2713 17.4238 16.3838C17.3113 16.4963 17.1591 16.5596 17 16.5596H3.05957C2.95927 16.5594 2.86044 16.5345 2.77246 16.4863C2.68447 16.4381 2.60985 16.3686 2.55566 16.2842L2.55078 16.2764V16.2754C2.50426 16.1858 2.47955 16.0863 2.47949 15.9854C2.47949 15.8839 2.50488 15.7833 2.55176 15.6934L4.89453 10.9844L2.96875 1.59961H1C0.84087 1.59961 0.688694 1.53635 0.576172 1.42383C0.46365 1.31131 0.400391 1.15913 0.400391 1C0.400391 0.84087 0.46365 0.688694 0.576172 0.576172C0.688694 0.46365 0.84087 0.400391 1 0.400391H3.51172ZM6.00098 10.4404H16.5312L18.2129 3.63965H4.6123L6.00098 10.4404Z" fill="black" stroke="black" stroke-width="0.2"/>
</svg>
