<svg width="47" height="45" viewBox="0 0 47 45" fill="none" xmlns="http://www.w3.org/2000/svg">
<mask id="mask0_1448_1701" style="mask-type:luminance" maskUnits="userSpaceOnUse" x="0" y="0" width="47" height="45">
<path d="M47 0.816406H0V44.8164H47V0.816406Z" fill="white"/>
</mask>
<g mask="url(#mask0_1448_1701)">
<path d="M3.10352 26.7986V19.5925C3.10352 9.36476 12.9034 2.23828 23.3289 2.23828C33.7545 2.23828 44.9027 9.36476 44.9027 19.5925V26.1182" stroke="#161616" stroke-width="2" stroke-miterlimit="10"/>
<path d="M41.532 19.4982C41.532 10.8689 31.4193 5.55859 23.3291 5.55859C15.239 5.55859 6.47461 10.8689 6.47461 19.4982" stroke="#161616" stroke-width="2" stroke-miterlimit="10"/>
<path d="M8.49696 32.7736H4.64469C4.262 32.7968 3.88547 32.6703 3.5969 32.4218C3.30833 32.1732 3.13103 31.8226 3.10352 31.446V20.8253C3.11532 20.6382 3.16466 20.4553 3.24868 20.2871C3.3327 20.1188 3.44974 19.9687 3.59304 19.8452C3.73634 19.7218 3.90305 19.6275 4.08356 19.5679C4.26406 19.5082 4.45478 19.4844 4.64469 19.4977H8.49696V32.7736Z" stroke="#161616" stroke-width="2" stroke-miterlimit="10"/>
<path d="M12.5431 18.1691C12.5431 17.0693 11.6376 16.1777 10.5206 16.1777C9.40357 16.1777 8.49805 17.0693 8.49805 18.1691V34.1001C8.49805 35.2 9.40357 36.0915 10.5206 36.0915C11.6376 36.0915 12.5431 35.2 12.5431 34.1001V18.1691Z" stroke="#161616" stroke-width="2" stroke-miterlimit="10"/>
<path d="M39.5098 32.7736H43.362C43.7447 32.7968 44.1213 32.6703 44.4098 32.4218C44.6984 32.1732 44.8757 31.8226 44.9032 31.446V20.8253C44.8914 20.6382 44.8421 20.4553 44.758 20.2871C44.674 20.1188 44.557 19.9687 44.4137 19.8452C44.2704 19.7218 44.1037 19.6275 43.9232 19.5679C43.7427 19.5082 43.5519 19.4844 43.362 19.4977H39.5098V32.7736Z" stroke="#161616" stroke-width="2" stroke-miterlimit="10"/>
<path d="M35.4646 34.1006C35.4646 35.2004 36.3701 36.092 37.4871 36.092C38.6041 36.092 39.5097 35.2004 39.5097 34.1006V18.1696C39.5097 17.0698 38.6041 16.1782 37.4871 16.1782C36.3701 16.1782 35.4646 17.0698 35.4646 18.1696V34.1006Z" stroke="#161616" stroke-width="2" stroke-miterlimit="10"/>
<path d="M25.3521 38.084H22.6554C21.5383 38.084 20.6328 38.9756 20.6328 40.0754V41.4029C20.6328 42.5028 21.5383 43.3943 22.6554 43.3943H25.3521C26.4691 43.3943 27.3746 42.5028 27.3746 41.4029V40.0754C27.3746 38.9756 26.4691 38.084 25.3521 38.084Z" stroke="#161616" stroke-width="2" stroke-miterlimit="10"/>
<path d="M42.207 32.7734V35.4286C42.207 39.0947 39.1887 40.739 35.4652 40.739H27.375" stroke="#161616" stroke-width="2" stroke-miterlimit="10" stroke-linecap="round"/>
</g>
</svg>
