<svg width="116" height="80" viewBox="0 0 116 80" fill="none" xmlns="http://www.w3.org/2000/svg">
<path d="M31.7603 4.48574C30.9998 3.72075 29.7674 3.72075 29.0116 4.48574L4.46113 29.1783C3.70055 29.9433 3.70055 31.1828 4.46113 31.9478L12.4279 39.9606C13.1885 40.7256 14.4208 40.7256 15.1814 39.9606L39.727 15.2681C40.4876 14.5031 40.4876 13.2636 39.727 12.4986L31.7603 4.48574ZM42.4806 9.73412C44.7624 12.0243 44.7624 15.7427 42.4806 18.0375L17.9301 42.7251C15.6532 45.0201 11.9562 45.0201 9.67451 42.7251L1.70773 34.7123C-0.569245 32.4221 -0.569245 28.7037 1.70773 26.4089L26.2582 1.72124C28.54 -0.573747 32.2322 -0.573747 34.5139 1.72124L42.4806 9.73412Z" fill="#01295F"/>
<path d="M111.539 31.9476C112.3 31.1827 112.3 29.9432 111.539 29.1782L86.9885 4.48561C86.2327 3.72063 85.0003 3.72063 84.2397 4.48561L76.273 12.4985C75.5124 13.2635 75.5124 14.5029 76.273 15.2679L100.819 39.9605C101.579 40.7255 102.811 40.7255 103.572 39.9605L111.539 31.9476ZM106.326 42.7251C104.044 45.0201 100.347 45.0201 98.0699 42.7251L73.5194 18.0375C71.2377 15.7425 71.2377 12.0241 73.5194 9.73412L81.4862 1.72124C83.768 -0.573747 87.465 -0.573747 89.7418 1.72124L114.292 26.4089C116.569 28.7038 116.569 32.4222 114.292 34.7123L106.326 42.7251Z" fill="#01295F"/>
<path d="M36.146 55.7485C36.146 53.9474 34.6922 52.4852 32.9015 52.4852C31.1108 52.4852 29.6571 53.9474 29.6571 55.7485C29.6571 57.5496 31.1108 59.0118 32.9015 59.0118C34.6922 59.0118 36.146 57.5496 36.146 55.7485ZM40.0355 55.7485C40.0355 59.7138 36.8391 62.9239 32.9014 62.9239C28.9589 62.9239 25.7673 59.7139 25.7673 55.7485C25.7673 51.788 28.9588 48.5731 32.9014 48.5731C36.8391 48.5731 40.0355 51.788 40.0355 55.7485Z" fill="#01295F"/>
<path d="M43.9248 62.9238C43.9248 61.723 42.7261 60.3141 40.6851 60.3141C38.6392 60.3141 37.4406 61.723 37.4406 62.9238C37.4406 64.1294 38.6393 65.5335 40.6851 65.5335C42.7261 65.5335 43.9248 64.1294 43.9248 62.9238ZM47.8192 62.9238C47.8192 66.7633 44.3725 69.4503 40.6851 69.4503C36.9977 69.4503 33.551 66.7631 33.551 62.9238C33.551 59.0843 36.9977 56.4021 40.6851 56.4021C44.3725 56.4021 47.8192 59.0844 47.8192 62.9238Z" fill="#01295F"/>
<path d="M51.7094 70.0991C51.7094 68.298 50.2604 66.8407 48.4697 66.8407C46.679 66.8407 45.2252 68.298 45.2252 70.0991C45.2252 71.9001 46.679 73.3623 48.4697 73.3623C50.2604 73.3623 51.7094 71.9001 51.7094 70.0991ZM55.6038 70.0991C55.6038 74.0644 52.4074 77.2745 48.4697 77.2745C44.5272 77.2745 41.3308 74.0645 41.3308 70.0991C41.3308 66.1386 44.5272 62.9237 48.4697 62.9237C52.4074 62.9237 55.6038 66.1386 55.6038 70.0991Z" fill="#01295F"/>
<path d="M15.8794 40.1007C16.5918 39.2921 17.8241 39.2195 18.6281 39.9361L30.3016 50.3747C31.1055 51.0913 31.1777 52.3259 30.4653 53.1345C29.748 53.943 28.5205 54.0157 27.7166 53.2991L16.0431 42.8605C15.2392 42.1439 15.1669 40.9045 15.8794 40.1007Z" fill="#01295F"/>
<path d="M40.5122 15.3263C41.2198 14.508 42.4473 14.4209 43.2561 15.1326L49.3359 20.4488H68.4272L73.0148 15.9364C73.785 15.1811 75.0125 15.1908 75.7683 15.9655C76.5193 16.7353 76.5048 17.9747 75.7394 18.7349L70.9593 23.4362C70.3576 24.0317 69.5393 24.3658 68.6921 24.3658H57.5001L47.4778 34.233C45.9903 35.7001 45.9903 38.1112 47.4778 39.5782C48.9219 41.0016 51.2373 41.0016 52.6815 39.5782L57.8901 34.4461C58.9828 33.3761 60.451 32.7708 61.977 32.7708H67.6909C69.1688 32.7708 70.5889 33.3373 71.672 34.3492L84.6928 46.5598L95.1484 36.9104C95.9378 36.1793 97.1701 36.2325 97.8971 37.0314C98.624 37.8255 98.571 39.0649 97.7768 39.796L86.8832 49.8522C85.6364 51.0045 83.7157 50.9948 82.4786 49.8377L69.0191 37.21C68.658 36.8759 68.1815 36.6871 67.6905 36.6871H61.9766C61.4663 36.6871 60.9801 36.8856 60.6142 37.2439L55.4056 42.376C52.4452 45.2859 47.7132 45.2859 44.7576 42.376C41.7056 39.3693 41.7056 34.4358 44.7576 31.4339L51.9349 24.3651H49.0947C48.3101 24.3651 47.5543 24.0795 46.9622 23.5614L40.7043 18.0855C39.8956 17.3738 39.8094 16.1397 40.5122 15.3263Z" fill="#01295F"/>
<path d="M61.717 75.0825L62.7231 74.0706C63.4837 73.3056 63.4837 72.0661 62.7231 71.3011L60.5087 69.0739C59.7481 68.3089 59.7481 67.0694 60.5087 66.3045C61.2693 65.5395 62.5016 65.5395 63.2622 66.3045L65.4766 68.5316C67.7584 70.8266 67.7584 74.545 65.4766 76.835L64.4657 77.8518C62.1887 80.142 58.4917 80.142 56.2149 77.8518L51.714 73.3297C50.9583 72.5647 50.9583 71.3253 51.714 70.5603C52.4746 69.7953 53.707 69.7953 54.4676 70.5603L58.9636 75.0823C59.7242 75.8473 60.9564 75.8474 61.717 75.0825Z" fill="#01295F"/>
<path d="M70.3135 70.6316L71.5265 69.4164C72.2823 68.6514 72.2823 67.4119 71.5265 66.6518L65.5623 60.653C64.8017 59.888 64.8017 58.6485 65.5623 57.8836C66.3229 57.1186 67.5552 57.1186 68.311 57.8836L74.2753 63.8823C76.557 66.1773 76.557 69.8908 74.2753 72.1857L73.067 73.401C70.7852 75.696 67.093 75.696 64.8114 73.401L60.2238 68.7868C59.4632 68.0218 59.4632 66.7824 60.2238 66.0174C60.9795 65.2524 62.2119 65.2524 62.9725 66.0174L67.5649 70.6315C68.3255 71.3965 69.5577 71.3966 70.3135 70.6316Z" fill="#01295F"/>
<path d="M76.8996 64.014L78.1078 62.7987C78.8684 62.0337 78.8684 60.7942 78.1078 60.0292L72.1436 54.0353C71.383 53.2703 71.383 52.0309 72.1436 51.2659C72.9042 50.5009 74.1365 50.5009 74.8971 51.2659L80.8566 57.2646C83.1383 59.5548 83.1383 63.2732 80.8566 65.568L79.6483 66.7833C77.3713 69.0734 73.6743 69.0734 71.3927 66.7833L65.4332 60.7845C64.6726 60.0196 64.6726 58.7801 65.4332 58.0151C66.189 57.2549 67.4213 57.2549 68.1819 58.0151L74.1462 64.0138C74.9068 64.7788 76.139 64.7789 76.8996 64.014Z" fill="#01295F"/>
<path d="M87.7105 50.0742C89.9345 52.3158 89.9971 55.9278 87.8453 58.2371L86.2713 59.9269C84.0184 62.3525 80.2155 62.4155 77.8808 60.0673L72.0128 54.1653C71.2522 53.4004 71.2522 52.1609 72.0128 51.3959C72.7734 50.6309 74.0057 50.6309 74.7615 51.3959L80.6343 57.3027C81.4094 58.0822 82.6802 58.0628 83.4311 57.2543L85.0052 55.5645C85.7224 54.7947 85.7032 53.589 84.957 52.8435L78.906 46.7527C78.1455 45.9925 78.1455 44.753 78.906 43.988C79.6666 43.2231 80.899 43.2231 81.6596 43.988L87.7105 50.0742Z" fill="#01295F"/>
</svg>
