<svg width="13" height="17" viewBox="0 0 13 17" fill="none" xmlns="http://www.w3.org/2000/svg">
<path d="M6.49996 0.583336C4.82025 0.583336 3.20935 1.2506 2.02162 2.43833C0.833886 3.62606 0.166626 5.23696 0.166626 6.91667C0.166626 11.1917 5.74788 16.0208 5.98538 16.2267C6.12877 16.3493 6.31126 16.4167 6.49996 16.4167C6.68866 16.4167 6.87115 16.3493 7.01454 16.2267C7.29163 16.0208 12.8333 11.1917 12.8333 6.91667C12.8333 5.23696 12.166 3.62606 10.9783 2.43833C9.79057 1.2506 8.17966 0.583336 6.49996 0.583336ZM6.49996 14.5563C4.81371 12.9729 1.74996 9.56084 1.74996 6.91667C1.74996 5.65689 2.2504 4.44871 3.1412 3.55791C4.032 2.66711 5.24018 2.16667 6.49996 2.16667C7.75974 2.16667 8.96792 2.66711 9.85872 3.55791C10.7495 4.44871 11.25 5.65689 11.25 6.91667C11.25 9.56084 8.18621 12.9808 6.49996 14.5563ZM6.49996 3.75C5.87365 3.75 5.26141 3.93572 4.74065 4.28368C4.2199 4.63164 3.81402 5.12621 3.57434 5.70484C3.33466 6.28347 3.27195 6.92018 3.39414 7.53446C3.51633 8.14873 3.81792 8.71297 4.26079 9.15584C4.70365 9.59871 5.2679 9.9003 5.88217 10.0225C6.49645 10.1447 7.13316 10.082 7.71179 9.84229C8.29042 9.60261 8.78499 9.19673 9.13295 8.67597C9.4809 8.15522 9.66663 7.54298 9.66663 6.91667C9.66663 6.07682 9.333 5.27136 8.73913 4.6775C8.14527 4.08363 7.33981 3.75 6.49996 3.75ZM6.49996 8.5C6.18681 8.5 5.88068 8.40714 5.62031 8.23316C5.35993 8.05918 5.15699 7.8119 5.03715 7.52258C4.91731 7.23327 4.88596 6.91491 4.94705 6.60778C5.00814 6.30064 5.15894 6.01852 5.38037 5.79708C5.60181 5.57565 5.88393 5.42485 6.19107 5.36376C6.4982 5.30267 6.81656 5.33402 7.10587 5.45386C7.39519 5.5737 7.64247 5.77664 7.81645 6.03702C7.99043 6.29739 8.08329 6.60352 8.08329 6.91667C8.08329 7.3366 7.91648 7.73932 7.61954 8.03625C7.32261 8.33319 6.91989 8.5 6.49996 8.5Z" fill="#737373"/>
</svg>
