<svg width="31" height="31" viewBox="0 0 31 31" fill="none" xmlns="http://www.w3.org/2000/svg">
<path d="M19.45 31C18.6056 31 17.7612 30.8235 16.982 30.4673C16.0391 30.0379 14.9593 30.0379 14.018 30.4673C12.5184 31.1463 10.7852 31.1749 9.26655 30.5484C7.74477 29.9186 6.54101 28.6718 5.96378 27.1324C5.59963 26.1639 4.83635 25.399 3.86794 25.0364C2.32707 24.4592 1.08197 23.2537 0.452268 21.7334C-0.177437 20.2115 -0.148814 18.4797 0.533367 16.9817C0.961121 16.0402 0.961121 14.9604 0.533367 14.019C-0.148814 12.5209 -0.177437 10.7891 0.452268 9.26719C1.08197 7.74688 2.32707 6.54145 3.86953 5.96417C4.83635 5.6 5.60122 4.83666 5.96378 3.86818C6.54101 2.3272 7.74636 1.08201 9.26655 0.452253C10.7868 -0.175909 12.5184 -0.150465 14.018 0.533357C14.9609 0.962734 16.0407 0.962734 16.982 0.533357C18.48 -0.150465 20.2132 -0.175909 21.7334 0.452253C23.2552 1.08201 24.459 2.32879 25.0362 3.86818C25.4004 4.83666 26.1636 5.60159 27.1321 5.96417C28.6729 6.54145 29.918 7.74688 30.5477 9.26719C31.1774 10.7891 31.1488 12.5209 30.4666 14.019C30.0389 14.9604 30.0389 16.0402 30.4666 16.9817C31.1488 18.4797 31.1774 20.2115 30.5477 21.7334C29.918 23.2537 28.6729 24.4592 27.1305 25.0364C26.1636 25.4006 25.3988 26.1639 25.0362 27.1324C24.459 28.6734 23.2536 29.9186 21.7334 30.5484C21.0052 30.8489 20.2276 31 19.45 31ZM15.5 27.7606C16.3428 27.7606 17.1856 27.9387 17.9695 28.2965C18.8807 28.7116 19.8936 28.7259 20.8207 28.3442C21.7478 27.961 22.4506 27.2326 22.8036 26.2928C23.4079 24.6802 24.68 23.408 26.294 22.8021C27.2338 22.4491 27.9621 21.7461 28.3454 20.819C28.7286 19.8935 28.7111 18.8805 28.2976 17.9676C27.5853 16.398 27.5853 14.5994 28.2976 13.0298C28.7127 12.117 28.7286 11.104 28.3454 10.1784C27.9621 9.25129 27.2338 8.54838 26.294 8.19534C24.68 7.58944 23.4079 6.31563 22.8036 4.70467C22.4506 3.76481 21.7478 3.03646 20.8207 2.6532C19.8936 2.27154 18.8823 2.28744 17.9695 2.70091C16.4016 3.41495 14.6 3.41495 13.0321 2.70091C12.1177 2.28426 11.1064 2.26995 10.1809 2.6532C9.25383 3.03646 8.55098 3.76481 8.19796 4.70467C7.5937 6.31722 6.32157 7.58944 4.70755 8.19534C3.76776 8.54838 3.03947 9.25129 2.65624 10.1784C2.27301 11.104 2.2905 12.117 2.70394 13.0298C3.41634 14.5994 3.41634 16.398 2.70394 17.9676C2.28891 18.8805 2.27301 19.8935 2.65624 20.819C3.03947 21.7461 3.76776 22.4491 4.70755 22.8021C6.32157 23.408 7.5937 24.6818 8.19796 26.2928C8.55098 27.2326 9.25383 27.961 10.1809 28.3442C11.108 28.7259 12.1193 28.7116 13.0337 28.2965C13.8176 27.9387 14.6588 27.7606 15.5016 27.7606H15.5ZM21.1133 11.5699L11.5723 21.1116C11.3401 21.3438 11.0348 21.4615 10.7295 21.4615C10.4242 21.4615 10.1189 21.3454 9.88672 21.1116C9.4208 20.6457 9.4208 19.8903 9.88672 19.4243L19.4277 9.88263C19.8936 9.41668 20.649 9.41668 21.1149 9.88263C21.5808 10.3486 21.5808 11.104 21.1149 11.5699H21.1133ZM10.7295 12.3174C11.6073 12.3174 12.3197 11.6049 12.3197 10.7271C12.3197 9.84924 11.6073 9.13679 10.7295 9.13679C9.85173 9.13679 9.13934 9.84924 9.13934 10.7271C9.13934 11.6049 9.85173 12.3174 10.7295 12.3174ZM20.2705 18.6785C19.3927 18.6785 18.6803 19.3909 18.6803 20.2688C18.6803 21.1466 19.3927 21.8591 20.2705 21.8591C21.1483 21.8591 21.8607 21.1466 21.8607 20.2688C21.8607 19.3909 21.1483 18.6785 20.2705 18.6785Z" fill="black"/>
</svg>
