<svg width="47" height="47" viewBox="0 0 47 47" fill="none" xmlns="http://www.w3.org/2000/svg">
<path d="M10.2812 30.8438C9.06659 30.8438 8.07812 31.8322 8.07812 33.0469C8.07812 34.2615 9.06659 35.25 10.2812 35.25C11.4959 35.25 12.4844 34.2615 12.4844 33.0469C12.4844 31.8322 11.4959 30.8438 10.2812 30.8438ZM10.2812 33.7812C9.87587 33.7812 9.54688 33.4522 9.54688 33.0469C9.54688 32.6415 9.87587 32.3125 10.2812 32.3125C10.6866 32.3125 11.0156 32.6415 11.0156 33.0469C11.0156 33.4522 10.6866 33.7812 10.2812 33.7812ZM31.5781 30.8438C30.3635 30.8438 29.375 31.8322 29.375 33.0469C29.375 34.2615 30.3635 35.25 31.5781 35.25C32.7928 35.25 33.7812 34.2615 33.7812 33.0469C33.7812 31.8322 32.7928 30.8438 31.5781 30.8438ZM31.5781 33.7812C31.1728 33.7812 30.8438 33.4522 30.8438 33.0469C30.8438 32.6415 31.1728 32.3125 31.5781 32.3125C31.9835 32.3125 32.3125 32.6415 32.3125 33.0469C32.3125 33.4522 31.9835 33.7812 31.5781 33.7812ZM19.0938 24.2344V18.3594C19.0938 17.9533 18.7655 17.625 18.3594 17.625H13.9531C11.9285 17.625 10.2812 19.2722 10.2812 21.2969V24.2344C10.2812 24.6405 10.6095 24.9688 11.0156 24.9688H18.3594C18.7655 24.9688 19.0938 24.6405 19.0938 24.2344ZM17.625 23.5H11.75V21.2969C11.75 20.0822 12.7385 19.0938 13.9531 19.0938H17.625V23.5Z" fill="black"/>
<path d="M34.4554 20.5625H44.0625V19.0938H35.0569C35.1185 18.8543 35.1678 18.6098 35.1993 18.3594H41.8594V16.8906H41.125V11.6163C41.125 10.4759 40.1365 9.54688 38.9219 9.54688H22.0312C20.8166 9.54688 19.8281 10.4759 19.8281 11.6163V15.557C19.5975 15.4748 19.3522 15.4219 19.0938 15.4219L13.2188 15.4211C10.3848 15.4211 8.07812 17.7278 8.07812 20.5618V23.4993H5.875C3.04105 23.4993 0.734375 25.8059 0.734375 28.6399V31.5781C0.734375 32.7928 1.72284 33.7812 2.9375 33.7812H5.94109C6.29213 35.8617 8.10162 37.4531 10.2812 37.4531C12.4609 37.4531 14.2696 35.8617 14.6214 33.7812H27.238C27.589 35.8617 29.3985 37.4531 31.5781 37.4531C33.7578 37.4531 35.5665 35.8617 35.9183 33.7812H38.9219C40.1365 33.7812 41.125 32.7928 41.125 31.5781V24.9688V22.7656H45.5312V21.2969H33.9538C34.1396 21.0663 34.3056 20.8203 34.4554 20.5625ZM29.375 22.0312C26.945 22.0312 24.9688 20.055 24.9688 17.625C24.9688 15.195 26.945 13.2188 29.375 13.2188C31.805 13.2188 33.7812 15.195 33.7812 17.625C33.7812 20.055 31.805 22.0312 29.375 22.0312ZM10.2812 35.9844C8.66122 35.9844 7.34375 34.6669 7.34375 33.0469C7.34375 31.4268 8.66122 30.1094 10.2812 30.1094C11.9013 30.1094 13.2188 31.4268 13.2188 33.0469C13.2188 34.6669 11.9013 35.9844 10.2812 35.9844ZM10.2812 28.6406C8.10236 28.6406 6.29286 30.232 5.94109 32.3125H2.9375C2.53212 32.3125 2.20312 31.9835 2.20312 31.5781V28.6399C2.20312 26.6152 3.85033 24.968 5.875 24.968H8.8125C9.21861 24.968 9.54688 24.6398 9.54688 24.2336V20.5618C9.54688 18.5371 11.1941 16.8899 13.2188 16.8899L19.0938 16.8906C19.4991 16.8906 19.8281 17.2196 19.8281 17.625V32.3125H14.6214C14.2696 30.232 12.4601 28.6406 10.2812 28.6406ZM31.5781 35.9844C29.9581 35.9844 28.6406 34.6669 28.6406 33.0469C28.6406 31.4268 29.9581 30.1094 31.5781 30.1094C33.1982 30.1094 34.5156 31.4268 34.5156 33.0469C34.5156 34.6669 33.1982 35.9844 31.5781 35.9844ZM39.6562 31.5781C39.6562 31.9835 39.3273 32.3125 38.9219 32.3125H35.9183C35.5672 30.232 33.7578 28.6406 31.5781 28.6406C29.3985 28.6406 27.5897 30.232 27.238 32.3125H21.2969V25.7031H39.6562V31.5781ZM39.6562 24.2344H21.2969V17.625V11.6163C21.2969 11.2851 21.6259 11.0156 22.0312 11.0156H38.9219C39.3273 11.0156 39.6562 11.2851 39.6562 11.6163V16.8906H35.1993C34.8358 13.9972 32.3654 11.75 29.375 11.75C26.1357 11.75 23.5 14.3857 23.5 17.625C23.5 20.8643 26.1357 23.5 29.375 23.5C30.4039 23.5 31.371 23.2327 32.2126 22.7656H39.6562V24.2344Z" fill="black"/>
<path d="M30.1094 13.9531H28.6406V17.625C28.6406 18.0311 28.9689 18.3594 29.375 18.3594H32.3125V16.8906H30.1094V13.9531Z" fill="black"/>
</svg>
