<svg width="53" height="56" viewBox="0 0 53 56" fill="none" xmlns="http://www.w3.org/2000/svg">
<mask id="path-1-outside-1_1448_443" maskUnits="userSpaceOnUse" x="0" y="0" width="53" height="56" fill="black">
<rect fill="white" width="53" height="56"/>
<path d="M50.9331 28.2607C49.8597 27.2904 48.2036 27.3698 47.2298 28.4369L41.3474 34.7675C41.1083 32.9981 39.5941 31.6754 37.801 31.6729H27.919L26.8008 31.0302C25.5979 30.3204 24.2232 29.9532 22.8261 29.968H18.6969C16.5875 29.9531 14.5628 30.787 13.081 32.2834L7.76647 37.4525L6.41417 36.105H6.41168C6.29214 35.9834 6.12777 35.9164 5.95593 35.9164C5.78659 35.9164 5.62222 35.9834 5.50019 36.105L1.18928 40.4007C1.06724 40.5223 1 40.6861 1 40.8573C1 41.026 1.06724 41.1898 1.18928 41.3114L14.7372 54.8114C14.8592 54.933 15.0211 55 15.1929 55C15.3648 55 15.5291 54.933 15.6487 54.8114L19.9621 50.5133V50.5157C20.0816 50.3941 20.1514 50.2304 20.1514 50.0591C20.1514 49.8904 20.0816 49.7266 19.9621 49.605L18.5824 48.2302L19.3519 47.3517C20.0093 46.5699 20.9881 46.1258 22.0142 46.1456H36.9417C39.6712 46.1432 42.2239 44.808 43.7731 42.5696L51.4906 31.966C52.3473 30.7847 52.0986 29.1392 50.9331 28.2607ZM15.1927 53.4488L2.55649 40.8573L5.9559 37.4699L18.5921 50.0614L15.1927 53.4488ZM50.4472 31.211L42.7297 41.8147C41.4297 43.728 39.2606 44.8696 36.942 44.8596H22.0144C20.6173 44.8423 19.2824 45.4453 18.3784 46.5075L17.6686 47.3189L8.67791 38.3626L13.98 33.2033H13.9825C15.2203 31.9352 16.9237 31.2329 18.6969 31.2528H22.826C23.9965 31.2354 25.1496 31.5431 26.1557 32.1412L27.4234 32.8707C27.5205 32.9278 27.6326 32.9576 27.7446 32.9576H37.8007C38.7023 32.9551 39.5191 33.4837 39.8877 34.3026C40.2562 35.1241 40.1043 36.0819 39.5016 36.752C39.0683 37.2359 38.4507 37.5138 37.8007 37.5138H29.2288C28.8727 37.5163 28.5838 37.8042 28.5838 38.1566C28.5838 38.5114 28.8727 38.7993 29.2288 38.7993H37.8007C38.8117 38.7993 39.7781 38.37 40.4555 37.618L40.458 37.6155L48.1755 29.3072V29.3097C48.422 29.0392 48.7682 28.8828 49.1318 28.8704C49.4979 28.8605 49.8515 28.9995 50.1131 29.2526C50.4194 29.466 50.6286 29.7936 50.6908 30.1633C50.7531 30.5306 50.6659 30.9078 50.4468 31.2106L50.4472 31.211ZM32.3868 29.2977C36.1523 29.2977 39.7632 27.8087 42.4256 25.1534C45.0904 22.5006 46.5846 18.9023 46.5846 15.1501C46.5846 11.398 45.0903 7.79725 42.4256 5.14427C39.7633 2.49141 36.1523 1 32.3868 1C28.6187 1 25.0078 2.49148 22.3454 5.14427C19.6831 7.79712 18.1864 11.398 18.1864 15.1501C18.1889 18.8998 19.6881 22.4979 22.3503 25.1509C25.0126 27.8039 28.6213 29.2952 32.3868 29.2977ZM32.3868 28.0123C30.3372 28.0147 28.3199 27.5308 26.4994 26.5952L29.58 21.2796C31.5674 22.1854 33.8735 22.0762 35.7687 20.9868C37.6639 19.8974 38.9116 17.9617 39.1183 15.7928H45.2797C45.1103 19.0859 43.6783 22.1927 41.2776 24.4658C38.8793 26.7389 35.6963 28.0098 32.3868 28.0123ZM32.3868 9.6955C34.5983 9.6955 36.5956 11.0231 37.4423 13.0631C38.2891 15.1004 37.8209 17.4456 36.2569 19.0065C34.6904 20.565 32.337 21.0315 30.2898 20.1878C28.2452 19.3441 26.9128 17.3563 26.9128 15.1501C26.9153 12.1374 29.3634 9.69798 32.3868 9.6955ZM45.2799 14.5073H39.1186C38.8048 11.2936 36.2546 8.75247 33.032 8.43978V2.30273C36.2272 2.46404 39.2481 3.80412 41.5094 6.05744C43.7733 8.31323 45.1155 11.3233 45.2799 14.5073ZM31.7396 2.30273V8.44226V8.43978C28.9305 8.70779 26.582 10.6857 25.8523 13.403C25.1226 16.1203 26.1636 19.004 28.4623 20.6345L25.3816 25.9502C22.3035 23.9698 20.214 20.776 19.6362 17.1704C19.0609 13.5621 20.0496 9.8817 22.3607 7.04512C24.6694 4.20867 28.0787 2.48385 31.7396 2.30273ZM29.8718 16.5523C29.8718 16.1975 30.1607 15.9096 30.5168 15.9096C30.873 15.9096 31.1594 16.1975 31.1618 16.5523C31.2938 17.1181 31.8019 17.5201 32.3871 17.5201C32.9699 17.5201 33.4779 17.1181 33.61 16.5523C33.61 15.9493 33.3485 15.8103 32.3075 15.5821C31.4333 15.391 30.1134 15.1006 30.1134 13.5397C30.1483 12.5942 30.8157 11.7902 31.7396 11.5793V11.1375C31.7396 10.9688 31.8069 10.8025 31.9289 10.6834C32.051 10.5618 32.2153 10.4948 32.3872 10.4948C32.5565 10.4948 32.7209 10.5618 32.8429 10.6834C32.9649 10.8025 33.0322 10.9688 33.0322 11.1375V11.5793C33.9561 11.7902 34.6236 12.5943 34.6584 13.5397C34.6559 13.8921 34.3696 14.18 34.0134 14.18C33.6573 14.18 33.3684 13.8921 33.3684 13.5397C33.2539 13.093 32.8479 12.7804 32.3872 12.7804C31.924 12.7804 31.5205 13.093 31.4034 13.5397C31.4034 13.9889 31.5802 14.1055 32.5839 14.3264C33.5054 14.5299 34.9 14.8351 34.9 16.5524C34.8577 17.622 34.0857 18.5228 33.0322 18.7288V19.1606C33.0322 19.3318 32.9649 19.4956 32.8429 19.6172C32.7209 19.7388 32.5565 19.8058 32.3872 19.8058C32.2153 19.8058 32.051 19.7388 31.9289 19.6172C31.8069 19.4956 31.7396 19.3318 31.7396 19.1606V18.7288C30.6862 18.5228 29.9142 17.6219 29.8718 16.5523Z"/>
</mask>
<path d="M50.9331 28.2607C49.8597 27.2904 48.2036 27.3698 47.2298 28.4369L41.3474 34.7675C41.1083 32.9981 39.5941 31.6754 37.801 31.6729H27.919L26.8008 31.0302C25.5979 30.3204 24.2232 29.9532 22.8261 29.968H18.6969C16.5875 29.9531 14.5628 30.787 13.081 32.2834L7.76647 37.4525L6.41417 36.105H6.41168C6.29214 35.9834 6.12777 35.9164 5.95593 35.9164C5.78659 35.9164 5.62222 35.9834 5.50019 36.105L1.18928 40.4007C1.06724 40.5223 1 40.6861 1 40.8573C1 41.026 1.06724 41.1898 1.18928 41.3114L14.7372 54.8114C14.8592 54.933 15.0211 55 15.1929 55C15.3648 55 15.5291 54.933 15.6487 54.8114L19.9621 50.5133V50.5157C20.0816 50.3941 20.1514 50.2304 20.1514 50.0591C20.1514 49.8904 20.0816 49.7266 19.9621 49.605L18.5824 48.2302L19.3519 47.3517C20.0093 46.5699 20.9881 46.1258 22.0142 46.1456H36.9417C39.6712 46.1432 42.2239 44.808 43.7731 42.5696L51.4906 31.966C52.3473 30.7847 52.0986 29.1392 50.9331 28.2607ZM15.1927 53.4488L2.55649 40.8573L5.9559 37.4699L18.5921 50.0614L15.1927 53.4488ZM50.4472 31.211L42.7297 41.8147C41.4297 43.728 39.2606 44.8696 36.942 44.8596H22.0144C20.6173 44.8423 19.2824 45.4453 18.3784 46.5075L17.6686 47.3189L8.67791 38.3626L13.98 33.2033H13.9825C15.2203 31.9352 16.9237 31.2329 18.6969 31.2528H22.826C23.9965 31.2354 25.1496 31.5431 26.1557 32.1412L27.4234 32.8707C27.5205 32.9278 27.6326 32.9576 27.7446 32.9576H37.8007C38.7023 32.9551 39.5191 33.4837 39.8877 34.3026C40.2562 35.1241 40.1043 36.0819 39.5016 36.752C39.0683 37.2359 38.4507 37.5138 37.8007 37.5138H29.2288C28.8727 37.5163 28.5838 37.8042 28.5838 38.1566C28.5838 38.5114 28.8727 38.7993 29.2288 38.7993H37.8007C38.8117 38.7993 39.7781 38.37 40.4555 37.618L40.458 37.6155L48.1755 29.3072V29.3097C48.422 29.0392 48.7682 28.8828 49.1318 28.8704C49.4979 28.8605 49.8515 28.9995 50.1131 29.2526C50.4194 29.466 50.6286 29.7936 50.6908 30.1633C50.7531 30.5306 50.6659 30.9078 50.4468 31.2106L50.4472 31.211ZM32.3868 29.2977C36.1523 29.2977 39.7632 27.8087 42.4256 25.1534C45.0904 22.5006 46.5846 18.9023 46.5846 15.1501C46.5846 11.398 45.0903 7.79725 42.4256 5.14427C39.7633 2.49141 36.1523 1 32.3868 1C28.6187 1 25.0078 2.49148 22.3454 5.14427C19.6831 7.79712 18.1864 11.398 18.1864 15.1501C18.1889 18.8998 19.6881 22.4979 22.3503 25.1509C25.0126 27.8039 28.6213 29.2952 32.3868 29.2977ZM32.3868 28.0123C30.3372 28.0147 28.3199 27.5308 26.4994 26.5952L29.58 21.2796C31.5674 22.1854 33.8735 22.0762 35.7687 20.9868C37.6639 19.8974 38.9116 17.9617 39.1183 15.7928H45.2797C45.1103 19.0859 43.6783 22.1927 41.2776 24.4658C38.8793 26.7389 35.6963 28.0098 32.3868 28.0123ZM32.3868 9.6955C34.5983 9.6955 36.5956 11.0231 37.4423 13.0631C38.2891 15.1004 37.8209 17.4456 36.2569 19.0065C34.6904 20.565 32.337 21.0315 30.2898 20.1878C28.2452 19.3441 26.9128 17.3563 26.9128 15.1501C26.9153 12.1374 29.3634 9.69798 32.3868 9.6955ZM45.2799 14.5073H39.1186C38.8048 11.2936 36.2546 8.75247 33.032 8.43978V2.30273C36.2272 2.46404 39.2481 3.80412 41.5094 6.05744C43.7733 8.31323 45.1155 11.3233 45.2799 14.5073ZM31.7396 2.30273V8.44226V8.43978C28.9305 8.70779 26.582 10.6857 25.8523 13.403C25.1226 16.1203 26.1636 19.004 28.4623 20.6345L25.3816 25.9502C22.3035 23.9698 20.214 20.776 19.6362 17.1704C19.0609 13.5621 20.0496 9.8817 22.3607 7.04512C24.6694 4.20867 28.0787 2.48385 31.7396 2.30273ZM29.8718 16.5523C29.8718 16.1975 30.1607 15.9096 30.5168 15.9096C30.873 15.9096 31.1594 16.1975 31.1618 16.5523C31.2938 17.1181 31.8019 17.5201 32.3871 17.5201C32.9699 17.5201 33.4779 17.1181 33.61 16.5523C33.61 15.9493 33.3485 15.8103 32.3075 15.5821C31.4333 15.391 30.1134 15.1006 30.1134 13.5397C30.1483 12.5942 30.8157 11.7902 31.7396 11.5793V11.1375C31.7396 10.9688 31.8069 10.8025 31.9289 10.6834C32.051 10.5618 32.2153 10.4948 32.3872 10.4948C32.5565 10.4948 32.7209 10.5618 32.8429 10.6834C32.9649 10.8025 33.0322 10.9688 33.0322 11.1375V11.5793C33.9561 11.7902 34.6236 12.5943 34.6584 13.5397C34.6559 13.8921 34.3696 14.18 34.0134 14.18C33.6573 14.18 33.3684 13.8921 33.3684 13.5397C33.2539 13.093 32.8479 12.7804 32.3872 12.7804C31.924 12.7804 31.5205 13.093 31.4034 13.5397C31.4034 13.9889 31.5802 14.1055 32.5839 14.3264C33.5054 14.5299 34.9 14.8351 34.9 16.5524C34.8577 17.622 34.0857 18.5228 33.0322 18.7288V19.1606C33.0322 19.3318 32.9649 19.4956 32.8429 19.6172C32.7209 19.7388 32.5565 19.8058 32.3872 19.8058C32.2153 19.8058 32.051 19.7388 31.9289 19.6172C31.8069 19.4956 31.7396 19.3318 31.7396 19.1606V18.7288C30.6862 18.5228 29.9142 17.6219 29.8718 16.5523Z" fill="black"/>
<path d="M29.8693 16.5523V16.6523H29.8718V16.5523V16.4523H29.8693V16.5523ZM50.9331 28.2607L50.7989 28.4091L50.8055 28.4151L50.8127 28.4204L50.9331 28.2607ZM47.2298 28.4369L47.3763 28.5731L47.3775 28.5717L47.2298 28.4369ZM41.3474 34.7675L41.1492 34.7943L41.2058 35.2136L41.4939 34.9036L41.3474 34.7675ZM37.801 31.6729L37.8013 31.4729H37.801V31.6729ZM27.919 31.6729L27.8193 31.8463L27.8656 31.8729H27.919V31.6729ZM26.8008 31.0302L26.6992 31.2024L26.7011 31.2036L26.8008 31.0302ZM22.8261 29.968V30.168L22.8282 30.168L22.8261 29.968ZM18.6969 29.968L18.6955 30.168H18.6969V29.968ZM13.081 32.2834L13.2205 32.4267L13.2231 32.4241L13.081 32.2834ZM7.76647 37.4525L7.6253 37.5942L7.76478 37.7332L7.90592 37.5959L7.76647 37.4525ZM6.41417 36.105L6.55534 35.9633L6.49681 35.905H6.41417V36.105ZM6.41168 36.105L6.26905 36.2452L6.32783 36.305H6.41168V36.105ZM5.50019 36.105L5.64136 36.2467L5.50019 36.105ZM1.18928 40.4007L1.0481 40.259H1.0481L1.18928 40.4007ZM1.18928 41.3114L1.33045 41.1698L1.33044 41.1698L1.18928 41.3114ZM14.7372 54.8114L14.596 54.9531L14.7372 54.8114ZM15.6487 54.8114L15.5075 54.6697L15.5061 54.6712L15.6487 54.8114ZM19.9621 50.5133H20.1621V50.0316L19.8209 50.3716L19.9621 50.5133ZM19.9621 50.5157H19.7621V51.0045L20.1047 50.656L19.9621 50.5157ZM19.9621 49.605L20.1047 49.4648L20.1032 49.4633L19.9621 49.605ZM18.5824 48.2302L18.4319 48.0984L18.3083 48.2394L18.4412 48.3718L18.5824 48.2302ZM19.3519 47.3517L19.5024 47.4835L19.5049 47.4804L19.3519 47.3517ZM22.0142 46.1456L22.0103 46.3456H22.0142V46.1456ZM36.9417 46.1456V46.3456H36.9419L36.9417 46.1456ZM43.7731 42.5696L43.6113 42.4519L43.6086 42.4558L43.7731 42.5696ZM51.4906 31.966L51.6523 32.0837L51.6525 32.0834L51.4906 31.966ZM15.1927 53.4488L15.0515 53.5905L15.1927 53.7311L15.3339 53.5905L15.1927 53.4488ZM2.55649 40.8573L2.41532 40.7156L2.27314 40.8573L2.41532 40.999L2.55649 40.8573ZM5.9559 37.4699L6.09707 37.3282L5.9559 37.1876L5.81473 37.3282L5.9559 37.4699ZM18.5921 50.0614L18.7333 50.2031L18.8755 50.0614L18.7333 49.9197L18.5921 50.0614ZM50.4472 31.211L50.6089 31.3287L50.7081 31.1924L50.5906 31.0716L50.4472 31.211ZM42.7297 41.8147L42.5679 41.6969L42.5643 41.7023L42.7297 41.8147ZM36.942 44.8596L36.9428 44.6596H36.942V44.8596ZM22.0144 44.8596L22.0119 45.0596H22.0144V44.8596ZM18.3784 46.5075L18.529 46.6392L18.5307 46.6371L18.3784 46.5075ZM17.6686 47.3189L17.5275 47.4606L17.6787 47.6112L17.8192 47.4506L17.6686 47.3189ZM8.67791 38.3626L8.53844 38.2192L8.39285 38.3609L8.53676 38.5043L8.67791 38.3626ZM13.98 33.2033V33.0033H13.8988L13.8405 33.06L13.98 33.2033ZM13.9825 33.2033V33.4033H14.0668L14.1256 33.343L13.9825 33.2033ZM18.6969 31.2528L18.6946 31.4528H18.6969V31.2528ZM22.826 31.2528V31.4528L22.829 31.4527L22.826 31.2528ZM26.1557 32.1412L26.0535 32.3131L26.056 32.3145L26.1557 32.1412ZM27.4234 32.8707L27.5247 32.6983L27.5231 32.6974L27.4234 32.8707ZM37.8007 32.9576V33.1576H37.8013L37.8007 32.9576ZM39.8877 34.3026L40.0701 34.2207L40.07 34.2205L39.8877 34.3026ZM39.5016 36.752L39.3529 36.6182L39.3526 36.6186L39.5016 36.752ZM29.2288 37.5138V37.3138L29.2274 37.3138L29.2288 37.5138ZM40.4555 37.618L40.3141 37.4761L40.3069 37.4842L40.4555 37.618ZM40.458 37.6155L40.5992 37.7573L40.6045 37.7517L40.458 37.6155ZM48.1755 29.3072H48.3755V28.798L48.029 29.1711L48.1755 29.3072ZM48.1755 29.3097H47.9755V29.826L48.3233 29.4444L48.1755 29.3097ZM49.1318 28.8704L49.1264 28.6705L49.125 28.6705L49.1318 28.8704ZM50.1131 29.2526L49.974 29.3963L49.9855 29.4075L49.9987 29.4167L50.1131 29.2526ZM50.6908 30.1633L50.4936 30.1965L50.4937 30.1968L50.6908 30.1633ZM50.4468 31.2106L50.2848 31.0933L50.1862 31.2294L50.3034 31.35L50.4468 31.2106ZM32.3868 29.2977L32.3866 29.4977H32.3868V29.2977ZM42.4256 25.1534L42.2845 25.0117L42.2844 25.0118L42.4256 25.1534ZM42.4256 5.14427L42.2844 5.28594L42.2845 5.286L42.4256 5.14427ZM22.3454 5.14427L22.2042 5.00259L22.2042 5.0026L22.3454 5.14427ZM18.1864 15.1501H17.9864V15.1503L18.1864 15.1501ZM32.3868 28.0123L32.3866 27.8123H32.3865L32.3868 28.0123ZM26.4994 26.5952L26.3263 26.495L26.2209 26.677L26.408 26.7731L26.4994 26.5952ZM29.58 21.2796L29.663 21.0976L29.4979 21.0224L29.407 21.1793L29.58 21.2796ZM35.7687 20.9868L35.669 20.8134L35.669 20.8134L35.7687 20.9868ZM39.1183 15.7928V15.5928H38.9365L38.9192 15.7738L39.1183 15.7928ZM45.2797 15.7928L45.4794 15.803L45.4902 15.5928H45.2797V15.7928ZM41.2776 24.4658L41.1401 24.3205L41.14 24.3206L41.2776 24.4658ZM32.3868 9.6955V9.4955H32.3866L32.3868 9.6955ZM37.4423 13.0631L37.2576 13.1397L37.2576 13.1398L37.4423 13.0631ZM36.2569 19.0065L36.3979 19.1483L36.3982 19.1481L36.2569 19.0065ZM30.2898 20.1878L30.2135 20.3727L30.2136 20.3727L30.2898 20.1878ZM26.9128 15.1501L26.7128 15.15V15.1501H26.9128ZM45.2799 14.5073V14.7073H45.4905L45.4796 14.497L45.2799 14.5073ZM39.1186 14.5073L38.9195 14.5268L38.9371 14.7073H39.1186V14.5073ZM33.032 8.43978H32.832V8.62132L33.0126 8.63885L33.032 8.43978ZM33.032 2.30273L33.042 2.10299L32.832 2.09238V2.30273H33.032ZM41.5094 6.05744L41.6506 5.91577L41.6506 5.91576L41.5094 6.05744ZM31.7396 2.30273H31.9396V2.09259L31.7298 2.10298L31.7396 2.30273ZM31.7396 8.43978H31.9396V8.21979L31.7206 8.24068L31.7396 8.43978ZM25.8523 13.403L25.6591 13.3511L25.6591 13.3511L25.8523 13.403ZM28.4623 20.6345L28.6353 20.7348L28.7268 20.577L28.578 20.4714L28.4623 20.6345ZM25.3816 25.9502L25.2734 26.1184L25.4496 26.2317L25.5547 26.0504L25.3816 25.9502ZM19.6362 17.1704L19.4387 17.2019L19.4387 17.2021L19.6362 17.1704ZM22.3607 7.04512L22.5158 7.17145L22.5158 7.17137L22.3607 7.04512ZM29.8718 16.5523H29.6717L29.672 16.5603L29.8718 16.5523ZM31.1618 16.5523L30.9618 16.5537L30.962 16.5761L30.9671 16.5978L31.1618 16.5523ZM33.61 16.5523L33.8047 16.5978L33.81 16.5754V16.5523H33.61ZM32.3075 15.5821L32.3503 15.3867L32.3502 15.3867L32.3075 15.5821ZM30.1134 13.5397L29.9134 13.5323V13.5397H30.1134ZM31.7396 11.5793L31.7842 11.7743L31.9396 11.7388V11.5793H31.7396ZM31.9289 10.6834L32.0686 10.8265L32.0701 10.8251L31.9289 10.6834ZM32.8429 10.6834L32.7017 10.8251L32.7032 10.8265L32.8429 10.6834ZM33.0322 11.5793H32.8322V11.7388L32.9877 11.7743L33.0322 11.5793ZM34.6584 13.5397L34.8586 13.5411L34.8583 13.5323L34.6584 13.5397ZM33.3684 13.5397H33.5684V13.5145L33.5621 13.49L33.3684 13.5397ZM31.4034 13.5397L31.21 13.489L31.2034 13.514V13.5397H31.4034ZM32.5839 14.3264L32.627 14.1311L32.6269 14.1311L32.5839 14.3264ZM34.9 16.5524L35.1 16.5603V16.5524H34.9ZM33.0322 18.7288L32.9938 18.5325L32.8322 18.5641V18.7288H33.0322ZM31.9289 19.6172L31.7878 19.7589L31.7878 19.7589L31.9289 19.6172ZM31.7396 18.7288H31.9396V18.5641L31.778 18.5325L31.7396 18.7288ZM50.9331 28.2607L51.0672 28.1124C49.9122 27.0683 48.1301 27.1536 47.0821 28.3021L47.2298 28.4369L47.3775 28.5717C48.277 27.5861 49.8071 27.5125 50.7989 28.4091L50.9331 28.2607ZM47.2298 28.4369L47.0833 28.3008L41.2009 34.6313L41.3474 34.7675L41.4939 34.9036L47.3763 28.5731L47.2298 28.4369ZM41.3474 34.7675L41.5456 34.7407C41.293 32.8717 39.6939 31.4755 37.8013 31.4729L37.801 31.6729L37.8007 31.8729C39.4943 31.8752 40.9235 33.1244 41.1492 34.7943L41.3474 34.7675ZM37.801 31.6729V31.4729H27.919V31.6729V31.8729H37.801V31.6729ZM27.919 31.6729L28.0187 31.4995L26.9005 30.8568L26.8008 31.0302L26.7011 31.2036L27.8193 31.8463L27.919 31.6729ZM26.8008 31.0302L26.9024 30.8579C25.6681 30.1296 24.2575 29.7528 22.8239 29.768L22.8261 29.968L22.8282 30.168C24.1889 30.1535 25.5278 30.5112 26.6992 31.2024L26.8008 31.0302ZM22.8261 29.968V29.768H18.6969V29.968V30.168H22.8261V29.968ZM18.6969 29.968L18.6983 29.768C16.5353 29.7528 14.4587 30.6078 12.9389 32.1426L13.081 32.2834L13.2231 32.4241C14.6669 30.9661 16.6398 30.1535 18.6955 30.168L18.6969 29.968ZM13.081 32.2834L12.9416 32.14L7.62703 37.3092L7.76647 37.4525L7.90592 37.5959L13.2205 32.4267L13.081 32.2834ZM7.76647 37.4525L7.90764 37.3109L6.55534 35.9633L6.41417 36.105L6.273 36.2467L7.6253 37.5942L7.76647 37.4525ZM6.41417 36.105V35.905H6.41168V36.105V36.305H6.41417V36.105ZM6.41168 36.105L6.5543 35.9648C6.39595 35.8037 6.17966 35.7164 5.95593 35.7164V35.9164V36.1164C6.07589 36.1164 6.18832 36.1631 6.26905 36.2452L6.41168 36.105ZM5.95593 35.9164V35.7164C5.73391 35.7164 5.5187 35.8042 5.35902 35.9633L5.50019 36.105L5.64136 36.2467C5.72573 36.1626 5.83927 36.1164 5.95593 36.1164V35.9164ZM5.50019 36.105L5.35902 35.9633L1.0481 40.259L1.18928 40.4007L1.33045 40.5424L5.64136 36.2467L5.50019 36.105ZM1.18928 40.4007L1.0481 40.259C0.8881 40.4184 0.8 40.6333 0.8 40.8573H1H1.2C1.2 40.7388 1.24638 40.6261 1.33045 40.5424L1.18928 40.4007ZM1 40.8573H0.8C0.8 41.0792 0.888389 41.294 1.04811 41.4531L1.18928 41.3114L1.33044 41.1698C1.2461 41.0857 1.2 40.9729 1.2 40.8573H1ZM1.18928 41.3114L1.0481 41.4531L14.596 54.9531L14.7372 54.8114L14.8784 54.6697L1.33045 41.1698L1.18928 41.3114ZM14.7372 54.8114L14.596 54.9531C14.7554 55.1119 14.968 55.2 15.1929 55.2V55V54.8C15.0742 54.8 14.963 54.7541 14.8784 54.6697L14.7372 54.8114ZM15.1929 55V55.2C15.4167 55.2 15.633 55.1127 15.7913 54.9516L15.6487 54.8114L15.5061 54.6712C15.4253 54.7533 15.3129 54.8 15.1929 54.8V55ZM15.6487 54.8114L15.7898 54.9531L20.1032 50.6549L19.9621 50.5133L19.8209 50.3716L15.5075 54.6697L15.6487 54.8114ZM19.9621 50.5133H19.7621V50.5157H19.9621H20.1621V50.5133H19.9621ZM19.9621 50.5157L20.1047 50.656C20.2596 50.4984 20.3514 50.2848 20.3514 50.0591H20.1514H19.9514C19.9514 50.1759 19.9037 50.2899 19.8195 50.3755L19.9621 50.5157ZM20.1514 50.0591H20.3514C20.3514 49.8355 20.2593 49.622 20.1047 49.4648L19.9621 49.605L19.8195 49.7452C19.904 49.8312 19.9514 49.9453 19.9514 50.0591H20.1514ZM19.9621 49.605L20.1032 49.4633L18.7235 48.0885L18.5824 48.2302L18.4412 48.3718L19.8209 49.7467L19.9621 49.605ZM18.5824 48.2302L18.7328 48.3619L19.5023 47.4835L19.3519 47.3517L19.2014 47.2199L18.4319 48.0984L18.5824 48.2302ZM19.3519 47.3517L19.5049 47.4804C20.1234 46.745 21.0444 46.3269 22.0103 46.3456L22.0142 46.1456L22.018 45.9457C20.9317 45.9246 19.8952 46.3949 19.1988 47.2229L19.3519 47.3517ZM22.0142 46.1456V46.3456H36.9417V46.1456V45.9456H22.0142V46.1456ZM36.9417 46.1456L36.9419 46.3456C39.7366 46.3431 42.3509 44.976 43.9375 42.6835L43.7731 42.5696L43.6086 42.4558C42.097 44.64 39.6057 45.9432 36.9415 45.9456L36.9417 46.1456ZM43.7731 42.5696L43.9348 42.6873L51.6523 32.0837L51.4906 31.966L51.3289 31.8483L43.6114 42.4519L43.7731 42.5696ZM51.4906 31.966L51.6525 32.0834C52.5734 30.8136 52.3058 29.0449 51.0534 28.101L50.9331 28.2607L50.8127 28.4204C51.8914 29.2335 52.1212 30.7558 51.3287 31.8485L51.4906 31.966ZM15.1927 53.4488L15.3339 53.3071L2.69766 40.7156L2.55649 40.8573L2.41532 40.999L15.0515 53.5905L15.1927 53.4488ZM2.55649 40.8573L2.69766 40.999L6.09707 37.6116L5.9559 37.4699L5.81473 37.3282L2.41532 40.7156L2.55649 40.8573ZM5.9559 37.4699L5.81473 37.6116L18.4509 50.2031L18.5921 50.0614L18.7333 49.9197L6.09707 37.3282L5.9559 37.4699ZM18.5921 50.0614L18.4509 49.9197L15.0515 53.3071L15.1927 53.4488L15.3339 53.5905L18.7333 50.2031L18.5921 50.0614ZM50.4472 31.211L50.2855 31.0933L42.568 41.697L42.7297 41.8147L42.8914 41.9324L50.6089 31.3287L50.4472 31.211ZM42.7297 41.8147L42.5643 41.7023C41.3017 43.5604 39.195 44.6693 36.9428 44.6596L36.942 44.8596L36.9411 45.0596C39.3261 45.0698 41.5576 43.8956 42.8951 41.9271L42.7297 41.8147ZM36.942 44.8596V44.6596H22.0144V44.8596V45.0596H36.942V44.8596ZM22.0144 44.8596L22.0169 44.6597C20.5607 44.6416 19.1689 45.2701 18.2261 46.3778L18.3784 46.5075L18.5307 46.6371C19.3959 45.6206 20.6739 45.043 22.0119 45.0596L22.0144 44.8596ZM18.3784 46.5075L18.2279 46.3758L17.5181 47.1873L17.6686 47.3189L17.8192 47.4506L18.5289 46.6391L18.3784 46.5075ZM17.6686 47.3189L17.8098 47.1772L8.81906 38.2209L8.67791 38.3626L8.53676 38.5043L17.5275 47.4606L17.6686 47.3189ZM8.67791 38.3626L8.81739 38.5059L14.1195 33.3466L13.98 33.2033L13.8405 33.06L8.53844 38.2192L8.67791 38.3626ZM13.98 33.2033V33.4033H13.9825V33.2033V33.0033H13.98V33.2033ZM13.9825 33.2033L14.1256 33.343C15.325 32.1142 16.9758 31.4335 18.6946 31.4527L18.6969 31.2528L18.6991 31.0528C16.8716 31.0323 15.1155 31.7561 13.8394 33.0636L13.9825 33.2033ZM18.6969 31.2528V31.4528H22.826V31.2528V31.0528H18.6969V31.2528ZM22.826 31.2528L22.829 31.4527C23.9625 31.4359 25.0792 31.7339 26.0536 32.3131L26.1557 32.1412L26.2579 31.9692C25.22 31.3523 24.0305 31.0349 22.823 31.0528L22.826 31.2528ZM26.1557 32.1412L26.056 32.3145L27.3236 33.0441L27.4234 32.8707L27.5231 32.6974L26.2555 31.9678L26.1557 32.1412ZM27.4234 32.8707L27.3221 33.0432C27.4505 33.1187 27.5977 33.1576 27.7446 33.1576V32.9576V32.7576C27.6674 32.7576 27.5905 32.7369 27.5247 32.6983L27.4234 32.8707ZM27.7446 32.9576V33.1576H37.8007V32.9576V32.7576H27.7446V32.9576ZM37.8007 32.9576L37.8013 33.1576C38.6238 33.1553 39.369 33.6376 39.7053 34.3847L39.8877 34.3026L40.07 34.2205C39.6691 33.3298 38.7808 32.7549 37.8002 32.7576L37.8007 32.9576ZM39.8877 34.3026L39.7052 34.3845C40.0412 35.1334 39.9029 36.0068 39.3529 36.6182L39.5016 36.752L39.6503 36.8857C40.3057 36.1571 40.4713 35.1148 40.0701 34.2207L39.8877 34.3026ZM39.5016 36.752L39.3526 36.6186C38.957 37.0604 38.3934 37.3138 37.8007 37.3138V37.5138V37.7138C38.508 37.7138 39.1796 37.4114 39.6506 36.8854L39.5016 36.752ZM37.8007 37.5138V37.3138H29.2288V37.5138V37.7138H37.8007V37.5138ZM29.2288 37.5138L29.2274 37.3138C28.7634 37.3171 28.3838 37.6923 28.3838 38.1566H28.5838H28.7838C28.7838 37.9161 28.982 37.7156 29.2302 37.7138L29.2288 37.5138ZM28.5838 38.1566H28.3838C28.3838 38.6226 28.7629 38.9993 29.2288 38.9993V38.7993V38.5993C28.9825 38.5993 28.7838 38.4003 28.7838 38.1566H28.5838ZM29.2288 38.7993V38.9993H37.8007V38.7993V38.5993H29.2288V38.7993ZM37.8007 38.7993V38.9993C38.8683 38.9993 39.8887 38.546 40.6041 37.7519L40.4555 37.618L40.3069 37.4842C39.6675 38.1939 38.7552 38.5993 37.8007 38.5993V38.7993ZM40.4555 37.618L40.5966 37.7597L40.5991 37.7572L40.458 37.6155L40.3168 37.4739L40.3143 37.4763L40.4555 37.618ZM40.458 37.6155L40.6045 37.7517L48.322 29.4433L48.1755 29.3072L48.029 29.1711L40.3114 37.4794L40.458 37.6155ZM48.1755 29.3072H47.9755V29.3097H48.1755H48.3755V29.3072H48.1755ZM48.1755 29.3097L48.3233 29.4444C48.5328 29.2146 48.8277 29.0809 49.1386 29.0703L49.1318 28.8704L49.125 28.6705C48.7087 28.6847 48.3113 28.8638 48.0277 29.1749L48.1755 29.3097ZM49.1318 28.8704L49.1372 29.0703C49.4492 29.0619 49.7509 29.1803 49.974 29.3963L50.1131 29.2526L50.2522 29.1089C49.9522 28.8186 49.5466 28.6591 49.1264 28.6705L49.1318 28.8704ZM50.1131 29.2526L49.9987 29.4167C50.2613 29.5996 50.4404 29.8802 50.4936 30.1965L50.6908 30.1633L50.8881 30.1301C50.8168 29.7069 50.5774 29.3324 50.2274 29.0885L50.1131 29.2526ZM50.6908 30.1633L50.4937 30.1968C50.547 30.5114 50.4723 30.8342 50.2848 31.0933L50.4468 31.2106L50.6088 31.3278C50.8596 30.9814 50.9592 30.5499 50.888 30.1299L50.6908 30.1633ZM50.4468 31.2106L50.3034 31.35L50.3038 31.3504L50.4472 31.211L50.5906 31.0716L50.5902 31.0711L50.4468 31.2106ZM32.3868 29.2977V29.4977C36.205 29.4977 39.8668 27.9878 42.5668 25.2951L42.4256 25.1534L42.2844 25.0118C39.6596 27.6296 36.0995 29.0977 32.3868 29.0977V29.2977ZM42.4256 25.1534L42.5667 25.2952C45.2691 22.6048 46.7846 18.9555 46.7846 15.1501H46.5846H46.3846C46.3846 18.8491 44.9116 22.3964 42.2845 25.0117L42.4256 25.1534ZM46.5846 15.1501H46.7846C46.7846 11.3448 45.2691 7.69305 42.5667 5.00253L42.4256 5.14427L42.2845 5.286C44.9115 7.90144 46.3846 11.4511 46.3846 15.1501H46.5846ZM42.4256 5.14427L42.5668 5.0026C39.867 2.31233 36.2051 0.8 32.3868 0.8V1V1.2C36.0994 1.2 39.6597 2.67049 42.2844 5.28594L42.4256 5.14427ZM32.3868 1V0.8C28.5659 0.8 24.9042 2.31239 22.2042 5.00259L22.3454 5.14427L22.4865 5.28594C25.1114 2.67056 28.6716 1.2 32.3868 1.2V1ZM22.3454 5.14427L22.2042 5.0026C19.5043 7.69291 17.9864 11.3447 17.9864 15.1501H18.1864H18.3864C18.3864 11.4512 19.8619 7.90134 22.4865 5.28594L22.3454 5.14427ZM18.1864 15.1501L17.9864 15.1503C17.9889 18.9533 19.5095 22.6022 22.2092 25.2926L22.3503 25.1509L22.4915 25.0092C19.8668 22.3936 18.3888 18.8464 18.3864 15.15L18.1864 15.1501ZM22.3503 25.1509L22.2092 25.2926C24.9089 27.9829 28.5684 29.4952 32.3866 29.4977L32.3868 29.2977L32.3869 29.0977C28.6742 29.0953 25.1162 27.6248 22.4915 25.0092L22.3503 25.1509ZM32.3868 28.0123L32.3865 27.8123C30.3686 27.8147 28.3828 27.3383 26.5908 26.4174L26.4994 26.5952L26.408 26.7731C28.257 27.7234 30.3057 28.2148 32.387 28.2123L32.3868 28.0123ZM26.4994 26.5952L26.6724 26.6955L29.7531 21.3799L29.58 21.2796L29.407 21.1793L26.3263 26.495L26.4994 26.5952ZM29.58 21.2796L29.4971 21.4616C31.5432 22.3942 33.9173 22.2817 35.8684 21.1602L35.7687 20.9868L35.669 20.8134C33.8297 21.8707 31.5916 21.9766 29.663 21.0976L29.58 21.2796ZM35.7687 20.9868L35.8684 21.1602C37.8197 20.0386 39.1045 18.0454 39.3174 15.8117L39.1183 15.7928L38.9192 15.7738C38.7187 17.878 37.5082 19.7562 35.669 20.8134L35.7687 20.9868ZM39.1183 15.7928V15.9928H45.2797V15.7928V15.5928H39.1183V15.7928ZM45.2797 15.7928L45.0799 15.7825C44.9132 19.0242 43.5035 22.0828 41.1401 24.3205L41.2776 24.4658L41.4151 24.611C43.8531 22.3026 45.3074 19.1475 45.4794 15.803L45.2797 15.7928ZM41.2776 24.4658L41.14 24.3206C38.7788 26.5586 35.6451 27.8098 32.3866 27.8123L32.3868 28.0123L32.3869 28.2123C35.7476 28.2097 38.9798 26.9193 41.4151 24.6109L41.2776 24.4658ZM32.3868 9.6955V9.8955C34.5179 9.8955 36.442 11.1749 37.2576 13.1397L37.4423 13.0631L37.627 12.9864C36.7492 10.8714 34.6787 9.4955 32.3868 9.4955V9.6955ZM37.4423 13.0631L37.2576 13.1398C38.0732 15.1022 37.6224 17.3611 36.1156 18.865L36.2569 19.0065L36.3982 19.1481C38.0194 17.53 38.5049 15.0987 37.627 12.9863L37.4423 13.0631ZM36.2569 19.0065L36.1158 18.8648C34.6066 20.3663 32.3388 20.816 30.366 20.0029L30.2898 20.1878L30.2136 20.3727C32.3351 21.2471 34.7743 20.7637 36.3979 19.1483L36.2569 19.0065ZM30.2898 20.1878L30.3661 20.0029C28.3961 19.19 27.1128 17.275 27.1128 15.1501H26.9128H26.7128C26.7128 17.4376 28.0943 19.4982 30.2135 20.3727L30.2898 20.1878ZM26.9128 15.1501L27.1128 15.1503C27.1152 12.2486 29.4733 9.89789 32.3869 9.8955L32.3868 9.6955L32.3866 9.4955C29.2536 9.49807 26.7153 12.0263 26.7128 15.15L26.9128 15.1501ZM45.2799 14.5073V14.3073H39.1186V14.5073V14.7073H45.2799V14.5073ZM39.1186 14.5073L39.3176 14.4879C38.9945 11.1786 36.3686 8.5626 33.0513 8.24072L33.032 8.43978L33.0126 8.63885C36.1406 8.94235 38.6151 11.4087 38.9195 14.5268L39.1186 14.5073ZM33.032 8.43978H33.232V2.30273H33.032H32.832V8.43978H33.032ZM33.032 2.30273L33.0219 2.50248C36.1677 2.66129 39.1419 3.98067 41.3683 6.19911L41.5094 6.05744L41.6506 5.91576C39.3542 3.62757 36.2866 2.26679 33.042 2.10299L33.032 2.30273ZM41.5094 6.05744L41.3683 6.19911C43.597 8.41995 44.9183 11.3832 45.0802 14.5177L45.2799 14.5073L45.4796 14.497C45.3127 11.2634 43.9495 8.20652 41.6506 5.91577L41.5094 6.05744ZM31.7396 2.30273H31.5396V8.44226H31.7396H31.9396V2.30273H31.7396ZM31.7396 8.44226H31.9396V8.43978H31.7396H31.5396V8.44226H31.7396ZM31.7396 8.43978L31.7206 8.24068C28.8289 8.51658 26.4106 10.5527 25.6591 13.3511L25.8523 13.403L26.0454 13.4549C26.7534 10.8186 29.0321 8.89901 31.7586 8.63888L31.7396 8.43978ZM25.8523 13.403L25.6591 13.3511C24.9077 16.1495 25.9798 19.1188 28.3466 20.7977L28.4623 20.6345L28.578 20.4714C26.3474 18.8892 25.3375 16.0912 26.0454 13.4549L25.8523 13.403ZM28.4623 20.6345L28.2892 20.5343L25.2086 25.8499L25.3816 25.9502L25.5547 26.0504L28.6353 20.7348L28.4623 20.6345ZM25.3816 25.9502L25.4898 25.782C22.4594 23.8323 20.4024 20.6881 19.8337 17.1388L19.6362 17.1704L19.4387 17.2021C20.0255 20.8639 22.1476 24.1073 25.2734 26.1184L25.3816 25.9502ZM19.6362 17.1704L19.8337 17.1389C19.2674 13.5869 20.2407 9.96386 22.5158 7.17145L22.3607 7.04512L22.2057 6.91879C19.8586 9.79954 18.8545 13.5374 19.4387 17.2019L19.6362 17.1704ZM22.3607 7.04512L22.5158 7.17137C24.7886 4.37898 28.1451 2.68081 31.7495 2.50249L31.7396 2.30273L31.7298 2.10298C28.0123 2.2869 24.5501 4.03836 22.2056 6.91887L22.3607 7.04512ZM29.8718 16.5523H30.0718C30.0718 16.3086 30.2705 16.1096 30.5168 16.1096V15.9096V15.7096C30.0509 15.7096 29.6718 16.0863 29.6718 16.5523H29.8718ZM30.5168 15.9096V16.1096C30.7619 16.1096 30.9601 16.3076 30.9618 16.5537L31.1618 16.5523L31.3618 16.5509C31.3586 16.0873 30.984 15.7096 30.5168 15.7096V15.9096ZM31.1618 16.5523L30.9671 16.5978C31.1203 17.2548 31.7096 17.7201 32.3871 17.7201V17.5201V17.3201C31.8941 17.3201 31.4673 16.9815 31.3566 16.5069L31.1618 16.5523ZM32.3871 17.5201V17.7201C33.0624 17.7201 33.6515 17.2545 33.8047 16.5978L33.61 16.5523L33.4152 16.5069C33.3044 16.9817 32.8774 17.3201 32.3871 17.3201V17.5201ZM33.61 16.5523H33.81C33.81 16.3893 33.7927 16.2388 33.7384 16.1038C33.6821 15.9639 33.5912 15.8532 33.4648 15.7635C33.2299 15.5969 32.861 15.4987 32.3503 15.3867L32.3075 15.5821L32.2646 15.7774C32.795 15.8937 33.0773 15.9791 33.2334 16.0898C33.3025 16.1388 33.342 16.1902 33.3673 16.2531C33.3946 16.3209 33.41 16.4138 33.41 16.5523H33.61ZM32.3075 15.5821L32.3502 15.3867C31.9068 15.2897 31.3961 15.1754 30.9932 14.9079C30.6071 14.6516 30.3134 14.25 30.3134 13.5397H30.1134H29.9134C29.9134 14.3904 30.2796 14.9144 30.772 15.2412C31.2476 15.5569 31.834 15.6833 32.2647 15.7774L32.3075 15.5821ZM30.1134 13.5397L30.3133 13.5471C30.3448 12.6924 30.9482 11.9651 31.7842 11.7743L31.7396 11.5793L31.6951 11.3843C30.6832 11.6153 29.9517 12.496 29.9135 13.5324L30.1134 13.5397ZM31.7396 11.5793H31.9396V11.1375H31.7396H31.5396V11.5793H31.7396ZM31.7396 11.1375H31.9396C31.9396 11.0207 31.9865 10.9067 32.0686 10.8265L31.9289 10.6834L31.7892 10.5403C31.6273 10.6984 31.5396 10.9169 31.5396 11.1375H31.7396ZM31.9289 10.6834L32.0701 10.8251C32.1542 10.7413 32.2676 10.6948 32.3872 10.6948V10.4948V10.2948C32.163 10.2948 31.9477 10.3823 31.7878 10.5417L31.9289 10.6834ZM32.3872 10.4948V10.6948C32.5038 10.6948 32.6174 10.741 32.7017 10.8251L32.8429 10.6834L32.9841 10.5417C32.8244 10.3826 32.6092 10.2948 32.3872 10.2948V10.4948ZM32.8429 10.6834L32.7032 10.8265C32.7853 10.9067 32.8322 11.0207 32.8322 11.1375H33.0322H33.2322C33.2322 10.9169 33.1446 10.6984 32.9826 10.5403L32.8429 10.6834ZM33.0322 11.1375H32.8322V11.5793H33.0322H33.2322V11.1375H33.0322ZM33.0322 11.5793L32.9877 11.7743C33.8236 11.9651 34.427 12.6925 34.4586 13.5471L34.6584 13.5397L34.8583 13.5323C34.8201 12.4961 34.0886 11.6153 33.0767 11.3843L33.0322 11.5793ZM34.6584 13.5397L34.4584 13.5383C34.4567 13.7815 34.259 13.98 34.0134 13.98V14.18V14.38C34.4801 14.38 34.8552 14.0028 34.8584 13.5411L34.6584 13.5397ZM34.0134 14.18V13.98C33.7666 13.98 33.5684 13.7805 33.5684 13.5397H33.3684H33.1684C33.1684 14.0037 33.548 14.38 34.0134 14.38V14.18ZM33.3684 13.5397L33.5621 13.49C33.4247 12.9543 32.9386 12.5804 32.3872 12.5804V12.7804V12.9804C32.7572 12.9804 33.083 13.2318 33.1747 13.5894L33.3684 13.5397ZM32.3872 12.7804V12.5804C31.8328 12.5804 31.35 12.9546 31.21 13.489L31.4034 13.5397L31.5969 13.5904C31.691 13.2315 32.0151 12.9804 32.3872 12.9804V12.7804ZM31.4034 13.5397H31.2034C31.2034 13.6623 31.2149 13.7846 31.2621 13.8979C31.3116 14.017 31.3935 14.11 31.5065 14.1852C31.6147 14.2572 31.7519 14.3133 31.9167 14.3645C32.0828 14.4161 32.2888 14.4662 32.5409 14.5217L32.5839 14.3264L32.6269 14.1311C32.3772 14.0761 32.1847 14.0289 32.0354 13.9825C31.8847 13.9357 31.7896 13.8931 31.7281 13.8522C31.6714 13.8144 31.6464 13.7803 31.6314 13.7443C31.614 13.7025 31.6034 13.6417 31.6034 13.5397H31.4034ZM32.5839 14.3264L32.5408 14.5217C33.0082 14.6249 33.5481 14.7459 33.9748 15.037C34.3846 15.3165 34.7 15.7605 34.7 16.5524H34.9H35.1C35.1 15.627 34.7181 15.0598 34.2002 14.7065C33.6992 14.3648 33.0811 14.2314 32.627 14.1311L32.5839 14.3264ZM34.9 16.5524L34.7002 16.5445C34.6615 17.5213 33.9564 18.3443 32.9938 18.5325L33.0322 18.7288L33.0706 18.9251C34.2149 18.7014 35.0538 17.7227 35.0998 16.5603L34.9 16.5524ZM33.0322 18.7288H32.8322V19.1606H33.0322H33.2322V18.7288H33.0322ZM33.0322 19.1606H32.8322C32.8322 19.2791 32.7858 19.3918 32.7017 19.4755L32.8429 19.6172L32.9841 19.7589C33.1441 19.5994 33.2322 19.3846 33.2322 19.1606H33.0322ZM32.8429 19.6172L32.7017 19.4755C32.6174 19.5596 32.5038 19.6058 32.3872 19.6058V19.8058V20.0058C32.6092 20.0058 32.8244 19.918 32.9841 19.7589L32.8429 19.6172ZM32.3872 19.8058V19.6058C32.2676 19.6058 32.1542 19.5593 32.0701 19.4755L31.9289 19.6172L31.7878 19.7589C31.9477 19.9183 32.163 20.0058 32.3872 20.0058V19.8058ZM31.9289 19.6172L32.0701 19.4755C31.986 19.3918 31.9396 19.2791 31.9396 19.1606H31.7396H31.5396C31.5396 19.3845 31.6277 19.5994 31.7878 19.7589L31.9289 19.6172ZM31.7396 19.1606H31.9396V18.7288H31.7396H31.5396V19.1606H31.7396ZM31.7396 18.7288L31.778 18.5325C30.8154 18.3443 30.1103 17.5213 30.0717 16.5444L29.8718 16.5523L29.672 16.5603C29.718 17.7226 30.557 18.7013 31.7013 18.9251L31.7396 18.7288Z" fill="black" mask="url(#path-1-outside-1_1448_443)"/>
</svg>
