<svg width="20" height="25" viewBox="0 0 20 25" fill="none" xmlns="http://www.w3.org/2000/svg">
<path d="M10 0C7.34784 0 4.8043 1.05357 2.92893 2.92893C1.05357 4.8043 0 7.34784 0 10C0 16.75 8.8125 24.375 9.1875 24.7C9.41392 24.8937 9.70206 25.0001 10 25.0001C10.2979 25.0001 10.5861 24.8937 10.8125 24.7C11.25 24.375 20 16.75 20 10C20 7.34784 18.9464 4.8043 17.0711 2.92893C15.1957 1.05357 12.6522 0 10 0ZM10 22.0625C7.3375 19.5625 2.5 14.175 2.5 10C2.5 8.01088 3.29018 6.10322 4.6967 4.6967C6.10322 3.29018 8.01088 2.5 10 2.5C11.9891 2.5 13.8968 3.29018 15.3033 4.6967C16.7098 6.10322 17.5 8.01088 17.5 10C17.5 14.175 12.6625 19.575 10 22.0625ZM10 5C9.01109 5 8.0444 5.29324 7.22215 5.84265C6.3999 6.39206 5.75904 7.17295 5.3806 8.08658C5.00216 9.00021 4.90315 10.0055 5.09607 10.9755C5.289 11.9454 5.7652 12.8363 6.46447 13.5355C7.16373 14.2348 8.05464 14.711 9.02455 14.9039C9.99445 15.0969 10.9998 14.9978 11.9134 14.6194C12.827 14.241 13.6079 13.6001 14.1573 12.7779C14.7068 11.9556 15 10.9889 15 10C15 8.67392 14.4732 7.40215 13.5355 6.46447C12.5979 5.52678 11.3261 5 10 5ZM10 12.5C9.50555 12.5 9.0222 12.3534 8.61107 12.0787C8.19995 11.804 7.87952 11.4135 7.6903 10.9567C7.50108 10.4999 7.45157 9.99723 7.54804 9.51227C7.6445 9.02732 7.8826 8.58186 8.23223 8.23223C8.58186 7.8826 9.02732 7.6445 9.51227 7.54804C9.99723 7.45157 10.4999 7.50108 10.9567 7.6903C11.4135 7.87952 11.804 8.19995 12.0787 8.61107C12.3534 9.0222 12.5 9.50555 12.5 10C12.5 10.663 12.2366 11.2989 11.7678 11.7678C11.2989 12.2366 10.663 12.5 10 12.5Z" fill="black"/>
</svg>
