<svg width="19" height="14" viewBox="0 0 19 14" fill="none" xmlns="http://www.w3.org/2000/svg">
<path fill-rule="evenodd" clip-rule="evenodd" d="M0 1.00027C0 0.448107 0.473024 0 1.05589 0H17.9441C18.527 0 19 0.448107 19 1.00027C19 1.55244 18.527 2.00055 17.9441 2.00055H1.05589C0.473024 2.00055 0 1.55244 0 1.00027ZM0 7C0 6.44783 0.473024 5.99973 1.05589 5.99973H17.9441C18.527 5.99973 19 6.44783 19 7C19 7.55217 18.527 8.00027 17.9441 8.00027H1.05589C0.473024 8.00027 0 7.55217 0 7ZM1.05589 11.9995C0.473024 11.9995 0 12.4476 0 12.9997C0 13.5519 0.473024 14 1.05589 14H17.9441C18.527 14 19 13.5519 19 12.9997C19 12.4476 18.527 11.9995 17.9441 11.9995H1.05589Z" fill="white"/>
</svg>
