<svg width="35" height="35" viewBox="0 0 35 35" fill="none" xmlns="http://www.w3.org/2000/svg">
<path d="M22.4219 3.18164C23.9854 3.18164 25.2559 4.45324 25.2559 6.01562V28.9844C25.2559 30.5468 23.9854 31.8184 22.4219 31.8184H12.5781C11.0146 31.8184 9.74414 30.5468 9.74414 28.9844V6.01562L9.75781 5.73535C9.82291 5.08686 10.1103 4.47758 10.5752 4.0127C11.1065 3.48136 11.8267 3.18254 12.5781 3.18164H22.4219ZM11.0371 28.9844C11.0371 29.8337 11.7288 30.5254 12.5781 30.5254H22.4219C23.2712 30.5254 23.9629 29.8337 23.9629 28.9844V26.3496H11.0371V28.9844ZM11.0371 25.0566H23.9629V8.84961H11.0371V25.0566ZM12.5781 4.47461C11.7288 4.47461 11.0371 5.16632 11.0371 6.01562V7.55664H23.9629V6.01562C23.9629 5.16632 23.2712 4.47461 22.4219 4.47461H12.5781Z" fill="black" stroke="black" stroke-width="0.2"/>
<path d="M18.5938 5.36914C18.7653 5.36914 18.9295 5.43728 19.0508 5.55859C19.1721 5.67991 19.2402 5.84406 19.2402 6.01562C19.2402 6.18719 19.1721 6.35134 19.0508 6.47266C18.9295 6.59397 18.7653 6.66211 18.5938 6.66211H16.4062C16.2347 6.66211 16.0705 6.59397 15.9492 6.47266C15.8279 6.35134 15.7598 6.18719 15.7598 6.01562C15.7598 5.84406 15.8279 5.67991 15.9492 5.55859C16.0705 5.43728 16.2347 5.36914 16.4062 5.36914H18.5938Z" fill="black" stroke="black" stroke-width="0.2"/>
<path d="M17.5 27.2441C18.1593 27.2441 18.6934 27.7782 18.6934 28.4375C18.6934 29.0968 18.1593 29.6309 17.5 29.6309C16.8407 29.6309 16.3066 29.0968 16.3066 28.4375C16.3066 27.7782 16.8407 27.2441 17.5 27.2441Z" fill="black" stroke="black" stroke-width="0.2"/>
<path d="M4.5459 8.94531C4.71138 8.90108 4.88774 8.92422 5.03613 9.00977C5.10974 9.05224 5.17487 9.10931 5.22656 9.17676C5.27815 9.24414 5.31604 9.32132 5.33789 9.40332C5.35972 9.48537 5.36478 9.57112 5.35352 9.65527C5.34227 9.73911 5.31388 9.81939 5.27148 9.89258L5.27246 9.89355C4.03651 12.0375 3.38086 14.4791 3.38086 16.9531C3.38086 19.4271 4.03651 21.8688 5.27246 24.0127H5.27148C5.31707 24.0854 5.34837 24.1662 5.3623 24.251C5.37644 24.337 5.37327 24.4251 5.35254 24.5098C5.33178 24.5945 5.29355 24.6743 5.24121 24.7441C5.18892 24.8138 5.12326 24.8724 5.04785 24.916C4.97232 24.9597 4.88836 24.9875 4.80176 24.998C4.71532 25.0085 4.62757 25.0018 4.54395 24.9775C4.46016 24.9532 4.38198 24.9117 4.31445 24.8564C4.2477 24.8018 4.19266 24.7344 4.15234 24.6582V24.6592C2.80056 22.3187 2.08789 19.6546 2.08789 16.9531C2.08789 14.2517 2.80056 11.5875 4.15234 9.24707C4.23813 9.0985 4.38019 8.98971 4.5459 8.94531ZM30.4541 8.94629C30.5361 8.96822 30.6133 9.00598 30.6807 9.05762C30.748 9.10925 30.8052 9.1736 30.8477 9.24707C32.1994 11.5875 32.9141 14.2516 32.9141 16.9531C32.9141 19.6546 32.2004 22.3187 30.8486 24.6592C30.7919 24.7575 30.7097 24.8397 30.6113 24.8965C30.5131 24.9531 30.4015 24.9814 30.2881 24.9814C30.1744 24.9821 30.0625 24.954 29.9639 24.8975C29.865 24.8408 29.7825 24.7588 29.7256 24.6602C29.683 24.5863 29.6554 24.5049 29.6445 24.4209L29.6396 24.3359C29.64 24.222 29.6709 24.11 29.7285 24.0117C30.9641 21.868 31.6191 19.4268 31.6191 16.9531C31.6191 14.4791 30.9635 12.0375 29.7275 9.89355C29.6852 9.82022 29.6576 9.73921 29.6465 9.65527C29.6354 9.57112 29.6412 9.48532 29.6631 9.40332C29.685 9.32132 29.7228 9.24413 29.7744 9.17676C29.826 9.1095 29.8905 9.05318 29.9639 9.01074C30.0374 8.96826 30.119 8.94081 30.2031 8.92969C30.2871 8.91862 30.3723 8.92445 30.4541 8.94629ZM27.6133 10.5859C27.6953 10.6079 27.7725 10.6465 27.8398 10.6982C27.907 10.7499 27.9636 10.8143 28.0059 10.8877C29.0689 12.7294 29.6309 14.8269 29.6309 16.9531C29.6309 18.9467 29.1372 20.9151 28.2002 22.6709L28.0068 23.0186C27.8876 23.2259 27.6698 23.3408 27.4463 23.3408C27.3327 23.3414 27.2207 23.3133 27.1221 23.2568C27.0233 23.2002 26.9417 23.1181 26.8848 23.0195C26.8421 22.9456 26.8146 22.8644 26.8037 22.7803L26.7979 22.6953C26.7982 22.6098 26.8157 22.5255 26.8486 22.4473L26.8867 22.3711C27.8358 20.7251 28.3379 18.8515 28.3379 16.9531C28.3379 15.0544 27.8361 13.1804 26.8867 11.5342C26.801 11.3858 26.7771 11.2095 26.8213 11.0439C26.8657 10.8782 26.9745 10.7362 27.123 10.6504C27.1965 10.608 27.2782 10.5804 27.3623 10.5693C27.4462 10.5584 27.5315 10.564 27.6133 10.5859ZM7.63867 10.5693C7.72261 10.5805 7.80369 10.6079 7.87695 10.6504L7.98047 10.7246C8.0122 10.7523 8.04154 10.7829 8.06738 10.8164C8.11924 10.8837 8.15667 10.9609 8.17871 11.043C8.20073 11.1252 8.20659 11.2116 8.19531 11.2959C8.18401 11.3801 8.15607 11.4617 8.11328 11.5352C7.16421 13.1812 6.66211 15.0547 6.66211 16.9531C6.66211 18.8518 7.16384 20.7259 8.11426 22.3721C8.15673 22.4456 8.1852 22.5271 8.19629 22.6113C8.20727 22.6952 8.20153 22.7806 8.17969 22.8623C8.1577 22.9444 8.1191 23.0215 8.06738 23.0889C8.01568 23.1562 7.95148 23.2134 7.87793 23.2559C7.80441 23.2983 7.72282 23.3258 7.63867 23.3369C7.55456 23.3479 7.46866 23.3423 7.38672 23.3203C7.30479 23.2983 7.22844 23.2596 7.16113 23.208C7.09374 23.1563 7.03662 23.0921 6.99414 23.0186C5.93108 21.1769 5.36914 19.0794 5.36914 16.9531C5.36914 14.8269 5.93109 12.7294 6.99414 10.8877L7.06738 10.7842C7.09518 10.7523 7.12649 10.7232 7.16016 10.6973C7.22742 10.6455 7.30475 10.6079 7.38672 10.5859C7.46868 10.564 7.55456 10.5582 7.63867 10.5693Z" fill="black" stroke="black" stroke-width="0.2"/>
</svg>
