<svg width="46" height="46" viewBox="0 0 46 46" fill="none" xmlns="http://www.w3.org/2000/svg">
<path d="M24.3784 15.2893L26.4192 17.3302L30.3041 13.4449M13.5527 15.3873H20.2246" stroke="black" stroke-width="2" stroke-miterlimit="10" stroke-linecap="round" stroke-linejoin="round"/>
<path d="M34.4573 15.3874H41.1766L36.5062 29.3879H18.2249L13.554 15.3874L11.6053 9.5462H4.63281" stroke="black" stroke-width="2" stroke-miterlimit="10" stroke-linecap="round" stroke-linejoin="round"/>
<path d="M21.4999 37.5383C22.8007 37.5383 23.8552 36.4838 23.8552 35.183C23.8552 33.8822 22.8007 32.8276 21.4999 32.8276C20.1991 32.8276 19.1445 33.8822 19.1445 35.183C19.1445 36.4838 20.1991 37.5383 21.4999 37.5383Z" stroke="black" stroke-width="2" stroke-miterlimit="10" stroke-linecap="round" stroke-linejoin="round"/>
<path d="M33.2313 37.5383C34.5321 37.5383 35.5867 36.4838 35.5867 35.183C35.5867 33.8822 34.5321 32.8276 33.2313 32.8276C31.9305 32.8276 30.876 33.8822 30.876 35.183C30.876 36.4838 31.9305 37.5383 33.2313 37.5383Z" stroke="black" stroke-width="2" stroke-miterlimit="10" stroke-linecap="round" stroke-linejoin="round"/>
<path d="M34.4573 15.3874C34.4573 19.3179 31.2712 22.504 27.3412 22.504C23.4107 22.504 20.2246 19.3179 20.2246 15.3874C20.2246 11.4573 23.4107 8.27124 27.3412 8.27124C31.2712 8.27124 34.4573 11.4573 34.4573 15.3874Z" stroke="black" stroke-width="2" stroke-miterlimit="10" stroke-linecap="round" stroke-linejoin="round"/>
</svg>
