<svg width="47" height="49" viewBox="0 0 47 49" fill="none" xmlns="http://www.w3.org/2000/svg">
<path d="M28.1195 49C27.5015 49 27 48.46 27 47.7945V40.3853C27 39.8783 27.2945 39.4247 27.7376 39.2519C29.7566 38.464 31.5933 37.1306 33.0511 35.397C33.465 34.9018 34.1736 34.8657 34.6313 35.3122C35.0905 35.7587 35.1254 36.5216 34.71 37.0152C33.1882 38.8265 31.3091 40.2636 29.2392 41.2069V47.7945C29.2392 48.46 28.7376 49 28.1195 49Z" fill="black"/>
<path d="M30.5 33C21.4016 33 14 25.5984 14 16.5001C14 7.40174 21.4016 0 30.5 0C39.5984 0 47 7.40159 47 16.4999C47 25.5983 39.5984 33 30.5 33ZM30.5 2.30231C22.6712 2.30231 16.3023 8.6712 16.3023 16.4999C16.3023 24.3286 22.6712 30.6975 30.5 30.6975C38.3288 30.6975 44.6977 24.3286 44.6977 16.4999C44.6977 8.6712 38.3289 2.30231 30.5 2.30231Z" fill="black"/>
<path d="M26.6309 23.0703C26.909 23.0703 27.1751 23.1835 27.3701 23.3838C27.5648 23.5838 27.6728 23.8542 27.6729 24.1348C27.6729 24.3441 27.6128 24.5497 27.499 24.7246C27.3852 24.8996 27.2222 25.0369 27.0312 25.1182C26.8403 25.1994 26.6298 25.2212 26.4268 25.1797C26.2236 25.1382 26.0379 25.0351 25.8926 24.8857C25.7473 24.7365 25.6482 24.5473 25.6084 24.3418C25.5686 24.1363 25.5898 23.9234 25.668 23.7295C25.7462 23.5356 25.8784 23.3686 26.0498 23.251C26.2212 23.1333 26.4236 23.0703 26.6309 23.0703ZM33.3672 23.0703C33.6451 23.0703 33.9105 23.1837 34.1055 23.3838C34.3002 23.5838 34.4091 23.8542 34.4092 24.1348C34.4092 24.3442 34.3482 24.5496 34.2344 24.7246C34.1205 24.8995 33.9585 25.0369 33.7676 25.1182C33.5766 25.1994 33.3662 25.2211 33.1631 25.1797C32.9599 25.1382 32.7733 25.0351 32.6279 24.8857C32.4829 24.7366 32.3845 24.5471 32.3447 24.3418C32.305 24.1364 32.3252 23.9233 32.4033 23.7295C32.4815 23.5355 32.6147 23.3686 32.7861 23.251C32.9576 23.1333 33.1599 23.0703 33.3672 23.0703ZM24.5381 8.7998C24.681 8.80221 24.8182 8.85447 24.9277 8.94629C25.0098 9.01515 25.0724 9.1034 25.1113 9.20215L25.1426 9.30371L25.1445 9.31348L25.3525 10.5645H37.5771C37.6717 10.5641 37.765 10.5856 37.8496 10.6279C37.9334 10.6698 38.0057 10.7312 38.0625 10.8057H38.0635C38.1219 10.8806 38.1626 10.9678 38.1836 11.0605C38.2046 11.1533 38.2057 11.2498 38.1855 11.3428L38.1846 11.3477L37.9893 11.3008L38.1836 11.3477L36.5 18.2666L36.499 18.2695C36.4643 18.4046 36.3874 18.5254 36.2783 18.6123C36.1691 18.6993 36.0342 18.7471 35.8945 18.748H26.5967L25.1719 21.7383H35.8936C36.0599 21.7384 36.2181 21.8067 36.334 21.9258C36.4498 22.0448 36.5137 22.2051 36.5137 22.3711C36.5136 22.537 36.4498 22.6975 36.334 22.8164C36.2181 22.9353 36.0597 23.0028 35.8936 23.0029H24.1553C24.0506 23.0028 23.9477 22.976 23.8564 22.9248C23.7651 22.8734 23.6874 22.7989 23.6318 22.71L23.6279 22.7031L23.624 22.6953C23.5765 22.6017 23.5518 22.4976 23.5518 22.3926C23.5518 22.2875 23.5765 22.1835 23.624 22.0898L25.5791 18.0547L23.9834 10.0645H22.4209C22.2546 10.0644 22.0964 9.99687 21.9805 9.87793C21.8647 9.75898 21.7999 9.59858 21.7998 9.43262C21.7998 9.26659 21.8646 9.10629 21.9805 8.9873C22.0965 8.86825 22.2546 8.79983 22.4209 8.7998H24.5381ZM26.7275 17.4834H35.4072L36.7676 11.8291H25.6035L26.7275 17.4834Z" fill="black" stroke="black" stroke-width="0.4"/>
<path d="M19.8185 43H12.9969C8.33986 43 4.55223 39.2404 4.55223 34.619V29.2921L0.693722 27.5558C0.375191 27.4122 0.136836 27.1359 0.0430134 26.8014C-0.050809 26.4662 0.0107571 26.1082 0.209102 25.8219L4.55223 19.5711V17.9036C4.55207 10.3334 9.27995 3.56798 16.3169 1.06904C16.9338 0.850624 17.6077 1.16755 17.8277 1.77832C18.0478 2.38755 17.7277 3.05865 17.1139 3.27707C11.0139 5.44384 6.91531 11.3214 6.91531 17.9036V19.936C6.91531 20.1735 6.84305 20.4064 6.70611 20.6017L2.95678 25.9989L6.22149 27.4679C6.64455 27.658 6.91531 28.0756 6.91531 28.536V34.6189C6.91531 37.947 9.64299 40.6544 12.9969 40.6544H19.8185C20.4707 40.6544 21 41.1797 21 41.8271C21 42.4745 20.4707 43 19.8185 43Z" fill="black"/>
<path d="M16 49C15.448 49 15 48.4541 15 47.7813V41.2187C15 40.5459 15.448 40 16 40C16.552 40 17 40.5459 17 41.2187V47.7813C17 48.4541 16.552 49 16 49Z" fill="black"/>
</svg>
