<svg width="42" height="42" viewBox="0 0 42 42" fill="none" xmlns="http://www.w3.org/2000/svg">
<path fill-rule="evenodd" clip-rule="evenodd" d="M0 20.8333C0 9.32708 9.32708 0 20.8333 0C32.3396 0 41.6667 9.32708 41.6667 20.8333C41.6667 32.3396 32.3396 41.6667 20.8333 41.6667C9.32708 41.6667 0 32.3396 0 20.8333ZM20.8333 4.16667C16.4131 4.16667 12.1738 5.92261 9.04822 9.04822C5.92261 12.1738 4.16667 16.4131 4.16667 20.8333C4.16667 25.2536 5.92261 29.4928 9.04822 32.6184C12.1738 35.7441 16.4131 37.5 20.8333 37.5C25.2536 37.5 29.4928 35.7441 32.6184 32.6184C35.7441 29.4928 37.5 25.2536 37.5 20.8333C37.5 16.4131 35.7441 12.1738 32.6184 9.04822C29.4928 5.92261 25.2536 4.16667 20.8333 4.16667Z" fill="#726969"/>
<path fill-rule="evenodd" clip-rule="evenodd" d="M22.9154 10.4166C22.9154 9.86405 22.6959 9.33415 22.3052 8.94345C21.9145 8.55275 21.3846 8.33325 20.832 8.33325C20.2795 8.33325 19.7496 8.55275 19.3589 8.94345C18.9682 9.33415 18.7487 9.86405 18.7487 10.4166V18.7499H10.4154C9.86283 18.7499 9.33293 18.9694 8.94223 19.3601C8.55153 19.7508 8.33203 20.2807 8.33203 20.8333C8.33203 21.3858 8.55153 21.9157 8.94223 22.3064C9.33293 22.6971 9.86283 22.9166 10.4154 22.9166H18.7487V31.2499C18.7487 31.8025 18.9682 32.3324 19.3589 32.7231C19.7496 33.1138 20.2795 33.3333 20.832 33.3333C21.3846 33.3333 21.9145 33.1138 22.3052 32.7231C22.6959 32.3324 22.9154 31.8025 22.9154 31.2499V22.9166H31.2487C31.8012 22.9166 32.3311 22.6971 32.7218 22.3064C33.1125 21.9157 33.332 21.3858 33.332 20.8333C33.332 20.2807 33.1125 19.7508 32.7218 19.3601C32.3311 18.9694 31.8012 18.7499 31.2487 18.7499H22.9154V10.4166Z" fill="#726969"/>
</svg>
