<svg width="44" height="44" viewBox="0 0 44 44" fill="none" xmlns="http://www.w3.org/2000/svg">
<path d="M8.14355 29.2256C8.26214 29.0121 8.53062 28.9353 8.74414 29.0538L13.3994 31.6387C13.6127 31.7573 13.6896 32.0269 13.5713 32.2403C13.4522 32.4545 13.1826 32.5304 12.9697 32.4122L8.31543 29.8262C8.10202 29.7076 8.02503 29.4391 8.14355 29.2256Z" fill="black" stroke="black" stroke-width="0.2"/>
<path d="M26.9072 9.04932C27.2312 8.79806 27.7012 9.03008 27.7012 9.43799V10.8276H34.7969C38.5144 10.8276 41.535 13.8346 41.5352 17.5659C41.5352 21.2814 38.5124 24.3042 34.7969 24.3042H33.7324V33.2427C33.7324 33.4214 33.6349 33.5865 33.4785 33.6733C26.4529 37.5657 23.1506 39.4138 21.5811 40.2876C20.7982 40.7234 20.4423 40.9193 20.2715 41.0044C20.1923 41.0438 20.1337 41.0702 20.084 41.0776C20.0498 41.0827 20.0232 41.0789 20.0039 41.0747L20.002 41.0737C19.9991 41.074 19.9963 41.0756 19.9932 41.0757C19.9748 41.0763 19.9584 41.0738 19.9453 41.0708C19.9223 41.0655 19.899 41.0559 19.8779 41.0464C19.8549 41.036 19.825 41.021 19.7852 41.0005C19.6258 40.9183 19.2783 40.7287 18.498 40.2964C16.935 39.4302 13.6246 37.5864 6.58008 33.6733C6.42375 33.5865 6.32621 33.4213 6.32617 33.2427V17.0962C6.32626 16.9182 6.42415 16.7557 6.5752 16.6694C6.63715 16.6343 19.5627 9.45299 19.79 9.32666C19.92 9.25448 20.0748 9.24532 20.2109 9.29932L20.2686 9.32666L23.9316 11.3608L26.9062 9.04932H26.9072ZM7.31152 32.9517L19.5371 39.7446V38.2739L7.31152 31.4819V32.9517ZM20.5215 38.3022V39.7446L32.7471 32.9526V31.5103L20.5215 38.3022ZM28.7783 20.1382V29.0229C28.7782 29.2144 28.6617 29.4016 28.4688 29.479C28.4403 29.4904 28.3959 29.5108 28.332 29.5142C28.2766 29.517 28.2107 29.5072 28.1221 29.4897C27.9491 29.4558 27.6269 29.3783 26.9834 29.2329L25.3604 31.1733C25.0911 31.4945 24.5605 31.3501 24.498 30.9292C24.497 30.9217 24.4962 30.915 24.4961 30.9136C24.496 30.911 24.4962 30.9081 24.4961 30.9058C24.4959 30.901 24.4952 30.8948 24.4951 30.8882C24.4949 30.8747 24.4953 30.8559 24.4951 30.8325C24.4947 30.7854 24.4935 30.7179 24.4932 30.6323C24.4925 30.4607 24.4926 30.2155 24.4922 29.9146C24.4914 29.3125 24.4913 28.486 24.4912 27.5776C24.491 25.871 24.4915 23.873 24.4912 22.519L20.5215 24.7251V37.1763L32.7471 30.3833V17.9331L28.7783 20.1382ZM7.31152 30.355L19.5371 37.1479V24.7251L7.31152 17.9331V30.355ZM12.7852 14.3442L25.2109 21.2466L25.2256 21.2544L25.2285 21.2573C25.2337 21.2604 25.24 21.2645 25.2471 21.269C25.2689 21.2831 25.2982 21.3034 25.3281 21.3325C25.3892 21.3919 25.4544 21.4857 25.4717 21.6206C25.4724 21.6261 25.4726 21.631 25.4727 21.6323V21.6606C25.4728 21.6743 25.4735 21.6937 25.4736 21.7183C25.4739 21.7679 25.4734 21.8398 25.4736 21.9312C25.474 22.114 25.4744 22.3758 25.4746 22.6938C25.4751 23.3298 25.4755 24.1931 25.4756 25.1118C25.4757 26.7083 25.4755 28.4723 25.4756 29.5015L26.4219 28.3716C26.5404 28.23 26.7276 28.1674 26.9072 28.2075L27.7939 28.4067V20.1382L15.0742 13.0718L12.7852 14.3442ZM7.83301 17.0962L20.0293 23.8716L23.9688 21.6831L11.7725 14.9067L7.83301 17.0962ZM24.0469 12.5171L26.7168 14.5913V13.7163C26.7168 13.4444 26.9371 13.2241 27.209 13.2241H34.7969C37.1913 13.2241 39.1395 15.1715 39.1396 17.5659C39.1396 19.9675 37.1963 21.9087 34.7969 21.9087H33.7324V23.3198H34.7969C37.9694 23.3198 40.5508 20.7383 40.5508 17.5659C40.5507 14.3912 37.9832 11.812 34.7969 11.812H27.209C26.9371 11.812 26.7168 11.5917 26.7168 11.3198V10.4429L24.0469 12.5171ZM33.4854 16.6704L33.54 16.7065C33.6616 16.7997 33.7323 16.9434 33.7324 17.0962V20.9243H34.7969C36.6541 20.9243 38.1553 19.4217 38.1553 17.5659C38.1552 15.7145 36.6483 14.2085 34.7969 14.2085H29.0537C30.4433 14.9805 33.4453 16.6475 33.4854 16.6704ZM16.0879 12.5093L28.2852 19.2847L32.2227 17.0972C31.5028 16.6948 30.1791 15.9519 27.7012 14.5806V15.5981C27.7012 16.0083 27.2283 16.2372 26.9062 15.9868L22.9443 12.9067C22.691 12.71 22.691 12.3264 22.9443 12.1294L23.0859 12.0181L20.0283 10.3198L16.0879 12.5093Z" fill="black" stroke="black" stroke-width="0.3"/>
</svg>
