<svg width="36" height="36" viewBox="0 0 36 36" fill="none" xmlns="http://www.w3.org/2000/svg">
<path d="M22.6982 5.55951C23.4065 5.59892 24.0546 5.78717 24.6514 6.29291C25.6294 7.12198 25.9048 8.18189 25.8984 9.26459C25.8921 10.3309 25.6091 11.4625 25.4512 12.4247C25.2612 13.583 25.2622 14.8116 25.6318 15.9111C25.6686 16.0205 25.7472 16.2035 25.7568 16.3818C25.7729 16.6785 25.5399 16.9325 25.2666 16.9794C25.1206 17.0045 24.9646 16.9714 24.8281 16.8661C24.6948 16.7632 24.5924 16.6009 24.5244 16.3857L24.5225 16.3808L24.374 15.8652L24.373 15.8613C23.9348 14.214 24.0791 13.0147 24.4209 11.3632C24.5951 10.5217 24.8078 9.66027 24.6982 8.85248C24.638 8.40834 24.4457 7.91373 24.1484 7.51654C23.8512 7.11949 23.4624 6.83632 23.0127 6.77338C22.451 6.69478 22.0547 6.75771 21.4766 6.77728L18.7959 6.8681C18.7216 6.87079 18.647 6.88 18.5605 6.89056C18.4772 6.90075 18.3823 6.91196 18.2852 6.91302H18.2832L15.0439 6.90912H15.0371C14.9655 6.90654 14.8965 6.89808 14.8359 6.89056C14.7731 6.88276 14.7196 6.87625 14.666 6.87299V6.87201L12.5449 6.78314C12.2878 6.78307 12.1373 6.7798 12.0391 6.78802C12.0311 6.78869 12.0238 6.79023 12.0176 6.79095C12.0178 6.82145 12.0195 6.86066 12.0225 6.91693C12.0292 7.04488 12.0372 7.22523 12.0176 7.46967C11.9151 8.74909 11.3967 10.3352 10.1025 11.0048C9.62228 11.2533 9.07018 11.3598 8.52441 11.4052C8.02727 11.4466 7.51946 11.4375 7.06445 11.4345C7.04629 11.4856 7.02847 11.5492 7.01367 11.6259C6.98793 11.7595 6.97096 11.9213 6.96191 12.1054C6.9438 12.474 6.95751 12.917 6.9873 13.3749C7.04755 14.3005 7.16745 15.2331 7.20996 15.7451C7.2821 16.6143 7.30345 17.5113 7.24707 18.3867V18.3925L6.96387 21.4521C6.89097 22.5386 6.93371 23.8616 7.17285 24.8896L7.27051 25.2304C7.50971 25.982 7.82034 26.4466 8.24121 26.749C8.72879 27.0992 9.39692 27.2549 10.3682 27.3329C11.1926 27.3991 12.0086 27.3888 12.8486 27.3876L14.457 27.3818L15.5547 27.3242C15.9246 27.3019 16.2989 27.2797 16.6699 27.2656L17.001 27.2343C17.1445 27.221 17.3147 27.2091 17.4785 27.2158C17.6381 27.2222 17.8145 27.2474 17.959 27.3222C18.1167 27.4039 18.2378 27.5478 18.248 27.7626C18.2565 27.9411 18.2045 28.0915 18.0986 28.206C17.9982 28.3146 17.8656 28.373 17.7422 28.4062C17.5048 28.4701 17.2113 28.4604 17.0576 28.4658L17.0586 28.4667L14.6875 28.579H14.6777L10.8633 28.5732H10.8545L10.8467 28.5722L10.2256 28.5185V28.5175C9.22314 28.4325 8.02074 28.2519 7.20605 27.4697C5.86693 26.1835 5.74874 24.163 5.75 22.5165C5.75028 22.1237 5.73994 21.7091 5.7666 21.3017L5.76758 21.2958L6.04297 18.3818L6.05371 17.6298L6.06055 16.8691C6.06121 16.6191 6.05713 16.3721 6.03711 16.1279L5.85352 14.1826C5.79047 13.5501 5.70589 12.7921 5.76172 12.0673C5.81769 11.3412 6.01641 10.6186 6.54297 10.0742L6.5498 10.0663L10.4238 6.46381L10.4297 6.45892C10.9734 5.98695 11.3503 5.73583 11.7773 5.62787C12.1949 5.52239 12.6446 5.56006 13.2988 5.60541L13.2979 5.60638L13.8164 5.62689L13.8223 5.62787C14.365 5.66618 14.8931 5.71344 15.4238 5.71576L18.9873 5.70795V5.70892C19.0443 5.70629 19.1022 5.69917 19.167 5.69135C19.2326 5.68343 19.3072 5.67421 19.3828 5.66986H19.3838L21.5576 5.55365L21.5684 5.55267V5.55365L22.3906 5.55072L22.6982 5.55951ZM8.14551 10.2128C8.47204 10.2023 8.78393 10.172 9.09863 10.0839C9.65603 9.92784 10.08 9.5321 10.3691 9.0224C10.5847 8.64239 10.7211 8.20484 10.7783 7.7724L8.14551 10.2128Z" fill="black" stroke="black" stroke-width="0.4"/>
<path d="M24.3936 17.4434C30.2259 17.324 33.3073 24.4043 29.2461 28.5635C28.0503 29.7881 26.4137 30.4546 24.7139 30.4747L24.7119 30.4756V30.4747C20.9914 30.4721 18.049 27.7041 18.0391 23.8965C18.03 20.4088 20.8705 17.4987 24.3936 17.4434ZM24.2324 18.6387L24.1973 18.6407L24.1982 18.6417C22.7762 18.7614 21.4345 19.3708 20.5107 20.4551C17.4003 24.1062 20.3647 29.6267 24.9258 29.2706L24.957 29.2676L24.9658 29.2667C27.5323 29.153 29.6152 27.0533 29.8672 24.5196C30.1888 21.2821 27.5178 18.4882 24.2324 18.6387ZM10.6621 21.0587C10.7447 21.063 10.8092 21.0665 10.8555 21.0665H16.3828L17.0068 21.0616H17.0078C17.2459 21.0604 17.4389 21.1129 17.5762 21.2227C17.7186 21.3367 17.7769 21.4934 17.7764 21.6436C17.7758 21.7883 17.7216 21.9277 17.6426 22.0342C17.5654 22.1381 17.4445 22.2359 17.292 22.254C17.0829 22.2786 16.8247 22.2588 16.6543 22.2589L10.9775 22.2579L10.1064 22.2589H10.0967L10.0879 22.2579C9.79616 22.2313 9.60031 22.0347 9.5498 21.7979C9.50016 21.5647 9.59413 21.3048 9.83398 21.1573L9.83594 21.1563L9.85938 21.1426C9.94056 21.0933 10.0391 21.0721 10.1221 21.0616C10.2107 21.0504 10.3072 21.0478 10.3984 21.0489C10.4904 21.0499 10.5825 21.0545 10.6621 21.0587ZM10.4697 18.4825H14.1143L18.4629 18.4805H18.4736L18.4844 18.4815C18.765 18.5108 18.9334 18.7198 18.9727 18.9434C19.011 19.1626 18.931 19.4141 18.7139 19.5655L18.6904 19.5811L18.6895 19.5801C18.5632 19.6665 18.4154 19.6834 18.3027 19.6856C18.2433 19.6868 18.1843 19.6843 18.1338 19.6817L18.001 19.6768H14.4404L10.5283 19.6797C10.4025 19.6802 10.212 19.6934 10.0498 19.6739C9.88196 19.6536 9.74793 19.5746 9.6582 19.459C9.57097 19.3466 9.53321 19.2097 9.53418 19.0801C9.53606 18.8298 9.69154 18.5358 10.0205 18.4903C10.1729 18.4693 10.3578 18.4823 10.4697 18.4825ZM21.6357 15.8848C21.9827 15.8948 22.1938 16.1775 22.2041 16.4542C22.2093 16.596 22.1632 16.7443 22.0547 16.8624C21.9456 16.981 21.7872 17.0549 21.5928 17.0743L21.582 17.0753H21.5723L11.2881 17.0762C10.9164 17.0765 10.4834 17.1029 10.0869 17.0772C9.90705 17.0655 9.75525 16.997 9.65332 16.878C9.5523 16.7599 9.51677 16.6107 9.53418 16.4688C9.56937 16.1823 9.81408 15.9297 10.1846 15.8917L10.1943 15.8907H10.2041L21.6299 15.8848H21.6357ZM21.665 13.3145C21.8093 13.3346 21.9321 13.3857 22.0254 13.4708C22.1531 13.5873 22.1992 13.744 22.1875 13.8917C22.1652 14.1705 21.9378 14.4485 21.6172 14.504L21.6006 14.5069H21.583L10.6445 14.4962C10.4805 14.4972 10.2723 14.5096 10.085 14.5001C9.7346 14.4821 9.52942 14.2012 9.53418 13.918C9.53931 13.6203 9.7642 13.3539 10.1592 13.3067L10.1709 13.3057H10.1836L21.5137 13.3047L21.665 13.3145ZM19.6787 10.6895C19.7794 10.6861 19.8965 10.6862 20.0068 10.709C20.119 10.7323 20.2408 10.7827 20.333 10.8907C20.4258 10.9995 20.4671 11.1417 20.4688 11.3057C20.47 11.4364 20.4398 11.5537 20.3721 11.6505C20.3045 11.7468 20.2115 11.8049 20.1201 11.8399C19.9496 11.9051 19.7426 11.9031 19.6064 11.9034H19.6055L18.8525 11.9024L13.0957 11.9014C13.0621 11.9014 13.0189 11.9029 12.9648 11.9053C12.913 11.9076 12.853 11.9108 12.793 11.9112C12.6851 11.9119 12.532 11.9068 12.416 11.8516C12.1438 11.7219 12.0599 11.4483 12.0977 11.2208C12.1342 11.0007 12.2946 10.7666 12.5684 10.7237L12.5762 10.7227L12.5957 10.7217C12.9684 10.6744 13.3947 10.7057 13.7314 10.7051H13.7324L19.4014 10.7003C19.4878 10.7 19.5664 10.6933 19.6787 10.6895Z" fill="black" stroke="black" stroke-width="0.4"/>
<path d="M28.0352 21.092C28.3526 21.0547 28.6052 21.1986 28.7012 21.4474C28.7917 21.6822 28.7221 21.96 28.5234 22.1584L28.5205 22.1613L24.5859 25.9338C24.5298 25.9871 24.4193 26.1092 24.29 26.173L24.2842 26.176L24.2617 26.1848L24.2627 26.1857C23.9408 26.3366 23.6371 26.2893 23.374 26.1857C23.1275 26.0886 22.871 25.919 22.6836 25.8176V25.8185L21.2002 25.0178L21.1934 25.0139V25.0129L21.0967 24.9562H21.0957C21.049 24.9285 20.9527 24.8754 20.8711 24.8146C20.7963 24.7588 20.6812 24.6588 20.6494 24.5139L20.6475 24.507L20.6445 24.4904L20.6328 24.3928C20.6226 24.1703 20.7327 23.9912 20.8955 23.8859C21.0714 23.7723 21.305 23.7448 21.5107 23.8137H21.5098C21.6234 23.8516 21.7308 23.9083 21.8252 23.9621C21.9269 24.0201 22.0044 24.0693 22.0898 24.1144H22.0908L23.124 24.6672L23.126 24.6682C23.3553 24.7946 23.5684 24.9174 23.7881 25.0285C23.8662 24.9575 23.9414 24.8772 24.0391 24.7844L27.3184 21.6262C27.4838 21.4666 27.6937 21.2235 27.9824 21.1057L28.0078 21.0959L28.0352 21.092Z" fill="black" stroke="black" stroke-width="0.4"/>
</svg>
