<svg width="20" height="19" viewBox="0 0 20 19" fill="none" xmlns="http://www.w3.org/2000/svg">
<path d="M19.0002 17.8669L14.6572 13.8134M14.6572 13.8134C15.4001 13.12 15.9894 12.2969 16.3914 11.391C16.7935 10.485 17.0004 9.51409 17.0004 8.53352C17.0004 7.55296 16.7935 6.582 16.3914 5.67608C15.9894 4.77016 15.4001 3.94702 14.6572 3.25366C13.9143 2.5603 13.0324 2.01029 12.0618 1.63505C11.0911 1.2598 10.0508 1.06667 9.00021 1.06667C7.9496 1.06667 6.90929 1.2598 5.93866 1.63505C4.96803 2.01029 4.08609 2.5603 3.34321 3.25366C1.84288 4.65397 1 6.55319 1 8.53352C1 10.5139 1.84288 12.4131 3.34321 13.8134C4.84354 15.2137 6.87842 16.0004 9.00021 16.0004C11.122 16.0004 13.1569 15.2137 14.6572 13.8134Z" stroke="#01295F" stroke-width="2" stroke-linecap="round" stroke-linejoin="round"/>
</svg>
