<svg width="20" height="20" viewBox="0 0 20 20" fill="none" xmlns="http://www.w3.org/2000/svg">
<path d="M11.6665 15V5.00001C11.6665 4.55798 11.4909 4.13406 11.1783 3.8215C10.8658 3.50894 10.4419 3.33334 9.99984 3.33334H3.33317C2.89114 3.33334 2.46722 3.50894 2.15466 3.8215C1.8421 4.13406 1.6665 4.55798 1.6665 5.00001V14.1667C1.6665 14.3877 1.7543 14.5997 1.91058 14.7559C2.06686 14.9122 2.27882 15 2.49984 15H4.1665" stroke="#504A4A" stroke-width="1.5" stroke-linecap="round" stroke-linejoin="round"/>
<path d="M12.5 15H7.5" stroke="#504A4A" stroke-width="1.5" stroke-linecap="round" stroke-linejoin="round"/>
<path d="M15.8332 15H17.4998C17.7209 15 17.9328 14.9122 18.0891 14.7559C18.2454 14.5996 18.3332 14.3877 18.3332 14.1667V11.125C18.3328 10.9359 18.2682 10.7525 18.1498 10.605L15.2498 6.97999C15.1719 6.88239 15.073 6.80356 14.9605 6.74932C14.848 6.69509 14.7247 6.66683 14.5998 6.66666H11.6665" stroke="#504A4A" stroke-width="1.5" stroke-linecap="round" stroke-linejoin="round"/>
<path d="M14.1667 16.6667C15.0871 16.6667 15.8333 15.9205 15.8333 15C15.8333 14.0795 15.0871 13.3333 14.1667 13.3333C13.2462 13.3333 12.5 14.0795 12.5 15C12.5 15.9205 13.2462 16.6667 14.1667 16.6667Z" stroke="#504A4A" stroke-width="1.5" stroke-linecap="round" stroke-linejoin="round"/>
<path d="M5.83317 16.6667C6.75365 16.6667 7.49984 15.9205 7.49984 15C7.49984 14.0795 6.75365 13.3333 5.83317 13.3333C4.9127 13.3333 4.1665 14.0795 4.1665 15C4.1665 15.9205 4.9127 16.6667 5.83317 16.6667Z" stroke="#504A4A" stroke-width="1.5" stroke-linecap="round" stroke-linejoin="round"/>
</svg>
