<svg width="34" height="34" viewBox="0 0 34 34" fill="none" xmlns="http://www.w3.org/2000/svg">
<mask id="path-1-outside-1_1410_14704" maskUnits="userSpaceOnUse" x="1.93652" y="-0.485107" width="30" height="35" fill="black">
<rect fill="white" x="1.93652" y="-0.485107" width="30" height="35"/>
<path d="M30.832 26.9218C30.7868 25.7569 30.4131 24.6285 29.7541 23.6668C29.0951 22.7052 28.1776 21.9495 27.1074 21.4869L22.0641 19.4624L21.1935 18.0303V17.1957C21.7705 16.5581 22.2246 15.8194 22.5329 15.0166C22.7267 14.4493 22.8731 13.8669 22.9708 13.2754H23.0841H23.182C23.4074 13.2727 23.6257 13.1962 23.8034 13.0576C23.9811 12.9189 24.1085 12.7258 24.1659 12.5079H24.2123L24.7274 12.5645H24.7996C24.9885 12.5696 25.1724 12.5034 25.3147 12.3791C25.4646 12.2405 25.5581 12.0516 25.5774 11.8485L25.7577 9.69513C25.778 9.48312 25.7144 9.27159 25.5806 9.10594C25.4467 8.94029 25.2532 8.83371 25.0417 8.80907L24.5265 8.75755H24.4956C24.4611 8.59971 24.39 8.45219 24.288 8.32691C24.186 8.20163 24.0559 8.10209 23.9083 8.03634V7.96422C24.475 5.66664 23.6971 4.39937 22.6668 2.79725C21.5593 0.968463 18.4735 0.154523 14.6459 0.664523C14.1891 0.689767 13.7418 0.805183 13.3298 1.00412C12.9177 1.20305 12.5492 1.48157 12.2453 1.82361C12.0675 2.0566 11.9427 2.32559 11.8796 2.6118C11.4565 2.67367 11.0684 2.8814 10.7823 3.19907C9.75198 4.33755 9.79319 6.77422 9.99925 8.08786C9.87764 8.16054 9.77233 8.25753 9.6899 8.37276C9.60746 8.48799 9.54968 8.61898 9.52016 8.75755H9.47895L8.9638 8.80907C8.75186 8.83373 8.5579 8.94012 8.42321 9.1056C8.28851 9.27108 8.22371 9.48259 8.24258 9.69513L8.43834 11.8485C8.45169 11.9578 8.48683 12.0634 8.54169 12.159C8.59655 12.2546 8.67001 12.3381 8.75774 12.4048C8.90132 12.5264 9.0848 12.5907 9.27289 12.5851H9.35016L9.86531 12.5336C9.91908 12.7367 10.0364 12.9172 10.2002 13.0488C10.3739 13.1955 10.5912 13.2806 10.8183 13.2909H10.9111H10.9935C11.0868 13.8816 11.2334 14.4626 11.4314 15.0269C11.7377 15.8322 12.192 16.573 12.7708 17.2112V18.0303L11.8486 19.4882L7.05258 21.4251C5.93877 21.9102 4.98388 22.6988 4.29702 23.7009C3.61015 24.7029 3.21903 25.878 3.16834 27.0918L2.93652 32.9697C2.93652 33.1063 2.9908 33.2373 3.08741 33.3339C3.18402 33.4306 3.31505 33.4848 3.45167 33.4848H30.5486C30.6853 33.4848 30.8163 33.4306 30.9129 33.3339C31.0095 33.2373 31.0638 33.1063 31.0638 32.9697L30.832 26.9218ZM16.5777 20.6782C15.6247 19.8951 14.5996 18.9885 14.105 18.4733C14.9127 19.1032 15.9054 19.4496 16.9296 19.4589C17.9539 19.4682 18.9527 19.1399 19.7717 18.5248C19.2565 19.04 18.2262 19.926 17.2938 20.6782H16.5777ZM18.3189 21.1933C19.1373 20.5557 19.915 19.8675 20.6474 19.1327L21.1626 19.9415L19.885 22.8985C19.4329 22.2665 18.9072 21.6906 18.3189 21.183V21.1933ZM23.182 12.2606L22.7286 12.2297L23.0223 8.9327H23.1614H23.182H23.4808L23.182 12.2606ZM24.7274 9.81361L24.5832 11.5342L24.3514 11.5085H24.2896L24.4338 9.78786L24.7274 9.81361ZM11.5344 3.89968C11.628 3.79095 11.7471 3.70719 11.8811 3.65594C12.0151 3.60468 12.1597 3.58753 12.302 3.60604C12.3787 3.6131 12.4559 3.60289 12.5282 3.57614C12.6004 3.5494 12.6657 3.5068 12.7193 3.45149C12.7734 3.40009 12.8157 3.33753 12.8433 3.26815C12.8709 3.19877 12.883 3.12422 12.8789 3.04967C12.8789 2.94149 12.8274 1.9524 14.7953 1.68967C18.1696 1.23634 20.9308 1.88543 21.8323 3.33816C22.7338 4.79089 23.3777 5.84695 22.9193 7.71695C22.9193 7.78392 22.8935 7.85089 22.878 7.91786C22.6492 7.95251 22.4387 8.06321 22.2805 8.2321C22.1608 7.67084 21.974 7.12601 21.7241 6.60937C20.8329 4.95058 19.4986 4.99695 18.5199 5.03301H18.2829C17.9638 5.04738 17.6457 5.07833 17.3299 5.12574C16.2996 5.26483 14.8932 5.45028 13.5332 4.87846C13.4549 4.84571 13.3697 4.8328 13.2853 4.84089C13.2008 4.84897 13.1196 4.87781 13.0489 4.92483C12.0553 5.63622 11.3729 6.70218 11.1429 7.9024H11.0296C10.8183 6.61967 10.8493 4.63634 11.5344 3.89968ZM9.44804 11.5342L9.3038 9.81361L9.54592 9.78786L9.70562 11.5136C9.68682 11.511 9.66775 11.511 9.64895 11.5136L9.44804 11.5342ZM10.8183 12.2606L10.5041 8.97392L10.9626 8.9224L11.282 12.2194L10.8183 12.2606ZM11.9774 12.9715L12.065 12.8839C12.2375 12.6751 12.3207 12.4067 12.2968 12.1369L12.0547 9.49422C12.0547 9.12331 12.0856 8.74725 12.1011 8.4021C12.1416 7.92766 12.277 7.46619 12.4991 7.045C12.7212 6.6238 13.0255 6.25145 13.3941 5.94998C14.7041 6.35215 16.0932 6.4247 17.438 6.16119C17.7729 6.11483 18.0614 6.07877 18.2829 6.06846H18.5456C19.4832 6.03755 20.2199 6.00664 20.8071 7.09877C21.3223 8.07755 21.652 10.406 21.7396 11.6785L21.6983 12.1421C21.6779 12.3381 21.7174 12.5357 21.8117 12.7088C21.7901 12.7498 21.7728 12.793 21.7602 12.8376C21.4356 14.1873 19.442 15.0115 18.2932 15.336C18.1518 15.0748 17.9247 14.8702 17.6502 14.7567C17.3756 14.6431 17.0704 14.6276 16.7857 14.7127C16.5011 14.7978 16.2545 14.9783 16.0873 15.2239C15.9201 15.4694 15.8425 15.7651 15.8677 16.0611C15.8928 16.3571 16.0192 16.6354 16.2254 16.8492C16.4317 17.0631 16.7052 17.1993 17.0002 17.2352C17.2951 17.271 17.5933 17.2042 17.8448 17.0459C18.0962 16.8877 18.2855 16.6477 18.3808 16.3663C19.4936 16.0949 20.5433 15.6103 21.4717 14.9394C20.9633 15.9778 20.2252 16.8869 19.3132 17.5976C18.6634 18.1246 17.8522 18.4122 17.0156 18.4122C16.179 18.4122 15.3678 18.1246 14.718 17.5976C13.715 16.8274 12.9287 15.8104 12.4359 14.6457C12.2335 14.1032 12.0834 13.5426 11.9877 12.9715H11.9774ZM17.4123 15.9697C17.4123 16.0216 17.3969 16.0724 17.368 16.1156C17.3391 16.1588 17.2981 16.1925 17.2501 16.2124C17.2021 16.2323 17.1493 16.2375 17.0983 16.2274C17.0473 16.2172 17.0005 16.1922 16.9638 16.1555C16.927 16.1187 16.902 16.0719 16.8919 16.0209C16.8817 15.97 16.8869 15.9171 16.9068 15.8691C16.9267 15.8211 16.9604 15.7801 17.0036 15.7512C17.0468 15.7224 17.0976 15.7069 17.1496 15.7069C17.2192 15.7069 17.2861 15.7346 17.3353 15.7839C17.3846 15.8332 17.4123 15.9 17.4123 15.9697ZM13.2911 19.1224C13.9908 19.836 14.7359 20.5036 15.5217 21.1212C14.9346 21.559 14.414 22.0795 13.9762 22.6666L12.7656 19.9157L13.2911 19.1224ZM4.18834 27.1433C4.22484 26.0233 4.61026 24.9427 5.29077 24.0524C5.85137 23.3155 6.59076 22.734 7.43895 22.3627L11.9156 20.5494L13.1829 23.4188C13.2139 23.56 13.2848 23.6894 13.387 23.7916C13.4893 23.8938 13.6186 23.9647 13.7599 23.9957C13.8164 24.0008 13.8733 24.0008 13.9299 23.9957C14.0642 23.9954 14.1962 23.9601 14.3127 23.8933C14.4292 23.8264 14.5263 23.7304 14.5944 23.6145C14.7468 23.3722 14.9191 23.143 15.1096 22.9294L15.8308 23.7176L14.9396 32.4545H3.98743L4.18834 27.1433ZM15.9699 32.4545L16.8302 23.6197C16.8375 23.5482 16.8299 23.476 16.8077 23.4077C16.7855 23.3394 16.7493 23.2765 16.7014 23.223L15.8153 22.2339C16.0341 22.0498 16.2628 21.8778 16.5005 21.7188H17.3453C17.4793 21.8269 17.6956 22.0073 17.9429 22.2339L17.1599 23.2282C17.077 23.3331 17.0383 23.4661 17.0517 23.5991L17.9429 32.4545H15.9699ZM18.9577 32.4545L18.0974 23.6969L18.6589 22.986C18.8869 23.2583 19.0935 23.5476 19.2771 23.8515C19.3437 23.969 19.4404 24.0667 19.5571 24.1346C19.6739 24.2024 19.8066 24.2381 19.9417 24.2379C19.9921 24.2332 20.042 24.2246 20.0911 24.2121C20.233 24.1807 20.3628 24.1091 20.4651 24.0058C20.5674 23.9026 20.6379 23.7721 20.668 23.63L21.9662 20.5391L26.6902 22.4348C27.4809 22.7748 28.1748 23.3059 28.7096 23.9803C29.3652 24.8287 29.7398 25.8606 29.7811 26.9321L30.0129 32.4545H18.9577Z"/>
</mask>
<path d="M30.832 26.9218C30.7868 25.7569 30.4131 24.6285 29.7541 23.6668C29.0951 22.7052 28.1776 21.9495 27.1074 21.4869L22.0641 19.4624L21.1935 18.0303V17.1957C21.7705 16.5581 22.2246 15.8194 22.5329 15.0166C22.7267 14.4493 22.8731 13.8669 22.9708 13.2754H23.0841H23.182C23.4074 13.2727 23.6257 13.1962 23.8034 13.0576C23.9811 12.9189 24.1085 12.7258 24.1659 12.5079H24.2123L24.7274 12.5645H24.7996C24.9885 12.5696 25.1724 12.5034 25.3147 12.3791C25.4646 12.2405 25.5581 12.0516 25.5774 11.8485L25.7577 9.69513C25.778 9.48312 25.7144 9.27159 25.5806 9.10594C25.4467 8.94029 25.2532 8.83371 25.0417 8.80907L24.5265 8.75755H24.4956C24.4611 8.59971 24.39 8.45219 24.288 8.32691C24.186 8.20163 24.0559 8.10209 23.9083 8.03634V7.96422C24.475 5.66664 23.6971 4.39937 22.6668 2.79725C21.5593 0.968463 18.4735 0.154523 14.6459 0.664523C14.1891 0.689767 13.7418 0.805183 13.3298 1.00412C12.9177 1.20305 12.5492 1.48157 12.2453 1.82361C12.0675 2.0566 11.9427 2.32559 11.8796 2.6118C11.4565 2.67367 11.0684 2.8814 10.7823 3.19907C9.75198 4.33755 9.79319 6.77422 9.99925 8.08786C9.87764 8.16054 9.77233 8.25753 9.6899 8.37276C9.60746 8.48799 9.54968 8.61898 9.52016 8.75755H9.47895L8.9638 8.80907C8.75186 8.83373 8.5579 8.94012 8.42321 9.1056C8.28851 9.27108 8.22371 9.48259 8.24258 9.69513L8.43834 11.8485C8.45169 11.9578 8.48683 12.0634 8.54169 12.159C8.59655 12.2546 8.67001 12.3381 8.75774 12.4048C8.90132 12.5264 9.0848 12.5907 9.27289 12.5851H9.35016L9.86531 12.5336C9.91908 12.7367 10.0364 12.9172 10.2002 13.0488C10.3739 13.1955 10.5912 13.2806 10.8183 13.2909H10.9111H10.9935C11.0868 13.8816 11.2334 14.4626 11.4314 15.0269C11.7377 15.8322 12.192 16.573 12.7708 17.2112V18.0303L11.8486 19.4882L7.05258 21.4251C5.93877 21.9102 4.98388 22.6988 4.29702 23.7009C3.61015 24.7029 3.21903 25.878 3.16834 27.0918L2.93652 32.9697C2.93652 33.1063 2.9908 33.2373 3.08741 33.3339C3.18402 33.4306 3.31505 33.4848 3.45167 33.4848H30.5486C30.6853 33.4848 30.8163 33.4306 30.9129 33.3339C31.0095 33.2373 31.0638 33.1063 31.0638 32.9697L30.832 26.9218ZM16.5777 20.6782C15.6247 19.8951 14.5996 18.9885 14.105 18.4733C14.9127 19.1032 15.9054 19.4496 16.9296 19.4589C17.9539 19.4682 18.9527 19.1399 19.7717 18.5248C19.2565 19.04 18.2262 19.926 17.2938 20.6782H16.5777ZM18.3189 21.1933C19.1373 20.5557 19.915 19.8675 20.6474 19.1327L21.1626 19.9415L19.885 22.8985C19.4329 22.2665 18.9072 21.6906 18.3189 21.183V21.1933ZM23.182 12.2606L22.7286 12.2297L23.0223 8.9327H23.1614H23.182H23.4808L23.182 12.2606ZM24.7274 9.81361L24.5832 11.5342L24.3514 11.5085H24.2896L24.4338 9.78786L24.7274 9.81361ZM11.5344 3.89968C11.628 3.79095 11.7471 3.70719 11.8811 3.65594C12.0151 3.60468 12.1597 3.58753 12.302 3.60604C12.3787 3.6131 12.4559 3.60289 12.5282 3.57614C12.6004 3.5494 12.6657 3.5068 12.7193 3.45149C12.7734 3.40009 12.8157 3.33753 12.8433 3.26815C12.8709 3.19877 12.883 3.12422 12.8789 3.04967C12.8789 2.94149 12.8274 1.9524 14.7953 1.68967C18.1696 1.23634 20.9308 1.88543 21.8323 3.33816C22.7338 4.79089 23.3777 5.84695 22.9193 7.71695C22.9193 7.78392 22.8935 7.85089 22.878 7.91786C22.6492 7.95251 22.4387 8.06321 22.2805 8.2321C22.1608 7.67084 21.974 7.12601 21.7241 6.60937C20.8329 4.95058 19.4986 4.99695 18.5199 5.03301H18.2829C17.9638 5.04738 17.6457 5.07833 17.3299 5.12574C16.2996 5.26483 14.8932 5.45028 13.5332 4.87846C13.4549 4.84571 13.3697 4.8328 13.2853 4.84089C13.2008 4.84897 13.1196 4.87781 13.0489 4.92483C12.0553 5.63622 11.3729 6.70218 11.1429 7.9024H11.0296C10.8183 6.61967 10.8493 4.63634 11.5344 3.89968ZM9.44804 11.5342L9.3038 9.81361L9.54592 9.78786L9.70562 11.5136C9.68682 11.511 9.66775 11.511 9.64895 11.5136L9.44804 11.5342ZM10.8183 12.2606L10.5041 8.97392L10.9626 8.9224L11.282 12.2194L10.8183 12.2606ZM11.9774 12.9715L12.065 12.8839C12.2375 12.6751 12.3207 12.4067 12.2968 12.1369L12.0547 9.49422C12.0547 9.12331 12.0856 8.74725 12.1011 8.4021C12.1416 7.92766 12.277 7.46619 12.4991 7.045C12.7212 6.6238 13.0255 6.25145 13.3941 5.94998C14.7041 6.35215 16.0932 6.4247 17.438 6.16119C17.7729 6.11483 18.0614 6.07877 18.2829 6.06846H18.5456C19.4832 6.03755 20.2199 6.00664 20.8071 7.09877C21.3223 8.07755 21.652 10.406 21.7396 11.6785L21.6983 12.1421C21.6779 12.3381 21.7174 12.5357 21.8117 12.7088C21.7901 12.7498 21.7728 12.793 21.7602 12.8376C21.4356 14.1873 19.442 15.0115 18.2932 15.336C18.1518 15.0748 17.9247 14.8702 17.6502 14.7567C17.3756 14.6431 17.0704 14.6276 16.7857 14.7127C16.5011 14.7978 16.2545 14.9783 16.0873 15.2239C15.9201 15.4694 15.8425 15.7651 15.8677 16.0611C15.8928 16.3571 16.0192 16.6354 16.2254 16.8492C16.4317 17.0631 16.7052 17.1993 17.0002 17.2352C17.2951 17.271 17.5933 17.2042 17.8448 17.0459C18.0962 16.8877 18.2855 16.6477 18.3808 16.3663C19.4936 16.0949 20.5433 15.6103 21.4717 14.9394C20.9633 15.9778 20.2252 16.8869 19.3132 17.5976C18.6634 18.1246 17.8522 18.4122 17.0156 18.4122C16.179 18.4122 15.3678 18.1246 14.718 17.5976C13.715 16.8274 12.9287 15.8104 12.4359 14.6457C12.2335 14.1032 12.0834 13.5426 11.9877 12.9715H11.9774ZM17.4123 15.9697C17.4123 16.0216 17.3969 16.0724 17.368 16.1156C17.3391 16.1588 17.2981 16.1925 17.2501 16.2124C17.2021 16.2323 17.1493 16.2375 17.0983 16.2274C17.0473 16.2172 17.0005 16.1922 16.9638 16.1555C16.927 16.1187 16.902 16.0719 16.8919 16.0209C16.8817 15.97 16.8869 15.9171 16.9068 15.8691C16.9267 15.8211 16.9604 15.7801 17.0036 15.7512C17.0468 15.7224 17.0976 15.7069 17.1496 15.7069C17.2192 15.7069 17.2861 15.7346 17.3353 15.7839C17.3846 15.8332 17.4123 15.9 17.4123 15.9697ZM13.2911 19.1224C13.9908 19.836 14.7359 20.5036 15.5217 21.1212C14.9346 21.559 14.414 22.0795 13.9762 22.6666L12.7656 19.9157L13.2911 19.1224ZM4.18834 27.1433C4.22484 26.0233 4.61026 24.9427 5.29077 24.0524C5.85137 23.3155 6.59076 22.734 7.43895 22.3627L11.9156 20.5494L13.1829 23.4188C13.2139 23.56 13.2848 23.6894 13.387 23.7916C13.4893 23.8938 13.6186 23.9647 13.7599 23.9957C13.8164 24.0008 13.8733 24.0008 13.9299 23.9957C14.0642 23.9954 14.1962 23.9601 14.3127 23.8933C14.4292 23.8264 14.5263 23.7304 14.5944 23.6145C14.7468 23.3722 14.9191 23.143 15.1096 22.9294L15.8308 23.7176L14.9396 32.4545H3.98743L4.18834 27.1433ZM15.9699 32.4545L16.8302 23.6197C16.8375 23.5482 16.8299 23.476 16.8077 23.4077C16.7855 23.3394 16.7493 23.2765 16.7014 23.223L15.8153 22.2339C16.0341 22.0498 16.2628 21.8778 16.5005 21.7188H17.3453C17.4793 21.8269 17.6956 22.0073 17.9429 22.2339L17.1599 23.2282C17.077 23.3331 17.0383 23.4661 17.0517 23.5991L17.9429 32.4545H15.9699ZM18.9577 32.4545L18.0974 23.6969L18.6589 22.986C18.8869 23.2583 19.0935 23.5476 19.2771 23.8515C19.3437 23.969 19.4404 24.0667 19.5571 24.1346C19.6739 24.2024 19.8066 24.2381 19.9417 24.2379C19.9921 24.2332 20.042 24.2246 20.0911 24.2121C20.233 24.1807 20.3628 24.1091 20.4651 24.0058C20.5674 23.9026 20.6379 23.7721 20.668 23.63L21.9662 20.5391L26.6902 22.4348C27.4809 22.7748 28.1748 23.3059 28.7096 23.9803C29.3652 24.8287 29.7398 25.8606 29.7811 26.9321L30.0129 32.4545H18.9577Z" fill="black"/>
<path d="M30.832 26.9218C30.7868 25.7569 30.4131 24.6285 29.7541 23.6668C29.0951 22.7052 28.1776 21.9495 27.1074 21.4869L22.0641 19.4624L21.1935 18.0303V17.1957C21.7705 16.5581 22.2246 15.8194 22.5329 15.0166C22.7267 14.4493 22.8731 13.8669 22.9708 13.2754H23.0841H23.182C23.4074 13.2727 23.6257 13.1962 23.8034 13.0576C23.9811 12.9189 24.1085 12.7258 24.1659 12.5079H24.2123L24.7274 12.5645H24.7996C24.9885 12.5696 25.1724 12.5034 25.3147 12.3791C25.4646 12.2405 25.5581 12.0516 25.5774 11.8485L25.7577 9.69513C25.778 9.48312 25.7144 9.27159 25.5806 9.10594C25.4467 8.94029 25.2532 8.83371 25.0417 8.80907L24.5265 8.75755H24.4956C24.4611 8.59971 24.39 8.45219 24.288 8.32691C24.186 8.20163 24.0559 8.10209 23.9083 8.03634V7.96422C24.475 5.66664 23.6971 4.39937 22.6668 2.79725C21.5593 0.968463 18.4735 0.154523 14.6459 0.664523C14.1891 0.689767 13.7418 0.805183 13.3298 1.00412C12.9177 1.20305 12.5492 1.48157 12.2453 1.82361C12.0675 2.0566 11.9427 2.32559 11.8796 2.6118C11.4565 2.67367 11.0684 2.8814 10.7823 3.19907C9.75198 4.33755 9.79319 6.77422 9.99925 8.08786C9.87764 8.16054 9.77233 8.25753 9.6899 8.37276C9.60746 8.48799 9.54968 8.61898 9.52016 8.75755H9.47895L8.9638 8.80907C8.75186 8.83373 8.5579 8.94012 8.42321 9.1056C8.28851 9.27108 8.22371 9.48259 8.24258 9.69513L8.43834 11.8485C8.45169 11.9578 8.48683 12.0634 8.54169 12.159C8.59655 12.2546 8.67001 12.3381 8.75774 12.4048C8.90132 12.5264 9.0848 12.5907 9.27289 12.5851H9.35016L9.86531 12.5336C9.91908 12.7367 10.0364 12.9172 10.2002 13.0488C10.3739 13.1955 10.5912 13.2806 10.8183 13.2909H10.9111H10.9935C11.0868 13.8816 11.2334 14.4626 11.4314 15.0269C11.7377 15.8322 12.192 16.573 12.7708 17.2112V18.0303L11.8486 19.4882L7.05258 21.4251C5.93877 21.9102 4.98388 22.6988 4.29702 23.7009C3.61015 24.7029 3.21903 25.878 3.16834 27.0918L2.93652 32.9697C2.93652 33.1063 2.9908 33.2373 3.08741 33.3339C3.18402 33.4306 3.31505 33.4848 3.45167 33.4848H30.5486C30.6853 33.4848 30.8163 33.4306 30.9129 33.3339C31.0095 33.2373 31.0638 33.1063 31.0638 32.9697L30.832 26.9218ZM16.5777 20.6782C15.6247 19.8951 14.5996 18.9885 14.105 18.4733C14.9127 19.1032 15.9054 19.4496 16.9296 19.4589C17.9539 19.4682 18.9527 19.1399 19.7717 18.5248C19.2565 19.04 18.2262 19.926 17.2938 20.6782H16.5777ZM18.3189 21.1933C19.1373 20.5557 19.915 19.8675 20.6474 19.1327L21.1626 19.9415L19.885 22.8985C19.4329 22.2665 18.9072 21.6906 18.3189 21.183V21.1933ZM23.182 12.2606L22.7286 12.2297L23.0223 8.9327H23.1614H23.182H23.4808L23.182 12.2606ZM24.7274 9.81361L24.5832 11.5342L24.3514 11.5085H24.2896L24.4338 9.78786L24.7274 9.81361ZM11.5344 3.89968C11.628 3.79095 11.7471 3.70719 11.8811 3.65594C12.0151 3.60468 12.1597 3.58753 12.302 3.60604C12.3787 3.6131 12.4559 3.60289 12.5282 3.57614C12.6004 3.5494 12.6657 3.5068 12.7193 3.45149C12.7734 3.40009 12.8157 3.33753 12.8433 3.26815C12.8709 3.19877 12.883 3.12422 12.8789 3.04967C12.8789 2.94149 12.8274 1.9524 14.7953 1.68967C18.1696 1.23634 20.9308 1.88543 21.8323 3.33816C22.7338 4.79089 23.3777 5.84695 22.9193 7.71695C22.9193 7.78392 22.8935 7.85089 22.878 7.91786C22.6492 7.95251 22.4387 8.06321 22.2805 8.2321C22.1608 7.67084 21.974 7.12601 21.7241 6.60937C20.8329 4.95058 19.4986 4.99695 18.5199 5.03301H18.2829C17.9638 5.04738 17.6457 5.07833 17.3299 5.12574C16.2996 5.26483 14.8932 5.45028 13.5332 4.87846C13.4549 4.84571 13.3697 4.8328 13.2853 4.84089C13.2008 4.84897 13.1196 4.87781 13.0489 4.92483C12.0553 5.63622 11.3729 6.70218 11.1429 7.9024H11.0296C10.8183 6.61967 10.8493 4.63634 11.5344 3.89968ZM9.44804 11.5342L9.3038 9.81361L9.54592 9.78786L9.70562 11.5136C9.68682 11.511 9.66775 11.511 9.64895 11.5136L9.44804 11.5342ZM10.8183 12.2606L10.5041 8.97392L10.9626 8.9224L11.282 12.2194L10.8183 12.2606ZM11.9774 12.9715L12.065 12.8839C12.2375 12.6751 12.3207 12.4067 12.2968 12.1369L12.0547 9.49422C12.0547 9.12331 12.0856 8.74725 12.1011 8.4021C12.1416 7.92766 12.277 7.46619 12.4991 7.045C12.7212 6.6238 13.0255 6.25145 13.3941 5.94998C14.7041 6.35215 16.0932 6.4247 17.438 6.16119C17.7729 6.11483 18.0614 6.07877 18.2829 6.06846H18.5456C19.4832 6.03755 20.2199 6.00664 20.8071 7.09877C21.3223 8.07755 21.652 10.406 21.7396 11.6785L21.6983 12.1421C21.6779 12.3381 21.7174 12.5357 21.8117 12.7088C21.7901 12.7498 21.7728 12.793 21.7602 12.8376C21.4356 14.1873 19.442 15.0115 18.2932 15.336C18.1518 15.0748 17.9247 14.8702 17.6502 14.7567C17.3756 14.6431 17.0704 14.6276 16.7857 14.7127C16.5011 14.7978 16.2545 14.9783 16.0873 15.2239C15.9201 15.4694 15.8425 15.7651 15.8677 16.0611C15.8928 16.3571 16.0192 16.6354 16.2254 16.8492C16.4317 17.0631 16.7052 17.1993 17.0002 17.2352C17.2951 17.271 17.5933 17.2042 17.8448 17.0459C18.0962 16.8877 18.2855 16.6477 18.3808 16.3663C19.4936 16.0949 20.5433 15.6103 21.4717 14.9394C20.9633 15.9778 20.2252 16.8869 19.3132 17.5976C18.6634 18.1246 17.8522 18.4122 17.0156 18.4122C16.179 18.4122 15.3678 18.1246 14.718 17.5976C13.715 16.8274 12.9287 15.8104 12.4359 14.6457C12.2335 14.1032 12.0834 13.5426 11.9877 12.9715H11.9774ZM17.4123 15.9697C17.4123 16.0216 17.3969 16.0724 17.368 16.1156C17.3391 16.1588 17.2981 16.1925 17.2501 16.2124C17.2021 16.2323 17.1493 16.2375 17.0983 16.2274C17.0473 16.2172 17.0005 16.1922 16.9638 16.1555C16.927 16.1187 16.902 16.0719 16.8919 16.0209C16.8817 15.97 16.8869 15.9171 16.9068 15.8691C16.9267 15.8211 16.9604 15.7801 17.0036 15.7512C17.0468 15.7224 17.0976 15.7069 17.1496 15.7069C17.2192 15.7069 17.2861 15.7346 17.3353 15.7839C17.3846 15.8332 17.4123 15.9 17.4123 15.9697ZM13.2911 19.1224C13.9908 19.836 14.7359 20.5036 15.5217 21.1212C14.9346 21.559 14.414 22.0795 13.9762 22.6666L12.7656 19.9157L13.2911 19.1224ZM4.18834 27.1433C4.22484 26.0233 4.61026 24.9427 5.29077 24.0524C5.85137 23.3155 6.59076 22.734 7.43895 22.3627L11.9156 20.5494L13.1829 23.4188C13.2139 23.56 13.2848 23.6894 13.387 23.7916C13.4893 23.8938 13.6186 23.9647 13.7599 23.9957C13.8164 24.0008 13.8733 24.0008 13.9299 23.9957C14.0642 23.9954 14.1962 23.9601 14.3127 23.8933C14.4292 23.8264 14.5263 23.7304 14.5944 23.6145C14.7468 23.3722 14.9191 23.143 15.1096 22.9294L15.8308 23.7176L14.9396 32.4545H3.98743L4.18834 27.1433ZM15.9699 32.4545L16.8302 23.6197C16.8375 23.5482 16.8299 23.476 16.8077 23.4077C16.7855 23.3394 16.7493 23.2765 16.7014 23.223L15.8153 22.2339C16.0341 22.0498 16.2628 21.8778 16.5005 21.7188H17.3453C17.4793 21.8269 17.6956 22.0073 17.9429 22.2339L17.1599 23.2282C17.077 23.3331 17.0383 23.4661 17.0517 23.5991L17.9429 32.4545H15.9699ZM18.9577 32.4545L18.0974 23.6969L18.6589 22.986C18.8869 23.2583 19.0935 23.5476 19.2771 23.8515C19.3437 23.969 19.4404 24.0667 19.5571 24.1346C19.6739 24.2024 19.8066 24.2381 19.9417 24.2379C19.9921 24.2332 20.042 24.2246 20.0911 24.2121C20.233 24.1807 20.3628 24.1091 20.4651 24.0058C20.5674 23.9026 20.6379 23.7721 20.668 23.63L21.9662 20.5391L26.6902 22.4348C27.4809 22.7748 28.1748 23.3059 28.7096 23.9803C29.3652 24.8287 29.7398 25.8606 29.7811 26.9321L30.0129 32.4545H18.9577Z" stroke="black" stroke-width="0.4" mask="url(#path-1-outside-1_1410_14704)"/>
</svg>
