<svg width="16" height="18" viewBox="0 0 16 18" fill="none" xmlns="http://www.w3.org/2000/svg">
<mask id="path-1-inside-1_1448_2059" fill="white">
<path d="M12.9441 5.45603C12.9562 6.84282 12.421 8.17845 11.4546 9.17317C10.4883 10.1679 9.16866 10.7415 7.7821 10.7695C6.39795 10.7173 5.0898 10.123 4.13982 9.115C3.18984 8.10697 2.67415 6.76591 2.70399 5.3811C2.68971 4.68141 2.81485 3.98588 3.0721 3.33505C3.32934 2.68421 3.71356 2.09109 4.20235 1.59025C4.69114 1.0894 5.27473 0.690854 5.91911 0.417832C6.56348 0.144809 7.25576 0.00277266 7.95558 0C8.64245 0.0276714 9.31703 0.191144 9.94036 0.480976C10.5637 0.770809 11.1234 1.18126 11.5873 1.68862C12.0511 2.19599 12.4098 2.79021 12.6427 3.43698C12.8756 4.08375 12.978 4.77025 12.9441 5.45684M11.2427 5.31105C11.2456 4.85066 11.1577 4.39422 10.984 3.96784C10.8103 3.54146 10.5543 3.15351 10.2305 2.82619C9.90675 2.49887 9.52162 2.23859 9.09716 2.06026C8.6727 1.88193 8.21725 1.78904 7.75686 1.78691C6.82729 1.83459 5.95436 2.24815 5.3287 2.93729C4.70304 3.62643 4.37549 4.53515 4.4176 5.46498C4.41185 5.92546 4.49792 6.38246 4.67077 6.80929C4.84363 7.23613 5.0998 7.62425 5.42432 7.95097C5.74885 8.2777 6.13523 8.53648 6.56089 8.71222C6.98655 8.88795 7.44296 8.9771 7.90346 8.97447C8.36353 8.95357 8.81496 8.84213 9.23191 8.64653C9.64886 8.45093 10.0231 8.17502 10.3333 7.83459C10.6435 7.49415 10.8835 7.09588 11.0395 6.66258C11.1956 6.22928 11.2646 5.76945 11.2427 5.30942"/>
</mask>
<path d="M12.9441 5.45603C12.9562 6.84282 12.421 8.17845 11.4546 9.17317C10.4883 10.1679 9.16866 10.7415 7.7821 10.7695C6.39795 10.7173 5.0898 10.123 4.13982 9.115C3.18984 8.10697 2.67415 6.76591 2.70399 5.3811C2.68971 4.68141 2.81485 3.98588 3.0721 3.33505C3.32934 2.68421 3.71356 2.09109 4.20235 1.59025C4.69114 1.0894 5.27473 0.690854 5.91911 0.417832C6.56348 0.144809 7.25576 0.00277266 7.95558 0C8.64245 0.0276714 9.31703 0.191144 9.94036 0.480976C10.5637 0.770809 11.1234 1.18126 11.5873 1.68862C12.0511 2.19599 12.4098 2.79021 12.6427 3.43698C12.8756 4.08375 12.978 4.77025 12.9441 5.45684M11.2427 5.31105C11.2456 4.85066 11.1577 4.39422 10.984 3.96784C10.8103 3.54146 10.5543 3.15351 10.2305 2.82619C9.90675 2.49887 9.52162 2.23859 9.09716 2.06026C8.6727 1.88193 8.21725 1.78904 7.75686 1.78691C6.82729 1.83459 5.95436 2.24815 5.3287 2.93729C4.70304 3.62643 4.37549 4.53515 4.4176 5.46498C4.41185 5.92546 4.49792 6.38246 4.67077 6.80929C4.84363 7.23613 5.0998 7.62425 5.42432 7.95097C5.74885 8.2777 6.13523 8.53648 6.56089 8.71222C6.98655 8.88795 7.44296 8.9771 7.90346 8.97447C8.36353 8.95357 8.81496 8.84213 9.23191 8.64653C9.64886 8.45093 10.0231 8.17502 10.3333 7.83459C10.6435 7.49415 10.8835 7.09588 11.0395 6.66258C11.1956 6.22928 11.2646 5.76945 11.2427 5.30942" fill="black"/>
<path d="M7.7821 10.7695L7.74438 11.7688L7.77334 11.7699L7.80232 11.7693L7.7821 10.7695ZM2.70399 5.3811L3.70375 5.40264L3.7042 5.38167L3.70378 5.3607L2.70399 5.3811ZM7.95558 0L7.99584 -0.999189L7.97374 -1.00008L7.95162 -0.999992L7.95558 0ZM7.75686 1.78691L7.76149 0.786922L7.73354 0.786793L7.70564 0.788224L7.75686 1.78691ZM4.4176 5.46498L5.41752 5.47745L5.41788 5.44859L5.41657 5.41975L4.4176 5.46498ZM7.90346 8.97447L7.90917 9.97445L7.92902 9.97434L7.94884 9.97344L7.90346 8.97447ZM12.9441 5.45603L11.9441 5.46473C11.9539 6.58831 11.5203 7.67044 10.7374 8.47636L11.4546 9.17317L12.1719 9.86998C13.3217 8.68646 13.9584 7.09732 13.9441 5.44732L12.9441 5.45603ZM11.4546 9.17317L10.7374 8.47636C9.95442 9.28229 8.88528 9.74701 7.76189 9.76973L7.7821 10.7695L7.80232 11.7693C9.45205 11.736 11.0221 11.0535 12.1719 9.86998L11.4546 9.17317ZM7.7821 10.7695L7.81983 9.77023C6.6979 9.72788 5.63758 9.24622 4.86757 8.42916L4.13982 9.115L3.41207 9.80084C4.54203 10.9998 6.098 11.7067 7.74438 11.7688L7.7821 10.7695ZM4.13982 9.115L4.86757 8.42916C4.09756 7.6121 3.67957 6.5251 3.70375 5.40264L2.70399 5.3811L1.70422 5.35955C1.66873 7.00672 2.28211 8.60184 3.41207 9.80084L4.13982 9.115ZM2.70399 5.3811L3.70378 5.3607C3.69221 4.79369 3.79362 4.23006 4.00208 3.70264L3.0721 3.33505L2.14211 2.96746C1.83608 3.74171 1.68721 4.56913 1.70419 5.40149L2.70399 5.3811ZM3.0721 3.33505L4.00208 3.70264C4.21055 3.17521 4.52191 2.69456 4.91802 2.28869L4.20235 1.59025L3.48668 0.891804C2.90521 1.48762 2.44813 2.19322 2.14211 2.96746L3.0721 3.33505ZM4.20235 1.59025L4.91802 2.28869C5.31412 1.88282 5.78705 1.55984 6.30923 1.33859L5.91911 0.417832L5.52898 -0.502929C4.76241 -0.178135 4.06816 0.295987 3.48668 0.891804L4.20235 1.59025ZM5.91911 0.417832L6.30923 1.33859C6.83142 1.11734 7.39242 1.00224 7.95954 0.999992L7.95558 0L7.95162 -0.999992C7.11909 -0.996694 6.29555 -0.827723 5.52898 -0.502929L5.91911 0.417832ZM7.95558 0L7.91533 0.999189C8.47021 1.02154 9.01517 1.15361 9.51874 1.38775L9.94036 0.480976L10.362 -0.425796C9.61888 -0.771318 8.81468 -0.966201 7.99584 -0.999189L7.95558 0ZM9.94036 0.480976L9.51874 1.38775C10.0223 1.62189 10.4745 1.95347 10.8492 2.36335L11.5873 1.68862L12.3253 1.0139C11.7724 0.409044 11.1051 -0.0802728 10.362 -0.425796L9.94036 0.480976ZM11.5873 1.68862L10.8492 2.36335C11.2239 2.77323 11.5137 3.25327 11.7018 3.77577L12.6427 3.43698L13.5835 3.0982C13.3059 2.32715 12.8783 1.61875 12.3253 1.0139L11.5873 1.68862ZM12.6427 3.43698L11.7018 3.77577C11.89 4.29826 11.9727 4.85286 11.9453 5.40752L12.9441 5.45684L13.9429 5.50616C13.9833 4.68765 13.8612 3.86924 13.5835 3.0982L12.6427 3.43698ZM11.2427 5.31105L12.2427 5.31734C12.2464 4.72549 12.1334 4.13872 11.9101 3.59059L10.984 3.96784L10.0579 4.34509C10.182 4.64972 10.2448 4.97583 10.2427 5.30476L11.2427 5.31105ZM10.984 3.96784L11.9101 3.59059C11.6869 3.04247 11.3577 2.54374 10.9415 2.12296L10.2305 2.82619L9.51956 3.52942C9.75088 3.76328 9.93382 4.04046 10.0579 4.34509L10.984 3.96784ZM10.2305 2.82619L10.9415 2.12296C10.5253 1.70217 10.0302 1.36758 9.4845 1.13833L9.09716 2.06026L8.70982 2.9822C9.01308 3.10961 9.28824 3.29557 9.51956 3.52942L10.2305 2.82619ZM9.09716 2.06026L9.4845 1.13833C8.93884 0.909076 8.35334 0.789663 7.76149 0.786922L7.75686 1.78691L7.75222 2.7869C8.08116 2.78842 8.40656 2.85479 8.70982 2.9822L9.09716 2.06026ZM7.75686 1.78691L7.70564 0.788224C6.51224 0.849429 5.39155 1.38038 4.58831 2.26511L5.3287 2.93729L6.06908 3.60948C6.51717 3.11593 7.14234 2.81974 7.80807 2.7856L7.75686 1.78691ZM5.3287 2.93729L4.58831 2.26511C3.78508 3.14984 3.36457 4.31648 3.41862 5.51022L4.4176 5.46498L5.41657 5.41975C5.38642 4.75383 5.621 4.10302 6.06908 3.60948L5.3287 2.93729ZM4.4176 5.46498L3.41767 5.45252C3.41027 6.04583 3.52117 6.63467 3.74389 7.18465L4.67077 6.80929L5.59766 6.43394C5.47467 6.13024 5.41343 5.80508 5.41752 5.47745L4.4176 5.46498ZM4.67077 6.80929L3.74389 7.18465C3.96661 7.73462 4.29668 8.2347 4.71483 8.65569L5.42432 7.95097L6.13382 7.24626C5.90291 7.01379 5.72064 6.73764 5.59766 6.43394L4.67077 6.80929ZM5.42432 7.95097L4.71483 8.65569C5.13298 9.07667 5.63083 9.41011 6.17929 9.63654L6.56089 8.71222L6.94249 7.78789C6.63963 7.66286 6.36472 7.47873 6.13382 7.24626L5.42432 7.95097ZM6.56089 8.71222L6.17929 9.63654C6.72774 9.86297 7.31582 9.97784 7.90917 9.97445L7.90346 8.97447L7.89774 7.97448C7.57009 7.97636 7.24535 7.91292 6.94249 7.78789L6.56089 8.71222ZM7.90346 8.97447L7.94884 9.97344C8.54028 9.94657 9.12061 9.80331 9.65661 9.55186L9.23191 8.64653L8.8072 7.7412C8.50931 7.88095 8.18678 7.96056 7.85808 7.9755L7.90346 8.97447ZM9.23191 8.64653L9.65661 9.55186C10.1926 9.30042 10.6738 8.94572 11.0725 8.50808L10.3333 7.83459L9.59411 7.1611C9.3725 7.40432 9.1051 7.60145 8.8072 7.7412L9.23191 8.64653ZM10.3333 7.83459L11.0725 8.50808C11.4712 8.07044 11.7797 7.55844 11.9804 7.00142L11.0395 6.66258L10.0987 6.32374C9.98717 6.63332 9.81571 6.91787 9.59411 7.1611L10.3333 7.83459ZM11.0395 6.66258L11.9804 7.00142C12.181 6.44439 12.2697 5.85326 12.2416 5.26188L11.2427 5.30942L10.2438 5.35697C10.2595 5.68564 10.2102 6.01416 10.0987 6.32374L11.0395 6.66258Z" fill="black" mask="url(#path-1-inside-1_1448_2059)"/>
<path d="M7.82031 13.0989C9.38222 13.1619 10.8961 13.6574 12.1924 14.5316C13.3182 15.2908 14.2407 16.3095 14.8857 17.4974C14.6786 17.5032 14.4948 17.4686 14.3232 17.4026C14.0728 17.3063 13.8227 17.137 13.5527 16.889L13.2754 16.6146C11.5748 14.8201 9.70323 13.865 7.78711 13.8646C5.86936 13.8642 4.01655 14.8203 2.35547 16.6194L2.33496 16.6419L2.31738 16.6663C2.07668 16.9997 1.73801 17.25 1.34863 17.3821C1.15679 17.4472 0.956961 17.4812 0.756836 17.4857C1.40388 16.3096 2.32205 15.3005 3.43945 14.5452C4.73806 13.6676 6.25469 13.1675 7.82031 13.0989Z" fill="black" stroke="black"/>
</svg>
