<svg width="30" height="29" viewBox="0 0 30 29" fill="none" xmlns="http://www.w3.org/2000/svg">
<path d="M14.7959 15.8838C19.1911 15.8838 22.716 12.3154 22.716 7.96365C22.716 3.61193 19.1911 0 14.7959 0C10.4006 0 6.87572 3.56841 6.87572 7.92013C6.87572 12.2719 10.4006 15.8838 14.7959 15.8838ZM14.7959 2.08883C18.0161 2.08883 20.6272 4.69986 20.6272 7.92013C20.6272 11.1404 18.0161 13.7514 14.7959 13.7514C11.5756 13.7514 8.96455 11.1839 8.96455 7.96365C8.96455 4.74338 11.5756 2.08883 14.7959 2.08883ZM1.04441 28.2862H28.6343C29.2 28.2862 29.6787 27.8075 29.6787 27.2418C29.6787 21.7586 25.1965 17.2763 19.7133 17.2763H9.96544C4.48227 17.2763 0 21.7586 0 27.2418C0 27.8075 0.478689 28.2862 1.04441 28.2862ZM9.96544 19.3652H19.7133C23.7169 19.3652 26.9807 22.3243 27.5029 26.1974H2.17586C2.69807 22.3243 5.96186 19.3652 9.96544 19.3652Z" fill="black"/>
</svg>
