<svg width="58" height="19" viewBox="0 0 58 19" fill="none" xmlns="http://www.w3.org/2000/svg">
<path d="M51.5801 4.9875H50.916C50.0305 7.3625 49.3664 8.55 48.7023 12.1125H52.9084C52.2443 8.55 52.2443 6.8875 51.5801 4.9875ZM58 19H54.2366C54.0153 19 54.0153 19 53.7939 18.7625L53.3511 16.625L53.1298 16.15H47.8168C47.5954 16.15 47.374 16.15 47.374 16.625L46.7099 18.7625C46.7099 19 46.4885 19 46.4885 19H41.8397L42.2824 17.8125L48.7023 1.6625C48.7023 0.475 49.3664 0 50.4733 0H53.7939C54.0153 0 54.2366 -4.60073e-07 54.2366 0.475L57.3359 15.9125C57.5572 16.8625 57.7786 17.575 57.7786 18.525C58 18.7625 58 18.7625 58 19ZM28.3359 18.2875L29.2214 14.0125C29.4427 14.0125 29.6641 14.25 29.6641 14.25C31.2137 14.9625 32.7634 15.4375 34.313 15.2C34.7557 15.2 35.4198 14.9625 35.8626 14.725C36.9695 14.25 36.9695 13.0625 36.084 12.1125C35.6412 11.6375 34.9771 11.4 34.313 10.925C33.4275 10.45 32.542 9.975 31.8779 9.2625C29.2214 6.8875 30.1069 3.5625 31.6565 1.9C32.9847 0.95 33.6489 0 35.4198 0C38.0763 0 40.9542 -4.60073e-07 42.2824 0.475H42.5038C42.2824 1.9 42.0611 3.0875 41.6183 4.5125C40.5114 4.0375 39.4046 3.5625 38.2977 3.5625C37.6336 3.5625 36.9695 3.5625 36.3053 3.8C35.8626 3.8 35.6412 4.0375 35.4198 4.275C34.9771 4.75 34.9771 5.4625 35.4198 5.9375L36.5267 6.8875C37.4122 7.3625 38.2977 7.8375 38.9618 8.3125C40.0687 9.025 41.1756 10.2125 41.3969 11.6375C41.8397 13.775 41.1756 15.675 39.4046 17.1C38.2977 18.05 37.855 18.525 36.3053 18.525C33.2061 18.525 30.771 18.7625 28.7786 18.05C28.5573 18.525 28.5572 18.525 28.3359 18.2875ZM20.5878 19C20.8092 17.3375 20.8092 17.3375 21.0305 16.625C22.1374 11.4 23.2443 5.9375 24.1298 0.7125C24.3511 0.2375 24.3511 0 24.7939 0H28.7786C28.3359 2.85 27.8931 4.9875 27.229 7.6C26.5649 11.1625 25.9008 14.725 25.0153 18.2875C25.0153 18.7625 24.7939 18.7625 24.3511 18.7625M0 0.475C0 0.2375 0.442748 0 0.664123 0H8.19084C9.29771 0 10.1832 0.7125 10.4046 1.9L12.3969 12.35C12.3969 12.5875 12.3969 12.5875 12.6183 12.825C12.6183 12.5875 12.8397 12.5875 12.8397 12.5875L17.4885 0.475C17.2672 0.2375 17.4885 0 17.7099 0H22.3588C22.3588 0.2375 22.3588 0.2375 22.1374 0.475L15.2748 17.8125C15.0534 18.2875 15.0534 18.525 14.8321 18.7625C14.6107 19 14.1679 18.7625 13.7252 18.7625H10.4046C10.1832 18.7625 9.96183 18.7625 9.96183 18.2875L6.41985 3.5625C5.9771 3.0875 5.31298 2.375 4.42748 2.1375C3.09924 1.425 0.664122 0.949999 0.221374 0.949999L0 0.475Z" fill="#142688"/>
</svg>
