<svg width="17" height="16" viewBox="0 0 17 16" fill="none" xmlns="http://www.w3.org/2000/svg">
<path d="M8.12969 15.8691C2.85969 11.7895 0 8.9037 0 5.35336C0 2.30139 1.9549 0 4.55367 0C6.53305 0 7.83224 1.13218 8.5 1.92594C9.16786 1.13218 10.4671 0 12.4463 0C15.0449 0 17 2.30139 17 5.35336C17 8.9098 14.1403 11.7958 8.87031 15.8754C8.65174 16.0415 8.34817 16.0415 8.13568 15.8754L8.12969 15.8691ZM4.55367 1.23064C2.64724 1.23064 1.21429 3.00275 1.21429 5.35336C1.21429 8.3191 3.77031 10.9219 8.5 14.6077C13.2297 10.9158 15.7857 8.3191 15.7857 5.35336C15.7857 3.00275 14.3529 1.23064 12.4463 1.23064C10.1695 1.23064 9.04031 3.25498 9.03429 3.27349C8.82178 3.66729 8.18429 3.66729 7.97178 3.27349C7.9232 3.18735 6.81212 1.22453 4.55351 1.22453L4.55367 1.23064Z" fill="black"/>
</svg>
