<svg width="17" height="15" viewBox="0 0 17 15" fill="none" xmlns="http://www.w3.org/2000/svg">
<path d="M8.585 12.7112L8.5 12.7929L8.4065 12.7112C4.369 9.18801 1.7 6.85831 1.7 4.49591C1.7 2.86104 2.975 1.63488 4.675 1.63488C5.984 1.63488 7.259 2.45232 7.7095 3.56403H9.2905C9.741 2.45232 11.016 1.63488 12.325 1.63488C14.025 1.63488 15.3 2.86104 15.3 4.49591C15.3 6.85831 12.631 9.18801 8.585 12.7112ZM12.325 0C10.846 0 9.4265 0.662125 8.5 1.70027C7.5735 0.662125 6.154 0 4.675 0C2.057 0 0 1.97003 0 4.49591C0 7.57766 2.89 10.1035 7.2675 13.921L8.5 15L9.7325 13.921C14.11 10.1035 17 7.57766 17 4.49591C17 1.97003 14.943 0 12.325 0Z" fill="white"/>
</svg>
