<svg width="76" height="28" viewBox="0 0 76 28" fill="none" xmlns="http://www.w3.org/2000/svg">
<path d="M25.4541 8.90909L27.8156 28H50.9086L48.5468 8.90909H25.4541Z" fill="#AA8FFF"/>
<path d="M31.9426 1.20275C33.2942 2.7391 33.4796 5.15544 32.3567 6.59992C31.2338 8.04439 29.2276 7.96988 27.8761 6.43357C26.5246 4.89727 26.3391 2.48092 27.462 1.03645C28.5849 -0.407988 30.5911 -0.333554 31.9426 1.20275Z" fill="#FFFFFA"/>
<path fill-rule="evenodd" clip-rule="evenodd" d="M75.0048 15.7834C74.4687 11.4898 71.0451 8.89408 66.396 8.90915H50.9092L53.291 28H60.2611L59.7862 24.1818H67.1619C72.9597 24.1818 75.6174 20.6202 75.0048 15.7834ZM66.4036 18.8319L59.112 18.8394L58.5375 14.2591L65.8675 14.2667C67.5907 14.2893 68.4715 15.2401 68.6173 16.553C68.709 17.3906 68.3182 18.8319 66.4036 18.8319Z" fill="#FFFFFA"/>
<path d="M1.70255 22.6651L2.3638 28H25.4545L24.6945 21.8954H13.932L13.8332 21.1333L23.752 14.2591L23.0909 8.90909H0L0.752477 15.0212H11.5379L11.6367 15.7833L1.70255 22.6651Z" fill="#FFFFFA"/>
</svg>
